{
.appVersion = "3151";
.formatVersion = 3;
axes = (
{
name = Weight;
tag = wght;
}
);
classes = (
{
code = "zero one two three four five six seven eight nine";
name = Numbers;
},
{
code = "zero.dnom one.dnom two.dnom three.dnom four.dnom five.dnom six.dnom seven.dnom eight.dnom nine.dnom";
name = Denominators;
},
{
code = "zero.numr one.numr two.numr three.numr four.numr five.numr six.numr seven.numr eight.numr nine.numr";
name = Numerators;
},
{
code = "zero.nnum one.nnum two.nnum three.nnum four.nnum five.nnum six.nnum seven.nnum eight.nnum nine.nnum
";
name = Note_numbers;
notes = p;
},
{
automatic = 1;
code = "A B C D E F G H I J K L M N O P Q R S T U V W X Y Z I.ss01 Iogonek.ss01 Iacute.ss01 Igrave.ss01 Icircumflex.ss01 Itilde.ss01 Imacron.ss01 Idieresis.ss01 Ibreve.ss01 Idotaccent.ss01 AE Dcroat Eng Eth Hbar IJ Lslash OE Oslash Tbar Thorn Germandbls Ccedilla Rcedilla Scedilla Tcedilla Gcommabelow Kcommabelow Lcommabelow Ncommabelow Scommabelow Tcommabelow Aogonek Eogonek Iogonek Uogonek Aacute AEacute Cacute Eacute Iacute Lacute Nacute Oacute Oslashacute Racute Sacute Uacute Wacute Yacute Zacute Ohungarumlaut Uhungarumlaut Agrave Egrave Igrave Ograve Ugrave Wgrave Ygrave Acircumflex Ccircumflex Ecircumflex Gcircumflex Hcircumflex Icircumflex Jcircumflex Ocircumflex Scircumflex Ucircumflex Wcircumflex Ycircumflex Atilde Itilde Ntilde Otilde Utilde Ccaron Dcaron Ecaron Lcaron Ncaron Rcaron Scaron Tcaron Zcaron Amacron Emacron Imacron Omacron Umacron Adieresis Edieresis Idieresis Odieresis Udieresis Wdieresis Ydieresis Abreve Ebreve Ibreve Gbreve Obreve Ubreve Edotaccent Idotaccent Cdotaccent Gdotaccent Zdotaccent Hdotbelow Ldotbelow Aring Aringacute Uring";
name = Uppercase;
},
{
automatic = 1;

glyphs = (
{
glyphname = .notdef;
lastChange = "2022-04-14 18:48:42 +0000";
layers = (
{
background = {
shapes = (
{
closed = 1;
nodes = (
(165,0,l),
(301,700,l),
(119,700,l),
(-17,0,l)
);
},
{
closed = 1;
nodes = (
(134,680,l),
(277,680,l),
(149,20,l),
(6,20,l)
);
}
);
};
layerId = "0474999B-FB68-4D9A-82B1-2286F2372C1D";
shapes = (
{
closed = 1;
nodes = (
(218,0,l),
(354,700,l),
(172,700,l),
(36,0,l)
);
},
{
closed = 1;
nodes = (
(187,680,l),
(330,680,l),
(202,20,l),
(59,20,l)
);
}
);
width = 352;
},
{
background = {
shapes = (
{
closed = 1;
nodes = (
(163,0,l),
(299,700,l),
(117,700,l),
(-19,0,l)
);
},
{
closed = 1;
nodes = (
(132,680,l),
(275,680,l),
(147,20,l),
(4,20,l)
);
}
);
};
layerId = "A1EBBC90-F302-476F-8EDD-2A5F06C6278F";
shapes = (
{
closed = 1;
nodes = (
(201,0,l),
(337,700,l),
(155,700,l),
(19,0,l)
);
},
{
closed = 1;
nodes = (
(170,680,l),
(313,680,l),
(185,20,l),
(42,20,l)
);
}
);
width = 320;
}
);
},
{
glyphname = period;
kernLeft = period;
kernRight = period;
lastChange = "2022-04-14 18:48:42 +0000";
layers = (
{
background = {
shapes = (
{
closed = 1;
nodes = (
(66,0,l),
(81,80,l),
(41,80,l),
(26,0,l)
);
}
);
};
layerId = "0474999B-FB68-4D9A-82B1-2286F2372C1D";
shapes = (
{
closed = 1;
nodes = (
(59,0,l),
(74,80,l),
(34,80,l),
(19,0,l)
);
}
);
width = 170;
},
{
background = {
shapes = (
{
closed = 1;
nodes = (
(173,0,l),
(203,159,l),
(45,159,l),
(14,0,l)
);
}
);
};
layerId = "A1EBBC90-F302-476F-8EDD-2A5F06C6278F";
shapes = (
{
closed = 1;
nodes = (
(170,0,l),
(200,159,l),
(42,159,l),
(11,0,l)
);
}
);
width = 278;
}
);
unicode = 46;
},
{
glyphname = colon;
kernLeft = colon;
kernRight = colon;
lastChange = "2022-04-14 18:48:42 +0000";
layers = (
{
background = {
shapes = (
{
closed = 1;
nodes = (
(134,344,l),
(149,424,l),
(109,424,l),
(94,344,l)
);
},
{
closed = 1;
nodes = (
(67,0,l),
(82,80,l),
(42,80,l),
(27,0,l)
);
}
);
};
layerId = "0474999B-FB68-4D9A-82B1-2286F2372C1D";
shapes = (
{
closed = 1;
nodes = (
(124,344,l),
(139,424,l),
(99,424,l),
(84,344,l)
);
},
{
closed = 1;
nodes = (
(57,0,l),
(72,80,l),
(32,80,l),
(17,0,l)
);
}
);
width = 171;
},
{
background = {
shapes = (
{
closed = 1;
nodes = (
(217,292,l),
(249,451,l),
(90,451,l),
(59,292,l)
);
},
{
closed = 1;
nodes = (
(161,0,l),
(192,159,l),
(33,159,l),
(3,0,l)
);
}
);
};
layerId = "A1EBBC90-F302-476F-8EDD-2A5F06C6278F";
shapes = (
{
closed = 1;
nodes = (
(229,292,l),
(261,451,l),
(102,451,l),
(71,292,l)
);
},
{
closed = 1;
nodes = (
(173,0,l),
(204,159,l),
(45,159,l),
(15,0,l)
);
}
);
width = 287;
}
);
unicode = 58;
},
{
glyphname = comma;
kernLeft = period;
kernRight = period;
lastChange = "2022-04-14 18:48:42 +0000";
layers = (
{
background = {
shapes = (
{
closed = 1;
nodes = (
(6,-123,l),
(95,87,l),
(54,87,l),
(-25,-123,l)
);
}
);
};
layerId = "0474999B-FB68-4D9A-82B1-2286F2372C1D";
shapes = (
{
closed = 1;
nodes = (
(-5,-123,l),
(84,87,l),
(43,87,l),
(-36,-123,l)
);
}
);
width = 162;
},
{
background = {
shapes = (
{
closed = 1;
nodes = (
(87,-113,l),
(209,152,l),
(41,152,l),
(-41,-113,l)
);
}
);
};
layerId = "A1EBBC90-F302-476F-8EDD-2A5F06C6278F";
shapes = (
{
closed = 1;
nodes = (
(95,-113,l),
(217,152,l),
(49,152,l),
(-33,-113,l)
);
}
);
width = 285;
}
);
unicode = 44;
},
{
glyphname = semicolon;
kernLeft = colon;
kernRight = colon;
lastChange = "2022-04-14 18:48:42 +0000";
layers = (
{
background = {
shapes = (
{
closed = 1;
nodes = (
(23,-123,l),
(113,87,l),
(70,87,l),
(-8,-123,l)
);
},
{
closed = 1;
nodes = (
(158,344,l),
(173,424,l),
(133,424,l),
(118,344,l)
);
}
);
};
layerId = "0474999B-FB68-4D9A-82B1-2286F2372C1D";
shapes = (
{
closed = 1;
nodes = (
(16,-123,l),
(106,87,l),
(63,87,l),
(-15,-123,l)
);
},
{
closed = 1;
nodes = (
(151,344,l),
(166,424,l),
(126,424,l),
(111,344,l)
);
}
);
width = 213;
},
{
background = {
shapes = (
{
closed = 1;
nodes = (
(97,-113,l),
(218,152,l),
(50,152,l),
(-32,-113,l)
);
},
{
closed = 1;
nodes = (
(234,292,l),
(265,451,l),
(107,451,l),
(76,292,l)
);
}
);
};
layerId = "A1EBBC90-F302-476F-8EDD-2A5F06C6278F";
shapes = (
{
closed = 1;
nodes = (
(105,-113,l),
(226,152,l),
(58,152,l),
(-24,-113,l)
);
},
{
closed = 1;
nodes = (
(242,292,l),
(273,451,l),
(115,451,l),
(84,292,l)
);
}
);
width = 308;
}
);
unicode = 59;
},
{
glyphname = question;
lastChange = "2022-04-14 18:48:42 +0000";
layers = (
{
background = {
shapes = (
{
closed = 1;
nodes = (
(190,190,l),
(197,227,ls),
(206,273,o),
(249,314,o),
(316,368,cs),
(400,435,o),
(426,478,o),
(441,548,cs,{
name = hr00;
}),
(464,657,o),
(393,709,o),
(286,709,cs),
(241,709,o),
(180,695,o),
(129,672,c),
(143,641,l),
(190,663,o),
(240,677,o),
(283,677,cs),
(370,677,o),
(425,638,o),
(407,555,cs),
(395,500,o),
(366,455,o),
(291,393,cs),
(239,350,o),
(175,292,o),
(163,234,cs),
(160,221,o),
(156,191,o),
(156,191,c)
);
},
{
closed = 1;
nodes = (
(156,1,l),
(172,81,l),
(132,81,l),
(116,1,l)
);
}
);
};
layerId = "0474999B-FB68-4D9A-82B1-2286F2372C1D";
shapes = (
{
closed = 1;
nodes = (
(154,190,l),
(161,227,ls),
(170,273,o),
(213,314,o),
(280,368,cs),
(364,435,o),
(390,478,o),
(405,548,cs,{
name = hr00;
}),
(428,657,o),
(357,709,o),
(250,709,cs),
(205,709,o),
(144,695,o),
(93,672,c),
(107,641,l),
(154,663,o),
(204,677,o),
(247,677,cs),
(334,677,o),
(389,638,o),
(371,555,cs),
(359,500,o),
(330,455,o),
(255,393,cs),
(203,350,o),
(139,292,o),
(127,234,cs),
(124,221,o),
(120,191,o),
(120,191,c)
);
},
{
closed = 1;
nodes = (
(120,1,l),
(136,81,l),
(96,81,l),
(80,1,l)
);
}
);
width = 381;
},
{
background = {
shapes = (
{
closed = 1;
nodes = (
(254,210,l),
(259,230,ls),
(271,276,o),
(295,311,o),
(359,348,cs),
(423,385,o),
(457,431,o),
(471,508,cs),
(496,643,o),
(421,712,o),
(301,712,cs),
(246,712,o),
(154,689,o),
(109,665,c),
(134,566,l),
(166,580,o),
(220,593,o),
(256,593,cs),
(300,593,o),
(324,561,o),
(318,527,cs),
(312,494,o),
(286,450,o),
(230,409,cs),
(176,369,o),
(139,335,o),
(131,292,cs),
(124,253,o),
(132,226,o),
(137,215,c)
);
},
{
closed = 1;
nodes = (
(232,0,l),
(261,149,l),
(103,149,l),
(74,0,l)
);
}
);
};
layerId = "A1EBBC90-F302-476F-8EDD-2A5F06C6278F";
shapes = (
{
closed = 1;
nodes = (
(237,210,l),
(242,230,ls),
(254,276,o),
(278,311,o),
(342,348,cs),
(406,385,o),
(440,431,o),
(454,508,cs),
(479,643,o),
(404,712,o),
(284,712,cs),
(229,712,o),
(137,689,o),
(92,665,c),
(117,566,l),
(149,580,o),
(203,593,o),
(239,593,cs),
(283,593,o),
(307,561,o),
(301,527,cs),
(295,494,o),
(269,450,o),
(213,409,cs),
(159,369,o),
(122,335,o),
(114,292,cs),
(107,253,o),
(115,226,o),
(120,215,c)
);
},
{
closed = 1;
nodes = (
(215,0,l),
(244,149,l),
(86,149,l),
(57,0,l)
);
}
);
width = 435;
}
);
unicode = 63;
},
{
glyphname = exclam;
lastChange = "2022-04-14 18:48:42 +0000";
layers = (
{
background = {
shapes = (
{
closed = 1;
nodes = (
(122,214,l),
(217,700,l),
(182,700,l),
(87,214,l)
);
},
{
closed = 1;
nodes = (
(84,0,l),
(99,80,l),
(59,80,l),
(44,0,l)
);
}
);
};
layerId = "0474999B-FB68-4D9A-82B1-2286F2372C1D";
shapes = (
{
closed = 1;
nodes = (
(111,214,l),
(206,700,l),
(171,700,l),
(76,214,l)
);
},
{
closed = 1;
nodes = (
(73,0,l),
(88,80,l),
(48,80,l),
(33,0,l)
);
}
);
width = 203;
},
{
background = {
shapes = (
{
closed = 1;
nodes = (
(207,237,l),
(303,680,l),
(139,680,l),
(63,237,l)
);
},
{
closed = 1;
nodes = (
(168,0,l),
(198,158,l),
(40,158,l),
(10,0,l)
);
}
);
};
layerId = "A1EBBC90-F302-476F-8EDD-2A5F06C6278F";
shapes = (
{
closed = 1;
nodes = (
(217,237,l),
(313,680,l),
(149,680,l),
(73,237,l)
);
},
{
closed = 1;
nodes = (
(178,0,l),
(208,158,l),
(50,158,l),
(20,0,l)
);
}
);
width = 297;
}
);
unicode = 33;
},
{
glyphname = asterisk;
lastChange = "2022-04-14 18:48:42 +0000";
layers = (
{
background = {
shapes = (
{
closed = 1;
nodes = (
(290,390,l),
(276,519,l),
(403,519,l),
(409,553,l),
(286,553,l),
(349,683,l),
(320,693,l),
(257,564,l),
(170,645,l),
(147,618,l),
(231,538,l),
(115,458,l),
(129,431,l),
(246,510,l),
(258,380,l)
);
}
);
};
layerId = "0474999B-FB68-4D9A-82B1-2286F2372C1D";
shapes = (
{
closed = 1;
nodes = (
(274,390,l),
(260,519,l),
(387,519,l),
(393,553,l),
(270,553,l),
(333,683,l),
(304,693,l),
(241,564,l),
(154,645,l),
(131,618,l),
(215,538,l),
(99,458,l),
(113,431,l),
(230,510,l),
(242,380,l)
);
}
);
width = 372;
},
{
background = {
shapes = (
{
closed = 1;
nodes = (
(325,383,l),
(309,493,l),
(416,489,l),
(434,583,l),
(330,579,l),
(386,689,l),
(301,718,l),
(250,606,l),
(180,677,l),
(114,601,l),
(189,535,l),
(89,469,l),
(132,394,l),
(228,466,l),
(235,355,l)
);
}
);
};
layerId = "A1EBBC90-F302-476F-8EDD-2A5F06C6278F";
shapes = (
{
closed = 1;
nodes = (
(324,383,l),
(308,493,l),
(415,489,l),
(433,583,l),
(329,579,l),
(385,689,l),
(300,718,l),
(249,606,l),
(179,677,l),
(113,601,l),
(188,535,l),
(88,469,l),
(131,394,l),
(227,466,l),
(234,355,l)
);
}
);
width = 416;
}
);
unicode = 42;
},
{
glyphname = underscore;
lastChange = "2022-04-14 18:48:42 +0000";
layers = (
{
background = {
shapes = (
{
closed = 1;
nodes = (
(433,-138,l),
(440,-104,l),
(46,-104,l),
(39,-138,l)
);
}
);
};
layerId = "0474999B-FB68-4D9A-82B1-2286F2372C1D";
shapes = (
{
closed = 1;
nodes = (
(339,-138,l),
(346,-104,l),
(-48,-104,l),
(-55,-138,l)
);
}
);
width = 434;
},
{
background = {
shapes = (
{
closed = 1;
nodes = (
(442,-172,l),
(461,-74,l),
(18,-74,l),
(-2,-172,l)
);
}
);
};
layerId = "A1EBBC90-F302-476F-8EDD-2A5F06C6278F";
shapes = (
{
closed = 1;
nodes = (
(403,-172,l),
(422,-74,l),
(-21,-74,l),
(-41,-172,l)
);
}
);
width = 527;
}
);
unicode = 95;
},
{
glyphname = ampersand;
lastChange = "2022-04-14 18:48:42 +0000";
layers = (
{
background = {
shapes = (
{
closed = 1;
nodes = (
(538,0,l),
(581,0,l),
(292,384,l),
(245,440,o),
(235,497,o),
(246,550,cs),
(259,613,o),
(317,663,o),
(377,663,cs),
(445,663,o),
(472,601,o),
(463,553,cs),
(450,480,o),
(381,425,o),
(274,389,c),
(299,363,l),
(414,401,o),
(479,465,o),
(495,546,cs),
(508,614,o),
(471,694,o),
(379,694,cs),
(300,694,o),
(227,632,o),
(212,554,cs),
(203,508,o),
(205,451,o),
(236,402,c)
);
},
{
closed = 1;
nodes = (
(300,-9,o),
(397,45,o),
(448,129,c),
(427,156,l),
(385,84,o),
(299,23,o),
(219,23,cs),
(128,23,o),
(58,108,o),
(77,206,cs),
(95,297,o),
(157,360,o),
(262,386,c),
(240,413,l),
(130,380,o),
(64,317,o),
(43,211,cs),
(20,94,o),
(91,-9,o),
(216,-9,cs)
);
},
{
closed = 1;
nodes = (
(462,150,l),
(485,189,o),
(524,289,o),
(545,366,c),
(510,366,l),
(494,302,o),
(458,211,o),
(441,178,c)
);
}
);
};
layerId = "0474999B-FB68-4D9A-82B1-2286F2372C1D";
shapes = (
{
closed = 1;
nodes = (
(520,0,l),
(563,0,l),
(274,384,l),
(227,440,o),
(217,497,o),
(228,550,cs),
(241,613,o),
(299,663,o),
(359,663,cs),
(427,663,o),
(454,601,o),
(445,553,cs),
(432,480,o),
(363,425,o),
(256,389,c),
(281,363,l),
(396,401,o),
(461,465,o),
(477,546,cs),
(490,614,o),
(453,694,o),
(361,694,cs),
(282,694,o),
(209,632,o),
(194,554,cs),
(185,508,o),
(187,451,o),
(218,402,c)
);
},
{
closed = 1;
nodes = (
(282,-9,o),
(379,45,o),
(430,129,c),
(409,156,l),
(367,84,o),
(281,23,o),
(201,23,cs),
(110,23,o),
(40,108,o),
(59,206,cs),
(77,297,o),
(139,360,o),
(244,386,c),
(222,413,l),
(112,380,o),
(46,317,o),
(25,211,cs),
(2,94,o),
(73,-9,o),
(198,-9,cs)
);
},
{
closed = 1;
nodes = (
(444,150,l),
(467,189,o),
(506,289,o),
(527,366,c),
(492,366,l),
(476,302,o),
(440,211,o),
(423,178,c)
);
}
);
width = 602;
},
{
background = {
shapes = (
{
closed = 1;
nodes = (
(473,0,l),
(654,0,l),
(346,400,l),
(317,435,o),
(302,483,o),
(311,529,cs),
(319,569,o),
(344,599,o),
(382,599,cs),
(408,599,o),
(437,571,o),
(423,523,cs),
(410,477,o),
(371,446,o),
(309,412,c),
(380,341,l),
(507,383,o),
(550,431,o),
(566,515,cs),
(588,628,o),
(503,692,o),
(389,692,cs),
(263,692,o),
(184,624,o),
(165,537,cs),
(152,476,o),
(161,407,o),
(193,365,cs)
);
},
{
closed = 1;
nodes = (
(327,-12,o),
(405,18,o),
(466,79,c),
(382,171,l),
(355,130,o),
(306,104,o),
(246,104,cs),
(192,104,o),
(169,156,o),
(176,207,cs),
(183,258,o),
(219,296,o),
(256,308,c),
(191,405,l),
(94,370,o),
(39,293,o),
(22,209,cs),
(-4,77,o),
(72,-12,o),
(235,-12,cs)
);
},
{
closed = 1;
nodes = (
(535,141,l),
(573,191,o),
(609,278,o),
(632,341,c),
(502,341,l),
(495,314,o),
(472,261,o),
(453,238,c)
);
}
);
};
layerId = "A1EBBC90-F302-476F-8EDD-2A5F06C6278F";
shapes = (
{
closed = 1;
nodes = (
(482,0,l),
(663,0,l),
(355,400,l),
(326,435,o),
(311,483,o),
(320,529,cs),
(328,569,o),
(353,599,o),
(391,599,cs),
(417,599,o),
(446,571,o),
(432,523,cs),
(419,477,o),
(380,446,o),
(318,412,c),
(389,341,l),
(516,383,o),
(559,431,o),
(575,515,cs),
(597,628,o),
(512,692,o),
(398,692,cs),
(272,692,o),
(193,624,o),
(174,537,cs),
(161,476,o),
(170,407,o),
(202,365,cs)
);
},
{
closed = 1;
nodes = (
(336,-12,o),
(414,18,o),
(475,79,c),
(391,171,l),
(364,130,o),
(315,104,o),
(255,104,cs),
(201,104,o),
(178,156,o),
(185,207,cs),
(192,258,o),
(228,296,o),
(265,308,c),
(200,405,l),
(103,370,o),
(48,293,o),
(31,209,cs),
(5,77,o),
(81,-12,o),
(244,-12,cs)
);
},
{
closed = 1;
nodes = (
(544,141,l),
(582,191,o),
(618,278,o),
(641,341,c),
(511,341,l),
(504,314,o),
(481,261,o),
(462,238,c)
);
}
);
width = 702;
}
);
unicode = 38;
},
{
glyphname = ellipsis;
kernLeft = period;
kernRight = period;
lastChange = "2022-04-14 18:48:42 +0000";
layers = (
{
background = {
shapes = (
{
closed = 1;
nodes = (
(535,0,l),
(550,80,l),
(511,80,l),
(496,0,l)
);
},
{
closed = 1;
nodes = (
(67,0,l),
(82,80,l),
(42,80,l),
(27,0,l)
);
},
{
closed = 1;
nodes = (
(301,0,l),
(316,80,l),
(276,80,l),
(261,0,l)
);
}
);
};
layerId = "0474999B-FB68-4D9A-82B1-2286F2372C1D";
shapes = (
{
closed = 1;
nodes = (
(527,0,l),
(542,80,l),
(503,80,l),
(488,0,l)
);
},
{
closed = 1;
nodes = (
(59,0,l),
(74,80,l),
(34,80,l),
(19,0,l)
);
},
{
closed = 1;
nodes = (
(293,0,l),
(308,80,l),
(268,80,l),
(253,0,l)
);
}
);
width = 638;
},
{
background = {
shapes = (
{
closed = 1;
nodes = (
(679,0,l),
(710,159,l),
(552,159,l),
(521,0,l)
);
},
{
closed = 1;
nodes = (
(165,0,l),
(195,159,l),
(37,159,l),
(6,0,l)
);
},
{
closed = 1;
nodes = (
(421,0,l),
(451,159,l),
(294,159,l),
(263,0,l)
);
}
);
};
layerId = "A1EBBC90-F302-476F-8EDD-2A5F06C6278F";
shapes = (
{
closed = 1;
nodes = (
(684,0,l),
(715,159,l),
(557,159,l),
(526,0,l)
);
},
{
closed = 1;
nodes = (
(170,0,l),
(200,159,l),
(42,159,l),
(11,0,l)
);
},
{
closed = 1;
nodes = (
(426,0,l),
(456,159,l),
(299,159,l),
(268,0,l)
);
}
);
width = 792;
}
);
unicode = 8230;
},
{
glyphname = quotesingle;
kernLeft = quotesingle;
kernRight = quotesingle;
lastChange = "2022-04-14 18:48:42 +0000";
layers = (
{
background = {
shapes = (
{
closed = 1;
nodes = (
(150,490,l),
(196,700,l),
(156,700,l),
(117,490,l)
);
}
);
};
layerId = "0474999B-FB68-4D9A-82B1-2286F2372C1D";
shapes = (
{
closed = 1;
nodes = (
(141,490,l),
(187,700,l),
(147,700,l),
(108,490,l)
);
}
);
width = 161;
},
{
background = {
shapes = (
{
closed = 1;
nodes = (
(223,443,l),
(289,680,l),
(128,680,l),
(100,443,l)
);
}
);
};
layerId = "A1EBBC90-F302-476F-8EDD-2A5F06C6278F";
shapes = (
{
closed = 1;
nodes = (
(226,443,l),
(292,680,l),
(131,680,l),
(103,443,l)
);
}
);
width = 262;
}
);
unicode = 39;
},
{
glyphname = quotedbl;
kernLeft = quotesingle;
kernRight = quotesingle;
lastChange = "2022-04-14 18:48:42 +0000";
layers = (
{
background = {
shapes = (
{
closed = 1;
nodes = (
(305,490,l),
(349,700,l),
(311,700,l),
(273,490,l)
);
},
{
closed = 1;
nodes = (
(157,490,l),
(201,700,l),
(162,700,l),
(124,490,l)
);
}
);
};
layerId = "0474999B-FB68-4D9A-82B1-2286F2372C1D";
shapes = (
{
closed = 1;
nodes = (
(289,490,l),
(333,700,l),
(295,700,l),
(257,490,l)
);
},
{
closed = 1;
nodes = (
(141,490,l),
(185,700,l),
(146,700,l),
(108,490,l)
);
}
);
width = 308;
},
{
background = {
shapes = (
{
closed = 1;
nodes = (
(436,443,l),
(500,680,l),
(340,680,l),
(313,443,l)
);
},
{
closed = 1;
nodes = (
(222,443,l),
(288,680,l),
(127,680,l),
(100,443,l)
);
}
);
};
layerId = "A1EBBC90-F302-476F-8EDD-2A5F06C6278F";
shapes = (
{
closed = 1;
nodes = (
(440,443,l),
(504,680,l),
(344,680,l),
(317,443,l)
);
},
{
closed = 1;
nodes = (
(226,443,l),
(292,680,l),
(131,680,l),
(104,443,l)
);
}
);
width = 475;
}
);
unicode = 34;
},
{
glyphname = hyphen;
kernLeft = hyphen;
kernRight = hyphen;
lastChange = "2022-04-14 18:48:42 +0000";
layers = (
{
background = {
shapes = (
{
closed = 1;
nodes = (
(355,247,l),
(361,281,l),
(81,281,l),
(75,247,l)
);
}
);
};
layerId = "0474999B-FB68-4D9A-82B1-2286F2372C1D";
shapes = (
{
closed = 1;
nodes = (
(329,247,l),
(335,281,l),
(55,281,l),
(49,247,l)
);
}
);
width = 379;
},
{
background = {
shapes = (
{
closed = 1;
nodes = (
(316,203,l),
(340,326,l),
(62,326,l),
(38,203,l)
);
}
);
};
layerId = "A1EBBC90-F302-476F-8EDD-2A5F06C6278F";
shapes = (
{
closed = 1;
nodes = (
(323,203,l),
(347,326,l),
(69,326,l),
(45,203,l)
);
}
);
width = 389;
}
);
unicode = 45;
},
{
glyphname = endash;
kernLeft = hyphen;
kernRight = hyphen;
lastChange = "2022-04-14 18:48:42 +0000";
layers = (
{
background = {
shapes = (
{
closed = 1;
nodes = (
(459,247,l),
(465,281,l),
(45,281,l),
(39,247,l)
);
}
);
};
layerId = "0474999B-FB68-4D9A-82B1-2286F2372C1D";
shapes = (
{
closed = 1;
nodes = (
(469,247,l),
(475,281,l),
(55,281,l),
(49,247,l)
);
}
);
width = 519;
},
{
background = {
shapes = (
{
closed = 1;
nodes = (
(448,203,l),
(472,326,l),
(52,326,l),
(28,203,l)
);
}
);
};
layerId = "A1EBBC90-F302-476F-8EDD-2A5F06C6278F";
shapes = (
{
closed = 1;
nodes = (
(465,203,l),
(489,326,l),
(69,326,l),
(45,203,l)
);
}
);
width = 531;
}
);
unicode = 8211;
},
{
glyphname = emdash;
kernLeft = hyphen;
kernRight = hyphen;
lastChange = "2022-04-14 18:48:42 +0000";
layers = (
{
background = {
shapes = (
{
closed = 1;
nodes = (
(959,247,l),
(965,281,l),
(45,281,l),
(39,247,l)
);
}
);
};
layerId = "0474999B-FB68-4D9A-82B1-2286F2372C1D";
shapes = (
{
closed = 1;
nodes = (
(969,247,l),
(975,281,l),
(55,281,l),
(49,247,l)
);
}
);
width = 1019;
},
{
background = {
shapes = (
{
closed = 1;
nodes = (
(948,203,l),
(972,326,l),
(52,326,l),
(28,203,l)
);
}
);
};
layerId = "A1EBBC90-F302-476F-8EDD-2A5F06C6278F";
shapes = (
{
closed = 1;
nodes = (
(965,203,l),
(989,326,l),
(69,326,l),
(45,203,l)
);
}
);
width = 1031;
}
);
unicode = 8212;
},
{
glyphname = slash;
lastChange = "2022-04-14 18:48:42 +0000";
layers = (
{
background = {
shapes = (
{
closed = 1;
nodes = (
(-14,-120,l),
(407,740,l),
(369,740,l),
(-52,-120,l)
);
}
);
};
layerId = "0474999B-FB68-4D9A-82B1-2286F2372C1D";
shapes = (
{
closed = 1;
nodes = (
(-13,-120,l),
(408,740,l),
(370,740,l),
(-51,-120,l)
);
}
);
width = 334;
},
{
background = {
shapes = (
{
closed = 1;
nodes = (
(105,-120,l),
(547,740,l),
(379,740,l),
(-64,-120,l)
);
}
);
};
layerId = "A1EBBC90-F302-476F-8EDD-2A5F06C6278F";
shapes = (
{
closed = 1;
nodes = (
(113,-120,l),
(555,740,l),
(387,740,l),
(-56,-120,l)
);
}
);
width = 478;
}
);
unicode = 47;
},
{
glyphname = backslash;
lastChange = "2022-04-14 18:48:42 +0000";
layers = (
{
background = {
shapes = (
{
closed = 1;
nodes = (
(151,740,l),
(117,740,l),
(202,-120,l),
(236,-120,l)
);
}
);
};
layerId = "0474999B-FB68-4D9A-82B1-2286F2372C1D";
shapes = (
{
closed = 1;
nodes = (
(144,740,l),
(110,740,l),
(195,-120,l),
(229,-120,l)
);
}
);
width = 316;
},
{
background = {
shapes = (
{
closed = 1;
nodes = (
(262,740,l),
(111,740,l),
(217,-120,l),
(369,-120,l)
);
}
);
};
layerId = "A1EBBC90-F302-476F-8EDD-2A5F06C6278F";
shapes = (
{
closed = 1;
nodes = (
(256,740,l),
(105,740,l),
(211,-120,l),
(363,-120,l)
);
}
);
width = 447;
}
);
unicode = 92;
},
{
glyphname = bar;
kernLeft = bar;
kernRight = bar;
lastChange = "2022-04-14 18:48:42 +0000";
layers = (
{
background = {
shapes = (
{
closed = 1;
nodes = (
(46,-120,l),
(214,740,l),
(179,740,l),
(11,-120,l)
);
}
);
};
layerId = "0474999B-FB68-4D9A-82B1-2286F2372C1D";
shapes = (
{
closed = 1;
nodes = (
(47,-120,l),
(215,740,l),
(180,740,l),
(12,-120,l)
);
}
);
width = 205;
},
{
background = {
shapes = (
{
closed = 1;
nodes = (
(133,-120,l),
(301,740,l),
(151,740,l),
(-17,-120,l)
);
}
);
};
layerId = "A1EBBC90-F302-476F-8EDD-2A5F06C6278F";
shapes = (
{
closed = 1;
nodes = (
(146,-120,l),
(314,740,l),
(164,740,l),
(-4,-120,l)
);
}
);
width = 289;
}
);
unicode = 124;
},
{
glyphname = brokenbar;
kernLeft = bar;
kernRight = bar;
lastChange = "2022-04-14 18:48:42 +0000";
layers = (
{
background = {
shapes = (
{
closed = 1;
nodes = (
(151,410,l),
(216,740,l),
(181,740,l),
(116,410,l)
);
},
{
closed = 1;
nodes = (
(48,-120,l),
(113,210,l),
(78,210,l),
(13,-120,l)
);
}
);
};
layerId = "0474999B-FB68-4D9A-82B1-2286F2372C1D";
shapes = (
{
closed = 1;
nodes = (
(150,410,l),
(215,740,l),
(180,740,l),
(115,410,l)
);
},
{
closed = 1;
nodes = (
(47,-120,l),
(112,210,l),
(77,210,l),
(12,-120,l)
);
}
);
width = 205;
},
{
background = {
shapes = (
{
closed = 1;
nodes = (
(236,410,l),
(301,740,l),
(151,740,l),
(86,410,l)
);
},
{
closed = 1;
nodes = (
(133,-120,l),
(198,210,l),
(48,210,l),
(-17,-120,l)
);
}
);
};
layerId = "A1EBBC90-F302-476F-8EDD-2A5F06C6278F";
shapes = (
{
closed = 1;
nodes = (
(249,410,l),
(314,740,l),
(164,740,l),
(99,410,l)
);
},
{
closed = 1;
nodes = (
(146,-120,l),
(211,210,l),
(61,210,l),
(-4,-120,l)
);
}
);
width = 289;
}
);
unicode = 166;
},
{
glyphname = parenleft;
lastChange = "2022-04-14 18:48:42 +0000";
layers = (
{
background = {
shapes = (
{
closed = 1;
nodes = (
(102,-126,l),
(85,-23,o),
(72,161,o),
(98,297,cs),
(126,441,o),
(213,635,o),
(273,749,c),
(238,751,l),
(177,640,o),
(90,448,o),
(62,304,cs),
(33,156,o),
(49,-27,o),
(69,-124,c)
);
}
);
};
layerId = "0474999B-FB68-4D9A-82B1-2286F2372C1D";
shapes = (
{
closed = 1;
nodes = (
(100,-126,l),
(83,-23,o),
(70,161,o),
(96,297,cs),
(124,441,o),
(211,635,o),
(271,749,c),
(236,751,l),
(175,640,o),
(88,448,o),
(60,304,cs),
(31,156,o),
(47,-27,o),
(67,-124,c)
);
}
);
width = 212;
},
{
background = {
shapes = (
{
closed = 1;
nodes = (
(184,-131,l),
(169,-35,o),
(163,146,o),
(191,291,cs),
(221,446,o),
(304,640,o),
(357,744,c),
(215,756,l),
(159,668,o),
(70,482,o),
(37,313,cs),
(2,133,o),
(25,-40,o),
(49,-120,c)
);
}
);
};
layerId = "A1EBBC90-F302-476F-8EDD-2A5F06C6278F";
shapes = (
{
closed = 1;
nodes = (
(206,-131,l),
(191,-35,o),
(185,146,o),
(213,291,cs),
(243,446,o),
(326,640,o),
(379,744,c),
(237,756,l),
(181,668,o),
(92,482,o),
(59,313,cs),
(24,133,o),
(47,-40,o),
(71,-120,c)
);
}
);
width = 319;
}
);
unicode = 40;
},
{
glyphname = parenright;
lastChange = "2022-04-14 18:48:42 +0000";
layers = (
{
background = {
shapes = (
{
closed = 1;
nodes = (
(1,-126,l),
(55,-36,o),
(144,154,o),
(172,296,cs),
(198,428,o),
(191,620,o),
(170,749,c),
(136,751,l),
(152,639,o),
(162,438,o),
(136,303,cs),
(109,165,o),
(23,-20,o),
(-35,-124,c)
);
}
);
};
layerId = "0474999B-FB68-4D9A-82B1-2286F2372C1D";
shapes = (
{
closed = 1;
nodes = (
(0,-126,l),
(54,-36,o),
(143,154,o),
(171,296,cs),
(197,428,o),
(190,620,o),
(169,749,c),
(135,751,l),
(151,639,o),
(161,438,o),
(135,303,cs),
(108,165,o),
(22,-20,o),
(-36,-124,c)
);
}
);
width = 212;
},
{
background = {
shapes = (
{
closed = 1;
nodes = (
(103,-128,l),
(160,-43,o),
(246,134,o),
(279,305,cs),
(314,484,o),
(292,667,o),
(269,748,c),
(134,758,l),
(147,663,o),
(153,473,o),
(125,326,cs),
(96,174,o),
(11,-22,o),
(-39,-117,c)
);
}
);
};
layerId = "A1EBBC90-F302-476F-8EDD-2A5F06C6278F";
shapes = (
{
closed = 1;
nodes = (
(105,-128,l),
(162,-43,o),
(248,134,o),
(281,305,cs),
(316,484,o),
(294,667,o),
(271,748,c),
(136,758,l),
(149,663,o),
(155,473,o),
(127,326,cs),
(98,174,o),
(13,-22,o),
(-37,-117,c)
);
}
);
width = 320;
}
);
unicode = 41;
userData = {
"30 05 2011 [FL]:
Wt1
1. copiato glifo parenleft in mask
2. creato component
3. mirror  com.typemytype.robofont.guides" = (
{
angle = 0;
isGlobal = 0;
magnetic = 5;
x = 0;
y = 991;
}
);
};
},
{
glyphname = bracketleft;
lastChange = "2022-04-14 18:48:42 +0000";
layers = (
{
background = {
shapes = (
{
closed = 1;
nodes = (
(166,-123,l),
(172,-91,l),
(37,-91,l),
(194,717,l),
(329,717,l),
(335,749,l),
(165,749,l),
(-4,-123,l)
);
}
);
};
layerId = "0474999B-FB68-4D9A-82B1-2286F2372C1D";
shapes = (
{
closed = 1;
nodes = (
(180,-123,l),
(186,-91,l),
(51,-91,l),
(208,717,l),
(343,717,l),
(349,749,l),
(179,749,l),
(10,-123,l)
);
}
);
width = 271;
},
{
background = {
shapes = (
{
closed = 1;
nodes = (
(216,-123,l),
(241,0,l),
(157,0,l),
(277,626,l),
(361,626,l),
(385,749,l),
(147,749,l),
(-22,-123,l)
);
}
);
};
layerId = "A1EBBC90-F302-476F-8EDD-2A5F06C6278F";
shapes = (
{
closed = 1;
nodes = (
(234,-123,l),
(259,0,l),
(175,0,l),
(295,626,l),
(379,626,l),
(403,749,l),
(165,749,l),
(-4,-123,l)
);
}
);
width = 349;
}
);
unicode = 91;
},
{
glyphname = bracketright;
lastChange = "2022-04-14 18:48:42 +0000";
layers = (
{
background = {
shapes = (
{
closed = 1;
nodes = (
(322,749,l),
(152,749,l),
(146,717,l),
(281,717,l),
(124,-91,l),
(-11,-91,l),
(-17,-123,l),
(153,-123,l)
);
}
);
};
layerId = "0474999B-FB68-4D9A-82B1-2286F2372C1D";
shapes = (
{
closed = 1;
nodes = (
(285,749,l),
(115,749,l),
(109,717,l),
(244,717,l),
(87,-91,l),
(-48,-91,l),
(-54,-123,l),
(116,-123,l)
);
}
);
width = 271;
},
{
background = {
shapes = (
{
closed = 1;
nodes = (
(370,749,l),
(131,749,l),
(107,626,l),
(192,626,l),
(72,0,l),
(-13,0,l),
(-38,-123,l),
(201,-123,l)
);
}
);
};
layerId = "A1EBBC90-F302-476F-8EDD-2A5F06C6278F";
shapes = (
{
closed = 1;
nodes = (
(374,749,l),
(135,749,l),
(111,626,l),
(196,626,l),
(76,0,l),
(-9,0,l),
(-34,-123,l),
(205,-123,l)
);
}
);
width = 348;
}
);
unicode = 93;
},
{
glyphname = braceleft;
lastChange = "2022-04-14 18:48:42 +0000";
layers = (
{
background = {
shapes = (
{
closed = 1;
nodes = (
(220,-92,l),
(117,-87,o),
(102,-35,o),
(119,50,cs),
(123,72,o),
(134,110,o),
(137,123,cs),
(141,140,o),
(138,125,o),
(148,166,c),
(166,256,o),
(142,291,o),
(73,314,c),
(72,306,l),
(152,331,o),
(186,362,o),
(204,452,cs),
(206,463,o),
(211,506,o),
(211,508,c),
(214,531,o),
(216,549,o),
(220,570,cs),
(238,663,o),
(275,714,o),
(380,719,c),
(381,751,l),
(266,747,o),
(209,694,o),
(187,580,cs),
(185,568,o),
(181,540,o),
(176,505,cs),
(174,493,o),
(169,455,o),
(168,449,cs),
(155,382,o),
(120,344,o),
(47,326,c),
(43,294,l),
(108,272,o),
(128,242,o),
(116,180,cs),
(113,166,o),
(103,131,o),
(103,129,cs),
(90,78,o),
(93,93,o),
(85,55,cs),
(61,-65,o),
(98,-119,o),
(214,-124,c)
);
}
);
};
layerId = "0474999B-FB68-4D9A-82B1-2286F2372C1D";
shapes = (
{
closed = 1;
nodes = (
(219,-92,l),
(116,-87,o),
(101,-35,o),
(118,50,cs),
(122,72,o),
(133,110,o),
(136,123,cs),
(140,140,o),
(137,125,o),
(147,166,c),
(165,256,o),
(141,291,o),
(72,314,c),
(71,306,l),
(151,331,o),
(185,362,o),
(203,452,cs),
(205,463,o),
(210,506,o),
(210,508,c),
(213,531,o),
(215,549,o),
(219,570,cs),
(237,663,o),
(274,714,o),
(379,719,c),
(380,751,l),
(265,747,o),
(208,694,o),
(186,580,cs),
(184,568,o),
(180,540,o),
(175,505,cs),
(173,493,o),
(168,455,o),
(167,449,cs),
(154,382,o),
(119,344,o),
(46,326,c),
(42,294,l),
(107,272,o),
(127,242,o),
(115,180,cs),
(112,166,o),
(102,131,o),
(102,129,cs),
(89,78,o),
(92,93,o),
(84,55,cs),
(60,-65,o),
(97,-119,o),
(213,-124,c)
);
}
);
width = 306;
},
{
background = {
shapes = (
{
closed = 1;
nodes = (
(260,-19,l),
(194,-14,o),
(190,8,o),
(201,62,cs),
(205,83,o),
(212,122,o),
(215,132,c),
(219,154,o),
(225,173,o),
(226,179,cs),
(245,279,o),
(220,305,o),
(129,331,c),
(114,288,l),
(236,329,o),
(257,341,o),
(275,432,cs),
(278,448,o),
(283,478,o),
(283,480,c),
(287,504,o),
(288,531,o),
(291,547,cs),
(304,610,o),
(326,640,o),
(394,645,c),
(409,758,l),
(261,756,o),
(176,732,o),
(149,596,cs),
(144,572,o),
(142,546,o),
(139,513,cs),
(136,485,o),
(131,452,o),
(131,453,cs),
(124,414,o),
(92,378,o),
(45,368,c),
(32,261,l),
(71,249,o),
(87,225,o),
(80,192,cs),
(76,173,o),
(65,139,o),
(65,137,cs),
(54,97,o),
(49,78,o),
(44,54,cs),
(16,-89,o),
(93,-129,o),
(245,-131,c)
);
}
);
};
layerId = "A1EBBC90-F302-476F-8EDD-2A5F06C6278F";
shapes = (
{
closed = 1;
nodes = (
(271,-19,l),
(205,-14,o),
(201,8,o),
(212,62,cs),
(216,83,o),
(223,122,o),
(226,132,c),
(230,154,o),
(236,173,o),
(237,179,cs),
(256,279,o),
(231,305,o),
(140,331,c),
(125,288,l),
(247,329,o),
(268,341,o),
(286,432,cs),
(289,448,o),
(294,478,o),
(294,480,c),
(298,504,o),
(299,531,o),
(302,547,cs),
(315,610,o),
(337,640,o),
(405,645,c),
(420,758,l),
(272,756,o),
(187,732,o),
(160,596,cs),
(155,572,o),
(153,546,o),
(150,513,cs),
(147,485,o),
(142,452,o),
(142,453,cs),
(135,414,o),
(103,378,o),
(56,368,c),
(43,261,l),
(82,249,o),
(98,225,o),
(91,192,cs),
(87,173,o),
(76,139,o),
(76,137,cs),
(65,97,o),
(60,78,o),
(55,54,cs),
(27,-89,o),
(104,-129,o),
(256,-131,c)
);
}
);
width = 368;
}
);
unicode = 123;
},
{
glyphname = braceright;
lastChange = "2022-04-14 18:48:42 +0000";
layers = (
{
background = {
shapes = (
{
closed = 1;
nodes = (
(-33,-124,l),
(87,-119,o),
(140,-67,o),
(163,51,cs),
(166,65,o),
(170,99,o),
(173,124,c),
(175,146,o),
(180,176,o),
(180,175,cs),
(191,237,o),
(230,274,o),
(300,294,c),
(304,326,l),
(241,343,o),
(220,380,o),
(232,440,cs),
(234,450,o),
(242,481,o),
(246,499,c),
(256,535,o),
(262,564,o),
(264,573,cs),
(287,691,o),
(253,746,o),
(135,751,c),
(129,719,l),
(232,714,o),
(247,665,o),
(230,577,cs),
(226,555,o),
(218,528,o),
(213,514,c),
(208,491,o),
(202,466,o),
(200,455,cs),
(182,362,o),
(207,330,o),
(275,308,c),
(276,316,l),
(195,290,o),
(161,261,o),
(145,171,cs),
(143,161,o),
(141,145,o),
(139,128,c),
(135,92,o),
(133,76,o),
(129,56,cs),
(111,-34,o),
(74,-87,o),
(-31,-92,c)
);
}
);
};
layerId = "0474999B-FB68-4D9A-82B1-2286F2372C1D";
shapes = (
{
closed = 1;
nodes = (
(-52,-124,l),
(68,-119,o),
(121,-67,o),
(144,51,cs),
(147,65,o),
(151,99,o),
(154,124,c),
(156,146,o),
(161,176,o),
(161,175,cs),
(172,237,o),
(211,274,o),
(281,294,c),
(285,326,l),
(222,343,o),
(201,380,o),
(213,440,cs),
(215,450,o),
(223,481,o),
(227,499,c),
(237,535,o),
(243,564,o),
(245,573,cs),
(268,691,o),
(234,746,o),
(116,751,c),
(110,719,l),
(213,714,o),
(228,665,o),
(211,577,cs),
(207,555,o),
(199,528,o),
(194,514,c),
(189,491,o),
(183,466,o),
(181,455,cs),
(163,362,o),
(188,330,o),
(256,308,c),
(257,316,l),
(176,290,o),
(142,261,o),
(126,171,cs),
(124,161,o),
(122,145,o),
(120,128,c),
(116,92,o),
(114,76,o),
(110,56,cs),
(92,-34,o),
(55,-87,o),
(-50,-92,c)
);
}
);
width = 304;
},
{
background = {
shapes = (
{
closed = 1;
nodes = (
(-35,-133,l),
(113,-131,o),
(198,-104,o),
(224,27,cs),
(229,51,o),
(234,108,o),
(234,110,c),
(237,140,o),
(240,163,o),
(241,168,cs),
(250,211,o),
(280,242,o),
(327,255,c),
(340,362,l),
(297,375,o),
(286,396,o),
(292,431,cs),
(296,451,o),
(303,470,o),
(308,489,c),
(321,534,o),
(325,552,o),
(329,571,cs),
(357,714,o),
(277,754,o),
(127,756,c),
(112,642,l),
(179,637,o),
(181,616,o),
(171,562,cs),
(167,538,o),
(159,499,o),
(158,495,c),
(153,470,o),
(149,457,o),
(146,442,cs),
(126,344,o),
(156,316,o),
(244,296,c),
(259,335,l),
(136,296,o),
(115,281,o),
(97,190,cs),
(94,174,o),
(91,149,o),
(91,147,c),
(87,119,o),
(85,97,o),
(82,81,cs),
(70,19,o),
(46,-13,o),
(-22,-18,c)
);
}
);
};
layerId = "A1EBBC90-F302-476F-8EDD-2A5F06C6278F";
shapes = (
{
closed = 1;
nodes = (
(-29,-133,l),
(119,-131,o),
(204,-104,o),
(230,27,cs),
(235,51,o),
(240,108,o),
(240,110,c),
(243,140,o),
(246,163,o),
(247,168,cs),
(256,211,o),
(286,242,o),
(333,255,c),
(346,362,l),
(303,375,o),
(292,396,o),
(298,431,cs),
(302,451,o),
(309,470,o),
(314,489,c),
(327,534,o),
(331,552,o),
(335,571,cs),
(363,714,o),
(283,754,o),
(133,756,c),
(118,642,l),
(185,637,o),
(187,616,o),
(177,562,cs),
(173,538,o),
(165,499,o),
(164,495,c),
(159,470,o),
(155,457,o),
(152,442,cs),
(132,344,o),
(162,316,o),
(250,296,c),
(265,335,l),
(142,296,o),
(121,281,o),
(103,190,cs),
(100,174,o),
(97,149,o),
(97,147,c),
(93,119,o),
(91,97,o),
(88,81,cs),
(76,19,o),
(52,-13,o),
(-16,-18,c)
);
}
);
width = 369;
}
);
unicode = 125;
},
{
glyphname = bullet;
lastChange = "2022-04-14 18:48:42 +0000";
layers = (
{
background = {
shapes = (
{
closed = 1;
nodes = (
(288,110,l),
(345,400,l),
(115,400,l),
(58,110,l)
);
}
);
};
layerId = "0474999B-FB68-4D9A-82B1-2286F2372C1D";
shapes = (
{
closed = 1;
nodes = (
(263,158,o),
(305,200,o),
(305,260,cs),
(305,320,o),
(263,362,o),
(203,362,cs),
(143,362,o),
(101,320,o),
(101,260,cs),
(101,200,o),
(143,158,o),
(203,158,cs)
);
}
);
width = 402;
},
{
background = {
shapes = (
{
closed = 1;
nodes = (
(302,123,l),
(355,401,l),
(112,401,l),
(58,123,l)
);
}
);
};
layerId = "A1EBBC90-F302-476F-8EDD-2A5F06C6278F";
shapes = (
{
closed = 1;
nodes = (
(287,126,o),
(342,181,o),
(342,260,cs),
(342,339,o),
(287,394,o),
(208,394,cs),
(129,394,o),
(74,339,o),
(74,260,cs),
(74,181,o),
(129,126,o),
(208,126,cs)
);
}
);
width = 416;
}
);
unicode = 8226;
},
{
glyphname = squareBullet;
lastChange = "2022-04-14 18:48:42 +0000";
layers = (
{
layerId = "0474999B-FB68-4D9A-82B1-2286F2372C1D";
shapes = (
{
closed = 1;
nodes = (
(282,162,l),
(320,358,l),
(124,358,l),
(86,162,l)
);
}
);
width = 402;
},
{
layerId = "A1EBBC90-F302-476F-8EDD-2A5F06C6278F";
shapes = (
{
closed = 1;
nodes = (
(311,133,l),
(361,387,l),
(107,387,l),
(57,133,l)
);
}
);
width = 416;
}
);
unicode = 9642;
},
{
glyphname = guilsinglleft;
kernLeft = guilsinglleft;
kernRight = guilsinglleft;
lastChange = "2022-04-14 18:48:42 +0000";
layers = (
{
background = {
shapes = (
{
closed = 1;
nodes = (
(175,137,l),
(75,254,l),
(219,360,l),
(226,399,l),
(46,270,l),
(40,234,l),
(168,96,l)
);
}
);
};
layerId = "0474999B-FB68-4D9A-82B1-2286F2372C1D";
shapes = (
{
closed = 1;
nodes = (
(179,137,l),
(79,254,l),
(223,360,l),
(230,399,l),
(50,270,l),
(44,234,l),
(172,96,l)
);
}
);
width = 271;
},
{
background = {
shapes = (
{
closed = 1;
nodes = (
(256,116,l),
(176,254,l),
(311,385,l),
(237,463,l),
(40,272,l),
(35,231,l),
(158,39,l)
);
}
);
};
layerId = "A1EBBC90-F302-476F-8EDD-2A5F06C6278F";
shapes = (
{
closed = 1;
nodes = (
(260,116,l),
(180,254,l),
(315,385,l),
(241,463,l),
(44,272,l),
(39,231,l),
(162,39,l)
);
}
);
width = 333;
}
);
unicode = 8249;
},
{
glyphname = guilsinglright;
kernLeft = guilsinglright;
kernRight = guilsinglright;
lastChange = "2022-04-14 18:48:42 +0000";
layers = (
{
background = {
shapes = (
{
closed = 1;
nodes = (
(211,234,l),
(217,270,l),
(87,399,l),
(80,360,l),
(182,254,l),
(36,137,l),
(29,96,l)
);
}
);
};
layerId = "0474999B-FB68-4D9A-82B1-2286F2372C1D";
shapes = (
{
closed = 1;
nodes = (
(222,234,l),
(228,270,l),
(98,399,l),
(91,360,l),
(193,254,l),
(47,137,l),
(40,96,l)
);
}
);
width = 273;
},
{
background = {
shapes = (
{
closed = 1;
nodes = (
(289,231,l),
(293,272,l),
(169,460,l),
(72,383,l),
(152,251,l),
(17,114,l),
(90,37,l)
);
}
);
};
layerId = "A1EBBC90-F302-476F-8EDD-2A5F06C6278F";
shapes = (
{
closed = 1;
nodes = (
(287,231,l),
(291,272,l),
(167,460,l),
(70,383,l),
(150,251,l),
(15,114,l),
(88,37,l)
);
}
);
width = 333;
}
);
unicode = 8250;
},
{
glyphname = guillemetleft;
kernLeft = guilsinglleft;
kernRight = guilsinglleft;
lastChange = "2022-04-14 18:48:42 +0000";
layers = (
{
background = {
shapes = (
{
closed = 1;
nodes = (
(396,137,l),
(295,254,l),
(440,360,l),
(446,399,l),
(266,270,l),
(260,234,l),
(388,96,l)
);
},
{
closed = 1;
nodes = (
(203,137,l),
(103,254,l),
(247,360,l),
(254,399,l),
(74,270,l),
(68,234,l),
(196,96,l)
);
}
);
};
layerId = "0474999B-FB68-4D9A-82B1-2286F2372C1D";
shapes = (
{
closed = 1;
nodes = (
(372,137,l),
(271,254,l),
(416,360,l),
(422,399,l),
(242,270,l),
(236,234,l),
(364,96,l)
);
},
{
closed = 1;
nodes = (
(179,137,l),
(79,254,l),
(223,360,l),
(230,399,l),
(50,270,l),
(44,234,l),
(172,96,l)
);
}
);
width = 464;
},
{
background = {
shapes = (
{
closed = 1;
nodes = (
(502,114,l),
(422,252,l),
(557,383,l),
(482,460,l),
(285,270,l),
(280,229,l),
(403,37,l)
);
},
{
closed = 1;
nodes = (
(262,114,l),
(182,252,l),
(317,383,l),
(244,460,l),
(46,270,l),
(41,229,l),
(165,37,l)
);
}
);
};
layerId = "A1EBBC90-F302-476F-8EDD-2A5F06C6278F";
shapes = (
{
closed = 1;
nodes = (
(500,114,l),
(420,252,l),
(555,383,l),
(480,460,l),
(283,270,l),
(278,229,l),
(401,37,l)
);
},
{
closed = 1;
nodes = (
(260,114,l),
(180,252,l),
(315,383,l),
(242,460,l),
(44,270,l),
(39,229,l),
(163,37,l)
);
}
);
width = 573;
}
);
unicode = 171;
},
{
glyphname = guillemetright;
kernLeft = guilsinglright;
kernRight = guilsinglright;
lastChange = "2022-04-14 18:48:42 +0000";
layers = (
{
background = {
shapes = (
{
closed = 1;
nodes = (
(421,234,l),
(427,270,l),
(297,399,l),
(290,360,l),
(393,254,l),
(246,137,l),
(239,96,l)
);
},
{
closed = 1;
nodes = (
(229,234,l),
(235,270,l),
(105,399,l),
(97,360,l),
(200,254,l),
(54,137,l),
(47,96,l)
);
}
);
};
layerId = "0474999B-FB68-4D9A-82B1-2286F2372C1D";
shapes = (
{
closed = 1;
nodes = (
(414,234,l),
(420,270,l),
(290,399,l),
(283,360,l),
(386,254,l),
(239,137,l),
(232,96,l)
);
},
{
closed = 1;
nodes = (
(222,234,l),
(228,270,l),
(98,399,l),
(90,360,l),
(193,254,l),
(47,137,l),
(40,96,l)
);
}
);
width = 465;
},
{
background = {
shapes = (
{
closed = 1;
nodes = (
(531,231,l),
(535,272,l),
(411,460,l),
(311,383,l),
(394,252,l),
(257,114,l),
(332,37,l)
);
},
{
closed = 1;
nodes = (
(291,231,l),
(296,272,l),
(171,460,l),
(73,383,l),
(154,252,l),
(19,114,l),
(92,37,l)
);
}
);
};
layerId = "A1EBBC90-F302-476F-8EDD-2A5F06C6278F";
shapes = (
{
closed = 1;
nodes = (
(527,231,l),
(531,272,l),
(407,460,l),
(307,383,l),
(390,252,l),
(253,114,l),
(328,37,l)
);
},
{
closed = 1;
nodes = (
(287,231,l),
(292,272,l),
(167,460,l),
(69,383,l),
(150,252,l),
(15,114,l),
(88,37,l)
);
}
);
width = 573;
}
);
unicode = 187;
},
{
glyphname = at;
lastChange = "2022-04-14 18:48:42 +0000";
layers = (
{
background = {
shapes = (
{
closed = 1;
nodes = (
(438,-199,o),
(510,-190,o),
(550,-178,c),
(543,-148,l),
(503,-159,o),
(446,-168,o),
(389,-168,cs),
(153,-168,o),
(41,-54,o),
(101,259,cs),
(159,559,o),
(325,688,o),
(560,688,cs),
(801,688,o),
(874,548,o),
(834,307,cs),
(831,289,ls),
(792,58,o),
(727,22,o),
(667,22,cs),
(609,22,o),
(591,58,o),
(616,189,cs),
(676,500,l),
(641,500,l),
(581,193,ls),
(560,88,o),
(555,-10,o),
(661,-10,cs),
(741,-10,o),
(822,26,o),
(868,287,cs),
(871,304,ls),
(916,560,o),
(829,719,o),
(561,719,cs),
(307,719,o),
(127,581,o),
(65,262,cs),
(-1,-80,o),
(132,-199,o),
(388,-199,cs)
);
},
{
closed = 1;
nodes = (
(471,-9,o),
(542,17,o),
(588,46,c),
(579,74,l),
(530,47,o),
(468,22,o),
(410,22,cs),
(336,22,o),
(278,61,o),
(312,239,cs),
(340,385,o),
(403,478,o),
(520,478,cs),
(570,478,o),
(615,463,o),
(639,451,c),
(648,480,l),
(624,492,o),
(572,509,o),
(520,509,cs),
(388,509,o),
(311,416,o),
(278,244,cs),
(236,25,o),
(323,-9,o),
(407,-9,cs)
);
}
);
};
layerId = "0474999B-FB68-4D9A-82B1-2286F2372C1D";
shapes = (
{
closed = 1;
nodes = (
(423,-199,o),
(495,-190,o),
(535,-178,c),
(528,-148,l),
(488,-159,o),
(431,-168,o),
(374,-168,cs),
(138,-168,o),
(26,-54,o),
(86,259,cs),
(144,559,o),
(310,688,o),
(545,688,cs),
(786,688,o),
(859,548,o),
(819,307,cs),
(816,289,ls),
(777,58,o),
(712,22,o),
(652,22,cs),
(594,22,o),
(576,58,o),
(601,189,cs),
(661,500,l),
(626,500,l),
(566,193,ls),
(545,88,o),
(540,-10,o),
(646,-10,cs),
(726,-10,o),
(807,26,o),
(853,287,cs),
(856,304,ls),
(901,560,o),
(814,719,o),
(546,719,cs),
(292,719,o),
(112,581,o),
(50,262,cs),
(-16,-80,o),
(117,-199,o),
(373,-199,cs)
);
},
{
closed = 1;
nodes = (
(456,-9,o),
(527,17,o),
(573,46,c),
(564,74,l),
(515,47,o),
(453,22,o),
(395,22,cs),
(321,22,o),
(263,61,o),
(297,239,cs),
(325,385,o),
(388,478,o),
(505,478,cs),
(555,478,o),
(600,463,o),
(624,451,c),
(633,480,l),
(609,492,o),
(557,509,o),
(505,509,cs),
(373,509,o),
(296,416,o),
(263,244,cs),
(221,25,o),
(308,-9,o),
(392,-9,cs)
);
}
);
width = 899;
},
{
background = {
shapes = (
{
closed = 1;
nodes = (
(451,-211,o),
(536,-202,o),
(574,-188,c),
(550,-98,l),
(513,-107,o),
(448,-112,o),
(406,-112,cs),
(191,-112,o),
(108,-13,o),
(160,251,cs),
(214,526,o),
(366,626,o),
(569,626,cs),
(756,626,o),
(841,531,o),
(801,317,cs),
(798,301,ls),
(768,142,o),
(739,105,o),
(697,105,cs),
(657,105,o),
(666,147,o),
(681,226,cs),
(733,493,l),
(580,493,l),
(529,221,ls),
(511,123,o),
(517,-3,o),
(679,-3,cs),
(811,-3,o),
(871,48,o),
(919,289,cs),
(922,304,ls),
(976,576,o),
(846,726,o),
(571,726,cs),
(318,726,o),
(113,611,o),
(48,275,cs),
(-18,-65,o),
(95,-211,o),
(403,-211,cs)
);
},
{
closed = 1;
nodes = (
(473,-12,o),
(524,50,o),
(561,96,c),
(534,158,l),
(519,138,o),
(468,112,o),
(438,112,cs),
(407,112,o),
(384,141,o),
(403,240,cs),
(422,339,o),
(454,389,o),
(516,389,cs),
(530,389,o),
(567,380,o),
(566,374,c),
(579,464,l),
(565,478,o),
(517,505,o),
(468,505,cs),
(344,505,o),
(284,419,o),
(253,259,cs),
(216,66,o),
(275,-12,o),
(372,-12,cs)
);
}
);
};
layerId = "A1EBBC90-F302-476F-8EDD-2A5F06C6278F";
shapes = (
{
closed = 1;
nodes = (
(451,-211,o),
(536,-202,o),
(574,-188,c),
(550,-98,l),
(513,-107,o),
(448,-112,o),
(406,-112,cs),
(191,-112,o),
(108,-13,o),
(160,251,cs),
(214,526,o),
(366,626,o),
(569,626,cs),
(756,626,o),
(841,531,o),
(801,317,cs),
(798,301,ls),
(768,142,o),
(739,105,o),
(697,105,cs),
(657,105,o),
(666,147,o),
(681,226,cs),
(733,493,l),
(580,493,l),
(529,221,ls),
(511,123,o),
(517,-3,o),
(679,-3,cs),
(811,-3,o),
(871,48,o),
(919,289,cs),
(922,304,ls),
(976,576,o),
(846,726,o),
(571,726,cs),
(318,726,o),
(113,611,o),
(48,275,cs),
(-18,-65,o),
(95,-211,o),
(403,-211,cs)
);
},
{
closed = 1;
nodes = (
(473,-12,o),
(524,50,o),
(561,96,c),
(534,158,l),
(519,138,o),
(468,112,o),
(438,112,cs),
(407,112,o),
(384,141,o),
(403,240,cs),
(422,339,o),
(454,389,o),
(516,389,cs),
(530,389,o),
(567,380,o),
(566,374,c),
(579,464,l),
(565,478,o),
(517,505,o),
(468,505,cs),
(344,505,o),
(284,419,o),
(253,259,cs),
(216,66,o),
(275,-12,o),
(372,-12,cs)
);
}
);
width = 962;
}
);
unicode = 64;
},
{
glyphname = braceleft.case;
lastChange = "2022-04-14 18:48:42 +0000";
layers = (
{
background = {
shapes = (
{
closed = 1;
nodes = (
(218,-62,l),
(115,-57,o),
(100,-5,o),
(116,78,cs),
(122,111,o),
(129,130,o),
(135,153,cs),
(141,174,o),
(142,183,o),
(146,196,c),
(163,281,o),
(143,317,o),
(82,340,c),
(153,364,o),
(185,397,o),
(202,482,cs),
(204,493,o),
(209,536,o),
(209,538,c),
(212,567,o),
(218,598,o),
(218,600,cs),
(235,693,o),
(273,744,o),
(378,749,c),
(379,781,l),
(260,776,o),
(207,723,o),
(185,610,cs),
(178,575,o),
(176,551,o),
(174,535,cs),
(173,530,o),
(168,488,o),
(166,479,cs),
(152,410,o),
(119,375,o),
(45,356,c),
(41,324,l),
(106,302,o),
(126,273,o),
(113,208,cs),
(109,187,o),
(106,180,o),
(101,160,cs),
(93,128,o),
(85,101,o),
(82,84,cs),
(59,-36,o),
(97,-89,o),
(212,-94,c)
);
}
);
};
layerId = "0474999B-FB68-4D9A-82B1-2286F2372C1D";
shapes = (
{
closed = 1;
nodes = (
(226,-62,l),
(123,-57,o),
(108,-5,o),
(124,78,cs),
(130,111,o),
(137,130,o),
(143,153,cs),
(149,174,o),
(150,183,o),
(154,196,c),
(171,281,o),
(151,317,o),
(90,340,c),
(161,364,o),
(193,397,o),
(210,482,cs),
(212,493,o),
(217,536,o),
(217,538,c),
(220,567,o),
(226,598,o),
(226,600,cs),
(243,693,o),
(281,744,o),
(386,749,c),
(387,781,l),
(268,776,o),
(215,723,o),
(193,610,cs),
(186,575,o),
(184,551,o),
(182,535,cs),
(181,530,o),
(176,488,o),
(174,479,cs),
(160,410,o),
(127,375,o),
(53,356,c),
(49,324,l),
(114,302,o),
(134,273,o),
(121,208,cs),
(117,187,o),
(114,180,o),
(109,160,cs),
(101,128,o),
(93,101,o),
(90,84,cs),
(67,-36,o),
(105,-89,o),
(220,-94,c)
);
}
);
width = 308;
},
{
background = {
shapes = (
{
closed = 1;
nodes = (
(260,23,l),
(195,28,o),
(191,50,o),
(201,103,cs),
(205,124,o),
(216,160,o),
(216,162,c),
(220,184,o),
(225,204,o),
(226,209,cs),
(240,285,o),
(229,319,o),
(181,342,c),
(246,368,o),
(261,391,o),
(275,462,cs),
(279,483,o),
(283,508,o),
(283,510,c),
(287,534,o),
(289,554,o),
(291,566,cs),
(303,627,o),
(327,658,o),
(394,663,c),
(408,788,l),
(260,786,o),
(176,762,o),
(149,626,cs),
(144,601,o),
(141,566,o),
(139,545,cs),
(136,515,o),
(133,494,o),
(131,482,cs),
(123,441,o),
(90,413,o),
(45,403,c),
(32,286,l),
(77,272,o),
(86,252,o),
(80,219,cs),
(78,207,o),
(67,169,o),
(66,167,cs),
(54,122,o),
(49,110,o),
(44,85,cs),
(16,-59,o),
(93,-99,o),
(244,-101,c)
);
}
);
};
layerId = "A1EBBC90-F302-476F-8EDD-2A5F06C6278F";
shapes = (
{
closed = 1;
nodes = (
(279,23,l),
(214,28,o),
(210,50,o),
(220,103,cs),
(224,124,o),
(235,160,o),
(235,162,c),
(239,184,o),
(244,204,o),
(245,209,cs),
(259,285,o),
(248,319,o),
(200,342,c),
(265,368,o),
(280,391,o),
(294,462,cs),
(298,483,o),
(302,508,o),
(302,510,c),
(306,534,o),
(308,554,o),
(310,566,cs),
(322,627,o),
(346,658,o),
(413,663,c),
(427,788,l),
(279,786,o),
(195,762,o),
(168,626,cs),
(163,601,o),
(160,566,o),
(158,545,cs),
(155,515,o),
(152,494,o),
(150,482,cs),
(142,441,o),
(109,413,o),
(64,403,c),
(51,286,l),
(96,272,o),
(105,252,o),
(99,219,cs),
(97,207,o),
(86,169,o),
(85,167,cs),
(73,122,o),
(68,110,o),
(63,85,cs),
(35,-59,o),
(112,-99,o),
(263,-101,c)
);
}
);
width = 373;
}
);
},
{
glyphname = braceright.case;
lastChange = "2022-04-14 18:48:42 +0000";
layers = (
{
background = {
shapes = (
{
closed = 1;
nodes = (
(143,749,l),
(246,744,o),
(261,694,o),
(244,607,cs),
(237,570,o),
(231,553,o),
(226,534,cs),
(221,515,o),
(215,493,o),
(215,491,c),
(198,402,o),
(220,369,o),
(279,347,c),
(204,322,o),
(175,288,o),
(160,206,cs),
(158,195,o),
(154,166,o),
(151,149,c),
(149,126,o),
(145,98,o),
(142,83,cs),
(126,-2,o),
(88,-57,o),
(-17,-62,c),
(-19,-94,l),
(101,-89,o),
(153,-37,o),
(176,79,cs),
(181,103,o),
(184,130,o),
(187,152,cs),
(192,193,o),
(193,198,o),
(195,209,cs),
(209,277,o),
(242,312,o),
(315,331,c),
(319,363,l),
(255,384,o),
(236,417,o),
(247,475,cs),
(249,487,o),
(250,490,o),
(260,527,cs),
(270,562,o),
(277,597,o),
(278,601,cs),
(301,722,o),
(266,776,o),
(148,781,c)
);
}
);
};
layerId = "0474999B-FB68-4D9A-82B1-2286F2372C1D";
shapes = (
{
closed = 1;
nodes = (
(118,749,l),
(221,744,o),
(236,694,o),
(219,607,cs),
(212,570,o),
(206,553,o),
(201,534,cs),
(196,515,o),
(190,493,o),
(190,491,c),
(173,402,o),
(195,369,o),
(254,347,c),
(179,322,o),
(150,288,o),
(135,206,cs),
(133,195,o),
(129,166,o),
(126,149,c),
(124,126,o),
(120,98,o),
(117,83,cs),
(101,-2,o),
(63,-57,o),
(-42,-62,c),
(-44,-94,l),
(76,-89,o),
(128,-37,o),
(151,79,cs),
(156,103,o),
(159,130,o),
(162,152,cs),
(167,193,o),
(168,198,o),
(170,209,cs),
(184,277,o),
(217,312,o),
(290,331,c),
(294,363,l),
(230,384,o),
(211,417,o),
(222,475,cs),
(224,487,o),
(225,490,o),
(235,527,cs),
(245,562,o),
(252,597,o),
(253,601,cs),
(276,722,o),
(241,776,o),
(123,781,c)
);
}
);
width = 306;
},
{
background = {
shapes = (
{
closed = 1;
nodes = (
(120,662,l),
(187,657,o),
(189,636,o),
(179,582,cs),
(175,563,o),
(167,534,o),
(165,524,c),
(161,501,o),
(156,486,o),
(154,474,cs),
(140,400,o),
(152,365,o),
(200,344,c),
(134,317,o),
(119,294,o),
(105,223,cs),
(100,198,o),
(99,183,o),
(98,175,c),
(93,151,o),
(91,132,o),
(89,120,cs),
(78,58,o),
(54,28,o),
(-14,23,c),
(-29,-103,l),
(120,-100,o),
(205,-75,o),
(231,58,cs),
(238,93,o),
(240,130,o),
(241,140,cs),
(244,169,o),
(249,200,o),
(249,202,cs),
(256,240,o),
(285,271,o),
(335,283,c),
(348,400,l),
(305,414,o),
(294,432,o),
(300,464,cs),
(304,485,o),
(315,516,o),
(315,518,cs),
(324,553,o),
(327,555,o),
(337,605,cs),
(364,745,o),
(283,784,o),
(135,787,c)
);
}
);
};
layerId = "A1EBBC90-F302-476F-8EDD-2A5F06C6278F";
shapes = (
{
closed = 1;
nodes = (
(127,662,l),
(194,657,o),
(196,636,o),
(186,582,cs),
(182,563,o),
(174,534,o),
(172,524,c),
(168,501,o),
(163,486,o),
(161,474,cs),
(147,400,o),
(159,365,o),
(207,344,c),
(141,317,o),
(126,294,o),
(112,223,cs),
(107,198,o),
(106,183,o),
(105,175,c),
(100,151,o),
(98,132,o),
(96,120,cs),
(85,58,o),
(61,28,o),
(-7,23,c),
(-22,-103,l),
(127,-100,o),
(212,-75,o),
(238,58,cs),
(245,93,o),
(247,130,o),
(248,140,cs),
(251,169,o),
(256,200,o),
(256,202,cs),
(263,240,o),
(292,271,o),
(342,283,c),
(355,400,l),
(312,414,o),
(301,432,o),
(307,464,cs),
(311,485,o),
(322,516,o),
(322,518,cs),
(331,553,o),
(334,555,o),
(344,605,cs),
(371,745,o),
(290,784,o),
(142,787,c)
);
}
);
width = 373;
}
);
},
{
glyphname = section;
lastChange = "2022-04-14 18:48:42 +0000";
layers = (
{
background = {
shapes = (
{
closed = 1;
nodes = (
(283,-123,o),
(349,-70,o),
(369,32,cs),
(378,79,o),
(372,107,o),
(354,126,c),
(378,157,o),
(407,210,o),
(415,252,cs),
(434,352,o),
(381,379,o),
(287,395,cs),
(203,409,o),
(159,424,o),
(177,514,cs),
(192,592,o),
(247,628,o),
(329,628,cs),
(357,628,o),
(420,622,o),
(469,615,c),
(474,647,l),
(437,653,o),
(374,660,o),
(331,660,cs),
(235,660,o),
(163,620,o),
(143,517,cs),
(131,456,o),
(142,424,o),
(162,405,c),
(127,374,o),
(97,330,o),
(88,285,cs),
(68,186,o),
(124,155,o),
(224,139,cs),
(308,126,o),
(351,118,o),
(335,36,cs),
(318,-50,o),
(263,-92,o),
(181,-92,cs),
(147,-92,o),
(75,-84,o),
(33,-78,c),
(27,-110,l),
(68,-116,o),
(141,-123,o),
(180,-123,cs)
);
},
{
closed = 1;
nodes = (
(307,157,o),
(264,166,o),
(233,171,cs),
(150,184,o),
(108,208,o),
(123,282,cs),
(132,325,o),
(163,365,o),
(185,389,c),
(209,376,o),
(250,368,o),
(278,363,cs),
(354,349,o),
(396,336,o),
(380,254,cs),
(371,211,o),
(349,168,o),
(330,145,c)
);
}
);
};
layerId = "0474999B-FB68-4D9A-82B1-2286F2372C1D";
shapes = (
{
closed = 1;
nodes = (
(252,-123,o),
(318,-70,o),
(338,32,cs),
(347,79,o),
(341,107,o),
(323,126,c),
(347,157,o),
(376,210,o),
(384,252,cs),
(403,352,o),
(350,379,o),
(256,395,cs),
(172,409,o),
(128,424,o),
(146,514,cs),
(161,592,o),
(216,628,o),
(298,628,cs),
(326,628,o),
(389,622,o),
(438,615,c),
(443,647,l),
(406,653,o),
(343,660,o),
(300,660,cs),
(204,660,o),
(132,620,o),
(112,517,cs),
(100,456,o),
(111,424,o),
(131,405,c),
(96,374,o),
(66,330,o),
(57,285,cs),
(37,186,o),
(93,155,o),
(193,139,cs),
(277,126,o),
(320,118,o),
(304,36,cs),
(287,-50,o),
(232,-92,o),
(150,-92,cs),
(116,-92,o),
(44,-84,o),
(2,-78,c),
(-4,-110,l),
(37,-116,o),
(110,-123,o),
(149,-123,cs)
);
},
{
closed = 1;
nodes = (
(276,157,o),
(233,166,o),
(202,171,cs),
(119,184,o),
(77,208,o),
(92,282,cs),
(101,325,o),
(132,365,o),
(154,389,c),
(178,376,o),
(219,368,o),
(247,363,cs),
(323,349,o),
(365,336,o),
(349,254,cs),
(340,211,o),
(318,168,o),
(299,145,c)
);
}
);
width = 438;
},
{
background = {
shapes = (
{
closed = 1;
nodes = (
(311,-174,o),
(406,-135,o),
(433,-1,cs),
(446,65,o),
(439,88,o),
(421,110,c),
(455,143,o),
(479,194,o),
(488,240,cs),
(509,349,o),
(462,378,o),
(334,406,cs),
(257,423,o),
(239,429,o),
(246,465,cs),
(255,511,o),
(284,534,o),
(353,534,cs),
(378,534,o),
(459,526,o),
(523,518,c),
(540,630,l,{
name = hr00;
}),
(488,643,o),
(397,661,o),
(332,661,cs),
(212,661,o),
(124,619,o),
(97,482,cs),
(86,425,o),
(88,395,o),
(109,368,c),
(77,337,o),
(50,295,o),
(41,249,cs),
(20,142,o),
(63,108,o),
(187,81,cs),
(276,61,o),
(293,58,o),
(286,22,cs),
(276,-26,o),
(238,-49,o),
(189,-49,cs),
(150,-49,o),
(30,-32,o),
(10,-27,c),
(-15,-138,l),
(56,-159,o),
(139,-174,o),
(201,-174,cs)
);
},
{
closed = 1;
nodes = (
(300,180,o),
(260,185,o),
(236,191,cs),
(194,202,o),
(184,211,o),
(190,241,cs),
(196,271,o),
(212,296,o),
(228,309,c),
(247,307,o),
(267,304,o),
(289,299,cs),
(331,290,o),
(349,280,o),
(343,248,cs),
(338,220,o),
(326,193,o),
(312,178,c)
);
}
);
};
layerId = "A1EBBC90-F302-476F-8EDD-2A5F06C6278F";
shapes = (
{
closed = 1;
nodes = (
(317,-174,o),
(412,-135,o),
(439,-1,cs),
(452,65,o),
(445,88,o),
(427,110,c),
(461,143,o),
(485,194,o),
(494,240,cs),
(515,349,o),
(468,378,o),
(340,406,cs),
(263,423,o),
(245,429,o),
(252,465,cs),
(261,511,o),
(290,534,o),
(359,534,cs),
(384,534,o),
(465,526,o),
(529,518,c),
(546,630,l,{
name = hr00;
}),
(494,643,o),
(403,661,o),
(338,661,cs),
(218,661,o),
(130,619,o),
(103,482,cs),
(92,425,o),
(94,395,o),
(115,368,c),
(83,337,o),
(56,295,o),
(47,249,cs),
(26,142,o),
(69,108,o),
(193,81,cs),
(282,61,o),
(299,58,o),
(292,22,cs),
(282,-26,o),
(244,-49,o),
(195,-49,cs),
(156,-49,o),
(36,-32,o),
(16,-27,c),
(-9,-138,l),
(62,-159,o),
(145,-174,o),
(207,-174,cs)
);
},
{
closed = 1;
nodes = (
(306,180,o),
(266,185,o),
(242,191,cs),
(200,202,o),
(190,211,o),
(196,241,cs),
(202,271,o),
(218,296,o),
(234,309,c),
(253,307,o),
(273,304,o),
(295,299,cs),
(337,290,o),
(355,280,o),
(349,248,cs),
(344,220,o),
(332,193,o),
(318,178,c)
);
}
);
width = 547;
}
);
unicode = 167;
},
{
glyphname = paragraph;
lastChange = "2022-04-14 18:48:42 +0000";
layers = (
{
background = {
shapes = (
{
closed = 1;
nodes = (
(208,0,l),
(337,667,l),
(474,667,l),
(345,0,l),
(380,0,l),
(509,667,l),
(597,667,l),
(604,700,l),
(302,700,ls),
(206,700,o),
(117,630,o),
(97,526,cs),
(77,420,o),
(141,350,o),
(236,350,cs),
(241,350,l),
(173,0,l)
);
}
);
};
guides = (
{
angle = 177.2985;
pos = (379,283);
},
{
angle = 177.2985;
pos = (242,283);
}
);
layerId = "0474999B-FB68-4D9A-82B1-2286F2372C1D";
shapes = (
{
closed = 1;
nodes = (
(187,0,l),
(316,667,l),
(453,667,l),
(324,0,l),
(359,0,l),
(488,667,l),
(576,667,l),
(583,700,l),
(281,700,ls),
(185,700,o),
(96,630,o),
(76,526,cs),
(56,420,o),
(120,350,o),
(215,350,cs),
(220,350,l),
(152,0,l)
);
}
);
width = 514;
},
{
background = {
shapes = (
{
closed = 1;
nodes = (
(272,0,l),
(380,566,l),
(442,566,l),
(333,0,l),
(412,0,l),
(521,566,l),
(585,566,l),
(610,696,l),
(317,696,ls),
(203,696,o),
(104,608,o),
(81,490,cs),
(56,363,o),
(128,265,o),
(241,265,cs),
(242,265,l),
(191,0,l)
);
}
);
};
guides = (
{
angle = 173.6407;
pos = (458,283);
},
{
angle = 173.6407;
pos = (378,283);
},
{
angle = 173.6407;
pos = (317,283);
}
);
layerId = "A1EBBC90-F302-476F-8EDD-2A5F06C6278F";
shapes = (
{
closed = 1;
nodes = (
(263,0,l),
(371,566,l),
(433,566,l),
(324,0,l),
(403,0,l),
(512,566,l),
(576,566,l),
(601,696,l),
(308,696,ls),
(194,696,o),
(95,608,o),
(72,490,cs),
(47,363,o),
(119,265,o),
(232,265,cs),
(233,265,l),
(182,0,l)
);
}
);
width = 559;
}
);
unicode = 182;
},
{
glyphname = dagger;
lastChange = "2022-04-14 18:48:42 +0000";
layers = (
{
background = {
shapes = (
{
closed = 1;
nodes = (
(187,-79,l),
(294,466,l),
(462,466,l),
(469,500,l),
(301,500,l),
(340,700,l),
(305,700,l),
(266,500,l),
(99,500,l),
(92,466,l),
(259,466,l),
(154,-79,l)
);
}
);
};
layerId = "0474999B-FB68-4D9A-82B1-2286F2372C1D";
shapes = (
{
closed = 1;
nodes = (
(151,-79,l),
(258,466,l),
(426,466,l),
(433,500,l),
(265,500,l),
(304,700,l),
(269,700,l),
(230,500,l),
(63,500,l),
(56,466,l),
(223,466,l),
(118,-79,l)
);
}
);
width = 399;
},
{
background = {
shapes = (
{
closed = 1;
nodes = (
(245,-137,l),
(344,365,l),
(482,365,l),
(508,493,l),
(370,493,l),
(406,680,l),
(252,680,l),
(216,493,l),
(80,493,l),
(54,365,l),
(191,365,l),
(96,-137,l)
);
}
);
};
layerId = "A1EBBC90-F302-476F-8EDD-2A5F06C6278F";
shapes = (
{
closed = 1;
nodes = (
(231,-137,l),
(330,365,l),
(468,365,l),
(494,493,l),
(356,493,l),
(392,680,l),
(238,680,l),
(202,493,l),
(66,493,l),
(40,365,l),
(177,365,l),
(82,-137,l)
);
}
);
width = 468;
}
);
unicode = 8224;
},
{
glyphname = daggerdbl;
lastChange = "2022-04-14 18:48:42 +0000";
layers = (
{
background = {
shapes = (
{
closed = 1;
nodes = (
(203,-79,l),
(242,121,l),
(410,121,l),
(417,153,l),
(249,153,l),
(309,466,l),
(477,466,l),
(484,500,l),
(316,500,l),
(355,700,l),
(320,700,l),
(281,500,l),
(114,500,l),
(107,466,l),
(274,466,l),
(214,153,l),
(47,153,l),
(40,121,l),
(207,121,l),
(168,-79,l)
);
}
);
};
layerId = "0474999B-FB68-4D9A-82B1-2286F2372C1D";
shapes = (
{
closed = 1;
nodes = (
(179,-79,l),
(218,121,l),
(386,121,l),
(393,153,l),
(225,153,l),
(285,466,l),
(453,466,l),
(460,500,l),
(292,500,l),
(331,700,l),
(296,700,l),
(257,500,l),
(90,500,l),
(83,466,l),
(250,466,l),
(190,153,l),
(23,153,l),
(16,121,l),
(183,121,l),
(144,-79,l)
);
}
);
width = 454;
},
{
background = {
shapes = (
{
closed = 1;
nodes = (
(254,-137,l),
(290,51,l),
(428,51,l),
(454,179,l),
(316,179,l),
(351,365,l),
(488,365,l),
(514,493,l),
(377,493,l),
(413,680,l),
(259,680,l),
(223,493,l),
(87,493,l),
(61,365,l),
(197,365,l),
(162,179,l),
(26,179,l),
(0,51,l),
(136,51,l),
(100,-137,l)
);
}
);
};
layerId = "A1EBBC90-F302-476F-8EDD-2A5F06C6278F";
shapes = (
{
closed = 1;
nodes = (
(269,-137,l),
(305,51,l),
(443,51,l),
(469,179,l),
(331,179,l),
(366,365,l),
(503,365,l),
(529,493,l),
(392,493,l),
(428,680,l),
(274,680,l),
(238,493,l),
(102,493,l),
(76,365,l),
(212,365,l),
(177,179,l),
(41,179,l),
(15,51,l),
(151,51,l),
(115,-137,l)
);
}
);
width = 535;
}
);
unicode = 8225;
},
{
glyphname = degree;
lastChange = "2022-04-14 18:48:42 +0000";
layers = (
{
background = {
shapes = (
{
closed = 1;
nodes = (
(333,438,o),
(391,491,o),
(407,571,cs),
(423,653,o),
(382,709,o),
(306,709,cs),
(232,709,o),
(172,655,o),
(157,576,cs),
(141,493,o),
(181,438,o),
(258,438,cs)
);
},
{
closed = 1;
nodes = (
(201,470,o),
(177,510,o),
(189,573,cs),
(201,634,o),
(247,677,o),
(304,677,cs),
(362,677,o),
(389,636,o),
(377,575,cs),
(364,512,o),
(318,470,o),
(260,470,cs)
);
}
);
};
layerId = "0474999B-FB68-4D9A-82B1-2286F2372C1D";
shapes = (
{
closed = 1;
nodes = (
(377,438,o),
(435,491,o),
(451,571,cs),
(467,653,o),
(426,709,o),
(350,709,cs),
(276,709,o),
(216,655,o),
(201,576,cs),
(185,493,o),
(225,438,o),
(302,438,cs)
);
},
{
closed = 1;
nodes = (
(245,470,o),
(221,510,o),
(233,573,cs),
(245,634,o),
(291,677,o),
(348,677,cs),
(406,677,o),
(433,636,o),
(421,575,cs),
(408,512,o),
(362,470,o),
(304,470,cs)
);
}
);
width = 532;
},
{
background = {
shapes = (
{
closed = 1;
nodes = (
(333,405,o),
(396,457,o),
(411,537,cs),
(429,630,o),
(381,696,o),
(298,696,cs),
(222,696,o),
(161,642,o),
(145,561,cs),
(127,469,o),
(175,405,o),
(260,405,cs)
);
},
{
closed = 1;
nodes = (
(230,486,o),
(217,504,o),
(224,539,cs),
(232,580,o),
(264,614,o),
(300,614,cs),
(331,614,o),
(341,590,o),
(335,560,cs),
(326,516,o),
(292,486,o),
(257,486,cs)
);
}
);
};
layerId = "A1EBBC90-F302-476F-8EDD-2A5F06C6278F";
shapes = (
{
closed = 1;
nodes = (
(376,405,o),
(439,457,o),
(454,537,cs),
(472,630,o),
(424,696,o),
(341,696,cs),
(265,696,o),
(204,642,o),
(188,561,cs),
(170,469,o),
(218,405,o),
(303,405,cs)
);
},
{
closed = 1;
nodes = (
(273,486,o),
(260,504,o),
(267,539,cs),
(275,580,o),
(307,614,o),
(343,614,cs),
(374,614,o),
(384,590,o),
(378,560,cs),
(369,516,o),
(335,486,o),
(300,486,cs)
);
}
);
width = 532;
}
);
unicode = 176;
},
{
glyphname = ordfeminine;
lastChange = "2022-04-14 18:48:42 +0000";
layers = (
{
background = {
shapes = (
{
closed = 1;
nodes = (
(320,411,l),
(306,412,o),
(290,417,o),
(294,439,c),
(319,569,ls),
(328,615,o),
(312,659,o),
(244,659,cs),
(203,659,o),
(163,646,o),
(143,637,c),
(153,612,l),
(176,621,o),
(200,632,o),
(243,632,cs),
(285,632,o),
(298,610,o),
(291,570,cs),
(284,530,l),
(282,523,l),
(261,420,l),
(261,416,l),
(263,408,o),
(265,400,o),
(279,392,cs),
(287,389,o),
(295,387,o),
(307,387,c)
);
},
{
closed = 1;
nodes = (
(209,386,o),
(244,396,o),
(265,415,c),
(265,439,l),
(243,421,o),
(211,412,o),
(182,412,cs),
(149,412,o),
(130,425,o),
(135,460,cs),
(141,493,o),
(165,509,o),
(200,513,cs),
(228,516,o),
(259,517,o),
(285,514,c),
(288,539,l),
(261,543,o),
(229,541,o),
(200,538,cs),
(145,533,o),
(114,503,o),
(107,462,cs),
(99,415,o),
(127,386,o),
(181,386,cs)
);
}
);
};
layerId = "0474999B-FB68-4D9A-82B1-2286F2372C1D";
shapes = (
{
closed = 1;
nodes = (
(306,411,l),
(292,412,o),
(276,417,o),
(280,439,c),
(305,569,ls),
(314,615,o),
(298,659,o),
(230,659,cs),
(189,659,o),
(149,646,o),
(129,637,c),
(139,612,l),
(162,621,o),
(186,632,o),
(229,632,cs),
(271,632,o),
(284,610,o),
(277,570,cs),
(270,530,l),
(268,523,l),
(247,420,l),
(247,416,l),
(249,408,o),
(251,400,o),
(265,392,cs),
(273,389,o),
(281,387,o),
(293,387,c)
);
},
{
closed = 1;
nodes = (
(195,386,o),
(230,396,o),
(251,415,c),
(251,439,l),
(229,421,o),
(197,412,o),
(168,412,cs),
(135,412,o),
(116,425,o),
(121,460,cs),
(127,493,o),
(151,509,o),
(186,513,cs),
(214,516,o),
(245,517,o),
(271,514,c),
(274,539,l),
(247,543,o),
(215,541,o),
(186,538,cs),
(131,533,o),
(100,503,o),
(93,462,cs),
(85,415,o),
(113,386,o),
(167,386,cs)
);
}
);
width = 323;
},
{
background = {
shapes = (
{
closed = 1;
nodes = (
(349,425,l),
(341,427,o),
(335,430,o),
(335,440,c),
(362,565,ls),
(376,628,o),
(323,663,o),
(240,663,cs),
(206,663,o),
(162,654,o),
(134,642,c),
(141,592,l),
(167,599,o),
(197,602,o),
(228,602,cs),
(256,602,o),
(274,591,o),
(269,567,cs),
(262,535,l),
(256,503,l),
(240,433,l),
(252,394,l),
(256,379,o),
(277,367,o),
(303,367,cs),
(312,367,o),
(328,368,o),
(337,370,c)
);
},
{
closed = 1;
nodes = (
(193,367,o),
(241,379,o),
(258,399,c),
(247,444,l),
(240,432,o),
(215,421,o),
(198,421,cs),
(179,421,o),
(171,435,o),
(174,456,cs),
(177,476,o),
(191,495,o),
(214,498,cs),
(229,501,o),
(248,498,o),
(265,494,c),
(273,538,l),
(252,543,o),
(222,544,o),
(201,543,cs),
(130,539,o),
(93,513,o),
(83,464,cs),
(73,410,o),
(104,367,o),
(163,367,cs)
);
}
);
};
layerId = "A1EBBC90-F302-476F-8EDD-2A5F06C6278F";
shapes = (
{
closed = 1;
nodes = (
(348,425,l),
(340,427,o),
(334,430,o),
(334,440,c),
(361,565,ls),
(375,628,o),
(322,663,o),
(239,663,cs),
(205,663,o),
(161,654,o),
(133,642,c),
(140,592,l),
(166,599,o),
(196,602,o),
(227,602,cs),
(255,602,o),
(273,591,o),
(268,567,cs),
(261,535,l),
(255,503,l),
(239,433,l),
(251,394,l),
(255,379,o),
(276,367,o),
(302,367,cs),
(311,367,o),
(327,368,o),
(336,370,c)
);
},
{
closed = 1;
nodes = (
(192,367,o),
(240,379,o),
(257,399,c),
(246,444,l),
(239,432,o),
(214,421,o),
(197,421,cs),
(178,421,o),
(170,435,o),
(173,456,cs),
(176,476,o),
(190,495,o),
(213,498,cs),
(228,501,o),
(247,498,o),
(264,494,c),
(272,538,l),
(251,543,o),
(221,544,o),
(200,543,cs),
(129,539,o),
(92,513,o),
(82,464,cs),
(72,410,o),
(103,367,o),
(162,367,cs)
);
}
);
width = 367;
}
);
unicode = 170;
},
{
glyphname = ordmasculine;
lastChange = "2022-04-14 18:48:42 +0000";
layers = (
{
background = {
shapes = (
{
closed = 1;
nodes = (
(272,386,o),
(316,439,o),
(332,522,cs),
(349,609,o),
(321,659,o),
(250,659,cs),
(182,659,o),
(135,609,o),
(120,527,cs),
(104,441,o),
(131,386,o),
(202,386,cs)
);
},
{
closed = 1;
nodes = (
(151,418,o),
(141,457,o),
(153,522,cs),
(166,589,o),
(195,627,o),
(249,627,cs),
(301,627,o),
(312,591,o),
(299,525,cs),
(286,459,o),
(257,418,o),
(204,418,cs)
);
}
);
};
layerId = "0474999B-FB68-4D9A-82B1-2286F2372C1D";
shapes = (
{
closed = 1;
nodes = (
(254,386,o),
(298,439,o),
(314,522,cs),
(331,609,o),
(303,659,o),
(232,659,cs),
(164,659,o),
(117,609,o),
(102,527,cs),
(86,441,o),
(113,386,o),
(184,386,cs)
);
},
{
closed = 1;
nodes = (
(133,418,o),
(123,457,o),
(135,522,cs),
(148,589,o),
(177,627,o),
(231,627,cs),
(283,627,o),
(294,591,o),
(281,525,cs),
(268,459,o),
(239,418,o),
(186,418,cs)
);
}
);
width = 314;
},
{
background = {
shapes = (
{
closed = 1;
nodes = (
(285,367,o),
(333,415,o),
(350,504,cs),
(369,604,o),
(333,663,o),
(231,663,cs),
(137,663,o),
(91,616,o),
(73,528,cs),
(53,427,o),
(89,367,o),
(193,367,cs)
);
},
{
closed = 1;
nodes = (
(166,449,o),
(162,472,o),
(168,506,cs),
(176,547,o),
(195,581,o),
(230,581,cs),
(253,581,o),
(262,562,o),
(255,527,cs),
(246,484,o),
(228,449,o),
(193,449,cs)
);
}
);
};
layerId = "A1EBBC90-F302-476F-8EDD-2A5F06C6278F";
shapes = (
{
closed = 1;
nodes = (
(307,367,o),
(355,415,o),
(372,504,cs),
(391,604,o),
(355,663,o),
(253,663,cs),
(159,663,o),
(113,616,o),
(95,528,cs),
(75,427,o),
(111,367,o),
(215,367,cs)
);
},
{
closed = 1;
nodes = (
(188,449,o),
(184,472,o),
(190,506,cs),
(198,547,o),
(217,581,o),
(252,581,cs),
(275,581,o),
(284,562,o),
(277,527,cs),
(268,484,o),
(250,449,o),
(215,449,cs)
);
}
);
width = 369;
}
);
unicode = 186;
},
{
glyphname = trademark;
lastChange = "2022-04-14 18:48:42 +0000";
layers = (
{
background = {
shapes = (
{
closed = 1;
nodes = (
(334,331,l),
(385,589,l),
(415,356,l),
(448,356,l),
(574,589,l),
(523,331,l),
(554,331,l),
(610,621,l),
(560,621,l),
(438,393,l),
(409,621,l),
(361,621,l),
(304,331,l)
);
},
{
closed = 1;
nodes = (
(196,332,l),
(246,590,l),
(321,590,l),
(328,621,l),
(144,621,l),
(137,590,l),
(214,590,l),
(164,332,l)
);
}
);
};
layerId = "0474999B-FB68-4D9A-82B1-2286F2372C1D";
shapes = (
{
closed = 1;
nodes = (
(300,331,l),
(351,589,l),
(381,356,l),
(414,356,l),
(540,589,l),
(489,331,l),
(520,331,l),
(576,621,l),
(526,621,l),
(404,393,l),
(375,621,l),
(327,621,l),
(270,331,l)
);
},
{
closed = 1;
nodes = (
(162,332,l),
(212,590,l),
(287,590,l),
(294,621,l),
(110,621,l),
(103,590,l),
(180,590,l),
(130,332,l)
);
}
);
width = 579;
},
{
background = {
shapes = (
{
closed = 1;
nodes = (
(356,331,l),
(396,528,l),
(407,359,l),
(455,359,l),
(528,528,l),
(489,331,l),
(556,331,l),
(614,638,l),
(525,638,l),
(446,466,l),
(439,638,l),
(350,638,l),
(291,331,l)
);
},
{
closed = 1;
nodes = (
(220,332,l),
(269,582,l),
(314,582,l),
(325,638,l),
(141,638,l),
(130,582,l),
(198,582,l),
(149,332,l)
);
}
);
};
layerId = "A1EBBC90-F302-476F-8EDD-2A5F06C6278F";
shapes = (
{
closed = 1;
nodes = (
(325,331,l),
(365,528,l),
(376,359,l),
(424,359,l),
(497,528,l),
(458,331,l),
(525,331,l),
(583,638,l),
(494,638,l),
(415,466,l),
(408,638,l),
(319,638,l),
(260,331,l)
);
},
{
closed = 1;
nodes = (
(189,332,l),
(238,582,l),
(283,582,l),
(294,638,l),
(110,638,l),
(99,582,l),
(167,582,l),
(118,332,l)
);
}
);
width = 579;
}
);
unicode = 8482;
},
{
glyphname = copyright;
kernLeft = copyright;
kernRight = copyright;
lastChange = "2022-04-14 18:48:42 +0000";
layers = (
{
background = {
shapes = (
{
closed = 1;
nodes = (
(423,169,o),
(546,287,o),
(575,434,cs),
(603,581,o),
(527,700,o),
(392,700,cs),
(258,700,o),
(135,581,o),
(107,434,cs),
(78,287,o),
(154,169,o),
(288,169,cs)
);
},
{
closed = 1;
nodes = (
(346,278,o),
(363,281,o),
(380,285,c),
(376,308,l),
(374,307,o),
(352,303,o),
(327,303,cs),
(280,303,o),
(250,342,o),
(267,429,cs),
(284,515,o),
(316,563,o),
(373,563,cs),
(387,563,o),
(412,558,o),
(424,553,c),
(435,575,l),
(422,582,o),
(395,588,o),
(372,588,cs),
(299,588,o),
(259,523,o),
(242,435,cs),
(225,347,o),
(246,278,o),
(329,278,cs)
);
},
{
closed = 1;
nodes = (
(178,201,o),
(112,305,o),
(137,434,cs),
(162,563,o),
(268,668,o),
(385,668,cs),
(502,668,o),
(570,563,o),
(545,434,cs),
(520,305,o),
(412,201,o),
(295,201,cs)
);
}
);
};
layerId = "0474999B-FB68-4D9A-82B1-2286F2372C1D";
shapes = (
{
closed = 1;
nodes = (
(402,169,o),
(526,284,o),
(556,434,cs),
(585,584,o),
(505,700,o),
(373,700,cs),
(241,700,o),
(116,584,o),
(88,434,cs),
(58,284,o),
(137,169,o),
(269,169,cs)
);
},
{
closed = 1;
nodes = (
(326,278,o),
(342,280,o),
(361,285,c),
(358,310,l),
(355,309,o),
(333,306,o),
(308,306,cs),
(261,306,o),
(236,349,o),
(252,429,cs),
(270,520,o),
(301,560,o),
(354,560,cs),
(368,560,o),
(393,555,o),
(405,550,c),
(416,575,l),
(401,582,o),
(374,588,o),
(353,588,cs),
(288,588,o),
(242,534,o),
(223,435,cs),
(204,335,o),
(236,278,o),
(310,278,cs)
);
},
{
closed = 1;
nodes = (
(156,201,o),
(91,297,o),
(118,434,cs),
(143,560,o),
(257,668,o),
(366,668,cs),
(481,668,o),
(551,565,o),
(526,434,cs),
(502,309,o),
(386,201,o),
(276,201,cs)
);
}
);
width = 572;
},
{
background = {
shapes = (
{
closed = 1;
nodes = (
(443,155,o),
(567,278,o),
(597,434,cs),
(626,585,o),
(551,713,o),
(398,713,cs),
(252,713,o),
(122,593,o),
(91,434,cs),
(60,277,o),
(144,155,o),
(289,155,cs)
);
},
{
closed = 1;
nodes = (
(358,272,o),
(398,288,o),
(413,299,c),
(396,360,l),
(380,352,o),
(361,345,o),
(343,345,cs),
(314,345,o),
(301,371,o),
(313,428,cs),
(328,496,o),
(354,521,o),
(383,521,cs),
(399,521,o),
(415,516,o),
(430,506,c),
(460,565,l),
(442,582,o),
(403,595,o),
(372,595,cs),
(281,595,o),
(242,543,o),
(220,441,cs),
(199,341,o),
(229,272,o),
(320,272,cs)
);
},
{
closed = 1;
nodes = (
(174,208,o),
(116,310,o),
(142,434,cs),
(166,548,o),
(283,661,o),
(387,661,cs),
(511,661,o),
(571,558,o),
(545,434,cs),
(521,320,o),
(405,208,o),
(299,208,cs)
);
}
);
};
layerId = "A1EBBC90-F302-476F-8EDD-2A5F06C6278F";
shapes = (
{
closed = 1;
nodes = (
(428,155,o),
(557,272,o),
(588,434,cs),
(619,594,o),
(534,713,o),
(389,713,cs),
(244,713,o),
(113,594,o),
(82,434,cs),
(51,276,o),
(136,155,o),
(280,155,cs)
);
},
{
closed = 1;
nodes = (
(341,272,o),
(384,284,o),
(404,299,c),
(387,360,l),
(367,350,o),
(349,345,o),
(334,345,cs),
(303,345,o),
(293,374,o),
(304,428,cs),
(318,489,o),
(341,521,o),
(374,521,cs),
(390,521,o),
(406,516,o),
(421,506,c),
(451,565,l),
(433,582,o),
(394,595,o),
(363,595,cs),
(278,595,o),
(235,551,o),
(211,441,cs),
(189,334,o),
(225,272,o),
(311,272,cs)
);
},
{
closed = 1;
nodes = (
(176,208,o),
(108,308,o),
(134,434,cs),
(160,557,o),
(271,661,o),
(378,661,cs),
(501,661,o),
(564,570,o),
(536,434,cs),
(509,306,o),
(402,208,o),
(290,208,cs)
);
}
);
width = 602;
}
);
unicode = 169;
},
{
glyphname = registered;
kernLeft = copyright;
kernRight = copyright;
lastChange = "2022-04-14 18:48:42 +0000";
layers = (
{
background = {
shapes = (
{
closed = 1;
nodes = (
(412,169,o),
(532,291,o),
(559,433,cs),
(588,583,o),
(505,700,o),
(371,700,cs),
(237,700,o),
(116,582,o),
(88,437,cs),
(59,288,o),
(136,169,o),
(273,169,cs)
);
},
{
closed = 1;
nodes = (
(160,201,o),
(92,298,o),
(118,435,cs),
(143,563,o),
(253,668,o),
(370,668,cs),
(490,668,o),
(554,564,o),
(529,436,cs),
(503,305,o),
(395,201,o),
(274,201,cs)
);
},
{
closed = 1;
nodes = (
(230,286,l),
(253,402,l),
(325,402,l),
(363,286,l),
(395,286,l),
(356,420,l),
(348,402,l),
(391,412,o),
(421,446,o),
(429,486,cs),
(442,551,o),
(401,581,o),
(333,581,cs),
(257,581,l),
(199,286,l)
);
},
{
closed = 1;
nodes = (
(259,433,l),
(282,550,l),
(329,550,ls),
(377,550,o),
(406,528,o),
(400,496,cs),
(393,458,o),
(361,433,o),
(320,433,cs)
);
}
);
};
layerId = "0474999B-FB68-4D9A-82B1-2286F2372C1D";
shapes = (
{
closed = 1;
nodes = (
(412,169,o),
(532,291,o),
(559,433,cs),
(588,583,o),
(505,700,o),
(371,700,cs),
(237,700,o),
(116,582,o),
(88,437,cs),
(59,288,o),
(136,169,o),
(273,169,cs)
);
},
{
closed = 1;
nodes = (
(160,201,o),
(92,298,o),
(118,435,cs),
(143,563,o),
(253,668,o),
(370,668,cs),
(490,668,o),
(554,564,o),
(529,436,cs),
(503,305,o),
(395,201,o),
(274,201,cs)
);
},
{
closed = 1;
nodes = (
(230,286,l),
(253,402,l),
(325,402,l),
(363,286,l),
(395,286,l),
(352,420,l),
(345,403,l),
(391,412,o),
(421,441,o),
(430,487,cs),
(442,547,o),
(406,581,o),
(341,581,cs),
(257,581,l),
(199,286,l)
);
},
{
closed = 1;
nodes = (
(282,550,l),
(337,550,ls),
(385,550,o),
(406,528,o),
(399,491,cs),
(393,458,o),
(372,433,o),
(320,433,cs),
(259,433,l)
);
}
);
width = 575;
},
{
background = {
shapes = (
{
closed = 1;
nodes = (
(434,155,o),
(558,278,o),
(588,434,cs),
(617,585,o),
(542,713,o),
(389,713,cs),
(243,713,o),
(113,593,o),
(82,434,cs),
(51,277,o),
(135,155,o),
(280,155,cs)
);
},
{
closed = 1;
nodes = (
(165,208,o),
(109,310,o),
(133,434,cs),
(157,558,o),
(274,661,o),
(378,661,cs),
(502,661,o),
(560,558,o),
(536,434,cs),
(512,310,o),
(396,208,o),
(290,208,cs)
);
},
{
closed = 1;
nodes = (
(274,279,l),
(293,378,l),
(330,378,l),
(345,279,l),
(421,279,l),
(393,456,l),
(337,373,l),
(426,374,o),
(451,439,o),
(459,481,cs),
(472,545,o),
(429,588,o),
(370,588,cs),
(258,588,l),
(197,279,l)
);
},
{
closed = 1;
nodes = (
(304,438,l),
(322,528,l),
(357,528,ls),
(387,528,o),
(392,510,o),
(387,486,cs),
(382,462,o),
(370,438,o),
(335,438,cs)
);
}
);
};
layerId = "A1EBBC90-F302-476F-8EDD-2A5F06C6278F";
shapes = (
{
closed = 1;
nodes = (
(434,155,o),
(558,278,o),
(588,434,cs),
(617,585,o),
(542,713,o),
(389,713,cs),
(243,713,o),
(113,593,o),
(82,434,cs),
(51,277,o),
(135,155,o),
(280,155,cs)
);
},
{
closed = 1;
nodes = (
(165,208,o),
(109,310,o),
(133,434,cs),
(157,558,o),
(274,661,o),
(378,661,cs),
(502,661,o),
(560,558,o),
(536,434,cs),
(512,310,o),
(396,208,o),
(290,208,cs)
);
},
{
closed = 1;
nodes = (
(274,279,l),
(293,378,l),
(330,378,l),
(345,279,l),
(421,279,l),
(393,456,l),
(337,373,l),
(426,374,o),
(451,439,o),
(459,481,cs),
(471,543,o),
(439,588,o),
(370,588,cs),
(258,588,l),
(197,279,l)
);
},
{
closed = 1;
nodes = (
(322,528,l),
(357,528,ls),
(387,528,o),
(392,508,o),
(387,484,cs),
(382,460,o),
(370,438,o),
(335,438,cs),
(304,438,l)
);
}
);
width = 602;
}
);
unicode = 174;
},
{
glyphname = zero;
lastChange = "2022-04-14 18:48:42 +0000";
layers = (
{
background = {
shapes = (
{
closed = 1;
nodes = (
(331,-9,o),
(444,98,o),
(498,364,cs),
(548,611,o),
(473,711,o),
(348,711,cs),
(231,711,o),
(118,604,o),
(64,338,cs),
(14,91,o),
(89,-9,o),
(214,-9,cs)
);
},
{
closed = 1;
nodes = (
(115,23,o),
(56,108,o),
(100,330,cs),
(149,574,o),
(243,679,o),
(347,679,cs),
(447,679,o),
(506,594,o),
(462,372,cs),
(413,128,o),
(319,23,o),
(215,23,cs)
);
}
);
};
layerId = "0474999B-FB68-4D9A-82B1-2286F2372C1D";
shapes = (
{
closed = 1;
nodes = (
(329,-9,o),
(442,98,o),
(496,364,cs),
(546,611,o),
(471,711,o),
(346,711,cs),
(229,711,o),
(116,604,o),
(62,338,cs),
(12,91,o),
(87,-9,o),
(212,-9,cs)
);
},
{
closed = 1;
nodes = (
(109,25,o),
(52,108,o),
(96,330,cs),
(145,574,o),
(247,677,o),
(345,677,cs),
(449,677,o),
(506,594,o),
(462,372,cs),
(413,128,o),
(311,25,o),
(213,25,cs)
);
}
);
width = 520;
},
{
background = {
shapes = (
{
closed = 1;
nodes = (
(362,-12,o),
(458,91,o),
(509,332,cs),
(564,591,o),
(500,712,o),
(339,712,cs),
(186,712,o),
(94,600,o),
(42,354,cs),
(-11,105,o),
(58,-12,o),
(216,-12,cs)
);
},
{
closed = 1;
nodes = (
(165,107,o),
(161,175,o),
(195,334,cs),
(232,507,o),
(267,594,o),
(331,594,cs),
(387,594,o),
(391,518,o),
(357,356,cs),
(321,188,o),
(283,107,o),
(223,107,cs)
);
}
);
};
layerId = "A1EBBC90-F302-476F-8EDD-2A5F06C6278F";
shapes = (
{
closed = 1;
nodes = (
(363,-12,o),
(459,91,o),
(510,332,cs),
(565,591,o),
(501,712,o),
(340,712,cs),
(187,712,o),
(95,600,o),
(43,354,cs),
(-10,105,o),
(59,-12,o),
(217,-12,cs)
);
},
{
closed = 1;
nodes = (
(166,107,o),
(162,175,o),
(196,334,cs),
(233,507,o),
(268,594,o),
(332,594,cs),
(388,594,o),
(392,518,o),
(358,356,cs),
(322,188,o),
(284,107,o),
(224,107,cs)
);
}
);
width = 520;
}
);
unicode = 48;
userData = {
"21 03 2011 [FL]:
Wt1
01. correzione spessore H

23 05 2011 [OA]:
Wt0
01. correzione overshooting superiore 669
02. spessori curveH 32
03. correzione larghezza 550
Wt1
01. spessori curveH 120
02. spessori curveV 142  com.typemytype.robofont.guides" = (
{
angle = 0;
isGlobal = 0;
magnetic = 5;
x = 0;
y = 660;
}
);
};
},
{
glyphname = one;
lastChange = "2022-04-14 18:48:42 +0000";
layers = (
{
background = {
shapes = (
{
closed = 1;
nodes = (
(294,0,l),
(430,700,l),
(394,700,l),
(178,556,l),
(190,527,l),
(400,667,l),
(390,676,l),
(258,0,l)
);
}
);
};
layerId = "0474999B-FB68-4D9A-82B1-2286F2372C1D";
shapes = (
{
closed = 1;
nodes = (
(282,0,l),
(418,700,l),
(382,700,l),
(166,556,l),
(181,524,l),
(391,664,l),
(378,676,l),
(246,0,l)
);
}
);
width = 520;
},
{
background = {
shapes = (
{
closed = 1;
nodes = (
(356,0,l),
(493,700,l),
(357,700,l),
(124,555,l),
(158,438,l),
(365,567,l),
(319,600,l),
(202,0,l)
);
}
);
};
layerId = "A1EBBC90-F302-476F-8EDD-2A5F06C6278F";
shapes = (
{
closed = 1;
nodes = (
(346,0,l),
(483,700,l),
(347,700,l),
(114,555,l),
(148,438,l),
(355,567,l),
(309,600,l),
(192,0,l)
);
}
);
width = 520;
}
);
unicode = 49;
userData = {
"21 03 2011 [FL]:
Wt1
01. correzione spessore H  com.typemytype.robofont.guides" = (
{
angle = 0;
isGlobal = 0;
magnetic = 5;
x = 0;
y = 660;
}
);
};
},
{
glyphname = two;
lastChange = "2022-04-14 18:48:42 +0000";
layers = (
{
background = {
shapes = (
{
closed = 1;
nodes = (
(405,0,l),
(411,32,l),
(56,32,l),
(60,21,l),
(300,255,ls),
(418,370,o),
(468,430,o),
(485,510,cs),
(514,650,o),
(426,710,o),
(323,710,cs),
(265,710,o),
(199,690,o),
(159,671,c),
(171,641,l),
(233,667,o),
(282,678,o),
(321,678,cs),
(402,678,o),
(472,632,o),
(448,518,cs),
(432,445,o),
(387,390,o),
(276,281,cs),
(23,31,l),
(18,0,l)
);
}
);
};
layerId = "0474999B-FB68-4D9A-82B1-2286F2372C1D";
shapes = (
{
closed = 1;
nodes = (
(401,0,l),
(407,34,l),
(52,34,l),
(56,21,l),
(296,255,ls),
(414,370,o),
(464,430,o),
(481,510,cs),
(510,650,o),
(422,710,o),
(319,710,cs),
(261,710,o),
(195,690,o),
(155,671,c),
(167,640,l),
(229,666,o),
(278,676,o),
(317,676,cs),
(398,676,o),
(472,636,o),
(446,518,cs),
(430,445,o),
(384,388,o),
(272,280,cs),
(19,34,l),
(14,0,l)
);
}
);
width = 520;
},
{
background = {
shapes = (
{
closed = 1;
nodes = (
(418,0,l),
(442,114,l),
(139,114,l),
(171,70,l),
(334,233,ls),
(446,345,o),
(487,406,o),
(507,489,cs),
(540,626,o),
(460,712,o),
(319,712,cs),
(257,712,o),
(178,689,o),
(120,662,c),
(143,561,l),
(208,585,o),
(241,592,o),
(277,592,cs),
(335,592,o),
(365,557,o),
(352,497,cs),
(336,427,o),
(282,370,o),
(188,274,cs),
(29,112,l),
(7,0,l)
);
}
);
};
layerId = "A1EBBC90-F302-476F-8EDD-2A5F06C6278F";
shapes = (
{
closed = 1;
nodes = (
(414,0,l),
(438,114,l),
(135,114,l),
(167,70,l),
(330,233,ls),
(442,345,o),
(483,406,o),
(503,489,cs),
(536,626,o),
(456,712,o),
(315,712,cs),
(253,712,o),
(174,689,o),
(116,662,c),
(139,561,l),
(204,585,o),
(237,592,o),
(273,592,cs),
(331,592,o),
(361,557,o),
(348,497,cs),
(332,427,o),
(278,370,o),
(184,274,cs),
(25,112,l),
(3,0,l)
);
}
);
width = 520;
}
);
unicode = 50;
userData = {
"21 03 2011 [FL]:
Wt1
01. correzione spessore H

23 05 2011 [OA]:
Wt0
01.  spessori curveH 32

Wt1
01. spessori curveH 120
03. spessore astaH 120  com.typemytype.robofont.guides" = (
{
angle = 0;
isGlobal = 0;
magnetic = 5;
x = 0;
y = 660;
}
);
};
},
{
glyphname = three;
lastChange = "2022-04-14 18:48:42 +0000";
layers = (
{
background = {
shapes = (
{
closed = 1;
nodes = (
(335,-10,o),
(420,67,o),
(444,190,cs),
(467,306,o),
(425,358,o),
(349,378,c),
(352,370,l),
(414,385,o),
(476,446,o),
(493,533,cs),
(514,644,o),
(466,710,o),
(342,710,cs),
(277,710,o),
(199,693,o),
(160,676,c),
(171,643,l),
(213,660,o),
(285,676,o),
(341,676,cs),
(437,676,o),
(474,629,o),
(457,541,cs),
(438,443,o),
(343,387,o),
(295,387,cs),
(223,387,l),
(216,353,l),
(292,353,l),
(371,348,o),
(429,308,o),
(406,192,cs),
(387,95,o),
(317,23,o),
(217,23,cs),
(155,23,o),
(87,43,o),
(45,66,c),
(29,34,l),
(70,11,o),
(144,-10,o),
(216,-10,cs)
);
}
);
};
layerId = "0474999B-FB68-4D9A-82B1-2286F2372C1D";
shapes = (
{
closed = 1;
nodes = (
(320,-10,o),
(405,67,o),
(429,190,cs),
(452,306,o),
(410,358,o),
(334,378,c),
(337,370,l),
(399,385,o),
(461,446,o),
(478,533,cs),
(499,644,o),
(451,710,o),
(327,710,cs),
(262,710,o),
(184,693,o),
(145,676,c),
(156,643,l),
(198,660,o),
(270,676,o),
(326,676,cs),
(422,676,o),
(462,633,o),
(444,541,cs),
(424,437,o),
(331,387,o),
(280,387,cs),
(208,387,l),
(201,353,l),
(277,353,l),
(356,348,o),
(421,328,o),
(394,192,cs),
(374,90,o),
(302,24,o),
(202,24,cs),
(140,24,o),
(72,42,o),
(30,65,c),
(14,34,l),
(55,11,o),
(129,-10,o),
(201,-10,cs)
);
}
);
width = 520;
},
{
background = {
shapes = (
{
closed = 1;
nodes = (
(335,-12,o),
(432,56,o),
(460,200,cs),
(481,309,o),
(444,347,o),
(374,384,c),
(379,343,l),
(436,375,o),
(489,408,o),
(510,512,cs),
(536,643,o),
(455,712,o),
(326,712,cs),
(248,712,o),
(177,695,o),
(133,673,c),
(135,569,l),
(177,582,o),
(231,589,o),
(280,589,cs),
(332,589,o),
(364,558,o),
(355,512,cs),
(343,451,o),
(299,415,o),
(259,415,cs),
(201,415,l),
(180,303,l),
(251,303,ls),
(292,303,o),
(319,274,o),
(307,213,cs),
(294,149,o),
(242,110,o),
(180,110,cs),
(131,110,o),
(89,116,o),
(47,130,c),
(16,28,l),
(59,6,o),
(125,-12,o),
(193,-12,cs)
);
}
);
};
layerId = "A1EBBC90-F302-476F-8EDD-2A5F06C6278F";
shapes = (
{
closed = 1;
nodes = (
(325,-12,o),
(422,56,o),
(450,200,cs),
(471,309,o),
(434,347,o),
(364,384,c),
(369,343,l),
(426,375,o),
(479,408,o),
(500,512,cs),
(526,643,o),
(445,712,o),
(316,712,cs),
(238,712,o),
(167,695,o),
(123,673,c),
(125,569,l),
(167,582,o),
(221,589,o),
(270,589,cs),
(322,589,o),
(354,558,o),
(345,512,cs),
(333,451,o),
(289,415,o),
(249,415,cs),
(191,415,l),
(170,303,l),
(241,303,ls),
(282,303,o),
(309,274,o),
(297,213,cs),
(284,149,o),
(232,110,o),
(170,110,cs),
(121,110,o),
(79,116,o),
(37,130,c),
(6,28,l),
(49,6,o),
(115,-12,o),
(183,-12,cs)
);
}
);
width = 520;
}
);
unicode = 51;
userData = {
"21 03 2011 [FL]:
Wt1
01. correzione spessore H  com.typemytype.robofont.guides" = (
{
angle = 0;
isGlobal = 0;
magnetic = 5;
x = 0;
y = 660;
}
);
};
},
{
glyphname = four;
lastChange = "2022-04-14 18:48:42 +0000";
layers = (
{
background = {
shapes = (
{
closed = 1;
nodes = (
(344,0,l),
(373,151,l),
(462,151,l),
(469,186,l),
(380,186,l),
(426,419,l),
(390,419,l),
(344,186,l),
(68,186,l),
(354,700,l),
(314,700,l),
(25,182,l),
(19,151,l),
(337,151,l),
(308,0,l)
);
}
);
};
layerId = "0474999B-FB68-4D9A-82B1-2286F2372C1D";
shapes = (
{
closed = 1;
nodes = (
(351,0,l),
(380,151,l),
(469,151,l),
(476,185,l),
(387,185,l),
(433,419,l),
(397,419,l),
(351,185,l),
(74,185,l),
(361,700,l),
(321,700,l),
(32,182,l),
(26,151,l),
(344,151,l),
(315,0,l)
);
}
);
width = 520;
},
{
background = {
shapes = (
{
closed = 1;
nodes = (
(411,0,l),
(435,123,l),
(479,123,l),
(502,242,l),
(458,242,l),
(492,420,l),
(347,417,l),
(303,242,l),
(193,242,l),
(424,700,l),
(244,700,l),
(33,229,l),
(14,123,l),
(279,123,l),
(256,0,l)
);
}
);
};
layerId = "A1EBBC90-F302-476F-8EDD-2A5F06C6278F";
shapes = (
{
closed = 1;
nodes = (
(405,0,l),
(429,123,l),
(473,123,l),
(496,242,l),
(452,242,l),
(486,420,l),
(341,417,l),
(297,242,l),
(187,242,l),
(418,700,l),
(238,700,l),
(27,229,l),
(8,123,l),
(273,123,l),
(250,0,l)
);
}
);
width = 520;
}
);
unicode = 52;
userData = {
"23 05 2011 [FL]
Wt1
1. spostamento V stems 138
2. spostamento H stems 120  com.typemytype.robofont.guides" = (
{
angle = 0;
isGlobal = 0;
magnetic = 5;
x = 0;
y = 660;
}
);
};
},
{
glyphname = five;
lastChange = "2022-04-14 18:48:42 +0000";
layers = (
{
background = {
shapes = (
{
closed = 1;
nodes = (
(335,-7,o),
(428,79,o),
(457,228,cs),
(486,374,o),
(423,437,o),
(303,437,cs),
(245,437,o),
(169,407,o),
(131,383,c),
(203,664,l),
(514,664,l),
(521,700,l),
(178,700,l),
(91,348,l),
(125,343,l),
(166,370,o),
(242,404,o),
(301,404,cs),
(391,404,o),
(445,356,o),
(420,231,cs),
(396,109,o),
(311,26,o),
(214,26,cs),
(153,26,o),
(89,43,o),
(47,62,c),
(33,28,l),
(74,9,o),
(149,-7,o),
(213,-7,cs)
);
}
);
};
layerId = "0474999B-FB68-4D9A-82B1-2286F2372C1D";
shapes = (
{
closed = 1;
nodes = (
(334,-7,o),
(427,79,o),
(456,228,cs),
(485,374,o),
(422,437,o),
(302,437,cs),
(244,437,o),
(169,407,o),
(131,383,c),
(205,666,l),
(514,666,l),
(520,700,l),
(177,700,l),
(90,348,l),
(124,343,l),
(165,370,o),
(241,403,o),
(300,403,cs),
(398,403,o),
(447,361,o),
(421,231,cs),
(395,99,o),
(310,27,o),
(213,27,cs),
(152,27,o),
(88,41,o),
(46,60,c),
(32,28,l),
(73,9,o),
(148,-7,o),
(212,-7,cs)
);
}
);
width = 520;
},
{
background = {
shapes = (
{
closed = 1;
nodes = (
(351,-12,o),
(447,66,o),
(477,221,cs),
(505,368,o),
(442,441,o),
(309,441,cs),
(266,441,o),
(231,427,o),
(203,414,c),
(250,578,l),
(522,578,l),
(546,700,l),
(153,700,l),
(60,302,l),
(163,286,l),
(188,302,o),
(235,317,o),
(265,317,cs),
(320,317,o),
(339,282,o),
(329,232,cs),
(314,158,o),
(277,104,o),
(209,104,cs),
(165,104,o),
(104,119,o),
(55,142,c),
(16,46,l),
(74,10,o),
(152,-12,o),
(221,-12,cs)
);
}
);
};
layerId = "A1EBBC90-F302-476F-8EDD-2A5F06C6278F";
shapes = (
{
closed = 1;
nodes = (
(348,-12,o),
(444,66,o),
(474,221,cs),
(502,368,o),
(439,441,o),
(306,441,cs),
(263,441,o),
(228,427,o),
(200,414,c),
(247,578,l),
(519,578,l),
(543,700,l),
(150,700,l),
(57,302,l),
(160,286,l),
(185,302,o),
(232,317,o),
(262,317,cs),
(317,317,o),
(336,282,o),
(326,232,cs),
(311,158,o),
(274,104,o),
(206,104,cs),
(162,104,o),
(101,119,o),
(52,142,c),
(13,46,l),
(71,10,o),
(149,-12,o),
(218,-12,cs)
);
}
);
width = 520;
}
);
unicode = 53;
userData = {
"21 03 2011 [FL]:
Wt1
01. correzione spessore H

23 05 2011 [FL]
Wt1
1. spostamento H stems 120  com.typemytype.robofont.guides" = (
{
angle = 0;
isGlobal = 0;
magnetic = 5;
x = 0;
y = 660;
}
);
};
},
{
glyphname = six;
lastChange = "2022-04-14 18:48:42 +0000";
layers = (
{
background = {
shapes = (
{
closed = 1;
nodes = (
(340,-10,o),
(439,87,o),
(464,217,cs),
(490,349,o),
(436,430,o),
(302,430,cs),
(233,430,o),
(145,402,o),
(100,356,c),
(103,314,l),
(150,362,o),
(225,397,o),
(300,397,cs),
(401,397,o),
(448,331,o),
(427,223,cs),
(404,104,o),
(318,23,o),
(217,23,cs),
(100,23,o),
(78,160,o),
(100,277,cs),
(155,567,o),
(260,676,o),
(380,676,cs),
(413,676,o),
(460,667,o),
(500,648,c),
(517,679,l),
(471,699,o),
(421,710,o),
(381,710,cs),
(244,710,o),
(123,593,o),
(62,281,cs),
(32,127,o),
(77,-10,o),
(216,-10,cs)
);
}
);
};
layerId = "0474999B-FB68-4D9A-82B1-2286F2372C1D";
shapes = (
{
closed = 1;
nodes = (
(343,-10,o),
(442,87,o),
(467,217,cs),
(493,349,o),
(439,430,o),
(305,430,cs),
(236,430,o),
(148,402,o),
(103,356,c),
(106,314,l),
(153,362,o),
(228,396,o),
(303,396,cs),
(404,396,o),
(457,348,o),
(433,223,cs),
(410,104,o),
(321,24,o),
(220,24,cs),
(103,24,o),
(75,148,o),
(100,277,cs),
(154,561,o),
(265,676,o),
(383,676,cs),
(416,676,o),
(463,667,o),
(503,648,c),
(520,679,l),
(474,699,o),
(424,710,o),
(384,710,cs),
(247,710,o),
(126,593,o),
(65,281,cs),
(35,127,o),
(80,-10,o),
(219,-10,cs)
);
}
);
width = 520;
},
{
background = {
shapes = (
{
closed = 1;
nodes = (
(346,-12,o),
(456,70,o),
(483,211,cs),
(512,364,o),
(432,445,o),
(312,445,cs),
(229,445,o),
(193,416,o),
(167,394,c),
(143,276,l),
(166,297,o),
(217,335,o),
(279,335,cs),
(327,335,o),
(356,297,o),
(343,232,cs),
(330,166,o),
(289,98,o),
(228,98,cs),
(150,98,o),
(165,211,o),
(196,359,cs),
(224,490,o),
(281,595,o),
(372,595,cs),
(419,595,o),
(467,582,o),
(497,565,c),
(541,662,l,{
name = hr00;
}),
(498,689,o),
(424,713,o),
(362,713,cs),
(221,713,o),
(104,628,o),
(52,361,cs),
(-1,93,o),
(67,-12,o),
(225,-12,cs)
);
}
);
};
layerId = "A1EBBC90-F302-476F-8EDD-2A5F06C6278F";
shapes = (
{
closed = 1;
nodes = (
(350,-12,o),
(460,70,o),
(487,211,cs),
(516,364,o),
(436,445,o),
(316,445,cs),
(233,445,o),
(197,416,o),
(171,394,c),
(147,276,l),
(170,297,o),
(221,335,o),
(283,335,cs),
(331,335,o),
(360,297,o),
(347,232,cs),
(334,166,o),
(293,98,o),
(232,98,cs),
(154,98,o),
(169,211,o),
(200,359,cs),
(228,490,o),
(285,595,o),
(376,595,cs),
(423,595,o),
(471,582,o),
(501,565,c),
(545,662,l,{
name = hr00;
}),
(502,689,o),
(428,713,o),
(366,713,cs),
(225,713,o),
(108,628,o),
(56,361,cs),
(3,93,o),
(71,-12,o),
(229,-12,cs)
);
}
);
width = 520;
}
);
unicode = 54;
},
{
glyphname = seven;
lastChange = "2022-04-14 18:48:42 +0000";
layers = (
{
background = {
shapes = (
{
closed = 1;
nodes = (
(524,633,l),
(537,700,l),
(166,700,l),
(159,666,l),
(492,666,l),
(488,642,l),
(118,0,l),
(159,0,l)
);
}
);
};
layerId = "0474999B-FB68-4D9A-82B1-2286F2372C1D";
shapes = (
{
closed = 1;
nodes = (
(506,633,l),
(519,700,l),
(148,700,l),
(141,666,l),
(475,666,l),
(471,642,l),
(101,0,l),
(141,0,l)
);
}
);
width = 520;
},
{
background = {
shapes = (
{
closed = 1;
nodes = (
(517,534,l),
(548,700,l),
(146,700,l),
(119,566,l),
(366,566,l),
(364,551,l),
(58,0,l),
(226,0,l)
);
}
);
};
layerId = "A1EBBC90-F302-476F-8EDD-2A5F06C6278F";
shapes = (
{
closed = 1;
nodes = (
(509,534,l),
(540,700,l),
(138,700,l),
(111,566,l),
(358,566,l),
(356,551,l),
(50,0,l),
(218,0,l)
);
}
);
width = 520;
}
);
unicode = 55;
},
{
glyphname = eight;
lastChange = "2022-04-14 18:48:42 +0000";
layers = (
{
background = {
shapes = (
{
closed = 1;
nodes = (
(326,-10,o),
(435,41,o),
(464,188,cs),
(485,293,o),
(432,353,o),
(367,371,c),
(364,364,l),
(448,387,o),
(505,448,o),
(522,535,cs),
(544,649,o),
(465,710,o),
(345,710,cs),
(225,710,o),
(131,649,o),
(110,540,cs),
(92,445,o),
(126,393,o),
(189,366,c),
(189,374,l),
(110,342,o),
(52,293,o),
(30,181,cs),
(6,59,o),
(82,-10,o),
(210,-10,cs)
);
},
{
closed = 1;
nodes = (
(114,24,o),
(44,67,o),
(65,176,cs),
(84,276,o),
(170,352,o),
(261,352,c),
(287,352,l),
(388,352,o),
(448,293,o),
(429,194,cs),
(406,74,o),
(318,24,o),
(212,24,cs)
);
},
{
closed = 1;
nodes = (
(265,384,l),
(170,384,o),
(129,448,o),
(145,536,cs),
(163,630,o),
(251,676,o),
(343,676,cs),
(449,676,o),
(506,631,o),
(487,539,cs),
(467,440,o),
(381,383,o),
(291,383,c)
);
}
);
};
layerId = "0474999B-FB68-4D9A-82B1-2286F2372C1D";
shapes = (
{
closed = 1;
nodes = (
(330,-10,o),
(436,43,o),
(463,184,cs),
(483,283,o),
(432,353,o),
(367,371,c),
(364,364,l),
(448,387,o),
(505,448,o),
(522,535,cs),
(544,649,o),
(465,710,o),
(345,710,cs),
(225,710,o),
(131,649,o),
(110,540,cs),
(92,445,o),
(126,393,o),
(189,366,c),
(197,374,l),
(113,342,o),
(51,287,o),
(34,199,cs),
(6,59,o),
(82,-10,o),
(210,-10,cs)
);
},
{
closed = 1;
nodes = (
(114,24,o),
(45,67,o),
(69,194,cs),
(85,276,o),
(165,352,o),
(261,352,cs),
(287,352,ls),
(388,352,o),
(446,283,o),
(428,190,cs),
(406,74,o),
(322,24,o),
(212,24,cs)
);
},
{
closed = 1;
nodes = (
(265,384,ls),
(170,388,o),
(129,448,o),
(145,536,cs),
(163,630,o),
(251,676,o),
(343,676,cs),
(449,676,o),
(506,631,o),
(487,539,cs),
(467,440,o),
(381,380,o),
(291,383,cs)
);
}
);
width = 520;
},
{
background = {
shapes = (
{
closed = 1;
nodes = (
(328,-12,o),
(453,36,o),
(480,175,cs),
(503,291,o),
(471,339,o),
(382,378,c),
(369,329,l),
(486,382,o),
(516,421,o),
(538,517,cs),
(563,625,o),
(492,712,o),
(338,712,cs),
(198,712,o),
(112,637,o),
(89,539,cs),
(66,442,o),
(100,382,o),
(170,345,c),
(182,397,l),
(77,336,o),
(33,304,o),
(12,196,cs),
(-17,49,o),
(92,-12,o),
(217,-12,cs)
);
},
{
closed = 1;
nodes = (
(179,107,o),
(157,143,o),
(166,193,cs),
(177,251,o),
(218,302,o),
(264,306,cs),
(277,307,ls),
(312,310,o),
(346,274,o),
(335,218,cs),
(321,145,o),
(264,107,o),
(221,107,cs)
);
},
{
closed = 1;
nodes = (
(293,410,ls),
(251,406,o),
(226,439,o),
(234,496,cs),
(241,551,o),
(280,593,o),
(334,593,cs),
(377,593,o),
(398,553,o),
(385,505,cs),
(372,456,o),
(344,415,o),
(303,411,cs)
);
}
);
};
layerId = "A1EBBC90-F302-476F-8EDD-2A5F06C6278F";
shapes = (
{
closed = 1;
nodes = (
(361,-12,o),
(459,64,o),
(483,191,cs),
(500,279,o),
(474,338,o),
(382,378,c),
(369,329,l),
(486,382,o),
(521,421,o),
(536,507,cs),
(559,635,o),
(480,712,o),
(338,712,cs),
(207,712,o),
(114,644,o),
(87,530,cs),
(68,447,o),
(96,384,o),
(170,345,c),
(182,386,l),
(66,330,o),
(30,291,o),
(13,206,cs),
(-13,70,o),
(68,-12,o),
(217,-12,cs)
);
},
{
closed = 1;
nodes = (
(179,107,o),
(157,143,o),
(167,197,cs),
(177,257,o),
(211,306,o),
(262,306,cs),
(280,306,ls),
(326,306,o),
(344,264,o),
(333,208,cs),
(320,141,o),
(278,107,o),
(231,107,cs)
);
},
{
closed = 1;
nodes = (
(284,410,ls),
(248,410,o),
(227,443,o),
(234,496,cs),
(241,553,o),
(278,593,o),
(329,593,cs),
(376,593,o),
(396,554,o),
(387,502,cs),
(378,445,o),
(346,410,o),
(299,410,cs)
);
}
);
width = 520;
}
);
unicode = 56;
userData = {
"21 03 2011 [FL]:
Wt1
01. correzione spessore H  com.typemytype.robofont.guides" = (
{
angle = 0;
isGlobal = 0;
magnetic = 5;
x = 0;
y = 660;
},
{
angle = 90;
isGlobal = 0;
magnetic = 5;
x = 273;
y = 0;
}
);
};
},
{
glyphname = nine;
lastChange = "2022-04-14 18:48:42 +0000";
layers = (
{
background = {
shapes = (
{
closed = 1;
nodes = (
(182,0,l),
(313,117,o),
(474,275,o),
(511,464,cs),
(542,625,o),
(472,710,o),
(348,710,cs),
(226,710,o),
(127,624,o),
(103,499,cs),
(78,368,o),
(155,299,o),
(263,299,cs),
(364,299,o),
(417,339,o),
(465,377,c),
(465,417,l),
(417,377,o),
(357,333,o),
(272,333,cs),
(189,333,o),
(118,379,o),
(141,499,cs),
(160,600,o),
(250,676,o),
(341,676,cs),
(440,676,o),
(500,623,o),
(473,464,cs),
(443,289,o),
(274,127,o),
(128,0,c)
);
}
);
};
layerId = "0474999B-FB68-4D9A-82B1-2286F2372C1D";
shapes = (
{
closed = 1;
nodes = (
(171,0,l),
(306,117,o),
(463,275,o),
(497,450,cs),
(528,606,o),
(454,710,o),
(330,710,cs),
(208,710,o),
(116,624,o),
(92,499,cs),
(67,368,o),
(146,279,o),
(255,279,cs),
(355,279,o),
(402,304,o),
(450,342,c),
(454,383,l),
(406,343,o),
(345,313,o),
(260,313,cs),
(177,313,o),
(106,375,o),
(129,499,cs),
(148,600,o),
(231,676,o),
(323,676,cs),
(426,676,o),
(489,604,o),
(460,450,cs),
(430,289,o),
(268,127,o),
(118,0,c)
);
}
);
width = 520;
},
{
background = {
shapes = (
{
closed = 1;
nodes = (
(247,0,l),
(403,161,o),
(494,270,o),
(530,458,cs),
(562,626,o),
(483,712,o),
(348,712,cs),
(222,712,o),
(101,634,o),
(72,483,cs),
(45,344,o),
(117,272,o),
(239,272,cs),
(295,272,o),
(350,290,o),
(398,334,c),
(401,431,l),
(376,410,o),
(324,388,o),
(285,388,cs),
(223,388,o),
(203,430,o),
(214,483,cs),
(225,542,o),
(263,596,o),
(325,596,cs),
(393,596,o),
(402,532,o),
(389,465,cs),
(359,312,o),
(262,176,o),
(71,0,c)
);
}
);
};
layerId = "A1EBBC90-F302-476F-8EDD-2A5F06C6278F";
shapes = (
{
closed = 1;
nodes = (
(246,0,l),
(410,161,o),
(484,270,o),
(514,426,cs),
(546,597,o),
(472,712,o),
(324,712,cs),
(191,712,o),
(96,629,o),
(71,496,cs),
(43,348,o),
(129,252,o),
(241,252,cs),
(287,252,o),
(345,270,o),
(403,314,c),
(396,411,l),
(371,390,o),
(323,368,o),
(284,368,cs),
(219,368,o),
(198,425,o),
(211,492,cs),
(220,537,o),
(253,596,o),
(311,596,cs),
(383,596,o),
(388,513,o),
(377,455,cs),
(345,293,o),
(254,176,o),
(55,0,c)
);
}
);
width = 520;
},
{
associatedMasterId = "0474999B-FB68-4D9A-82B1-2286F2372C1D";
background = {
shapes = (
{
closed = 1;
nodes = (
(297,134,o),
(464,268,o),
(504,474,cs),
(527,594,o),
(461,697,o),
(340,709,cs),
(220,720,o),
(123,632,o),
(101,518,cs),
(76,388,o),
(154,310,o),
(256,300,cs),
(323,294,o),
(399,321,o),
(444,355,c),
(452,395,l),
(405,359,o),
(336,327,o),
(265,334,cs),
(184,342,o),
(118,405,o),
(139,514,cs),
(157,608,o),
(235,684,o),
(333,675,cs),
(430,665,o),
(486,576,o),
(467,477,cs),
(430,285,o),
(257,142,o),
(105,12,c),
(158,6,l)
);
}
);
};
layerId = "CDB8468A-9D87-403E-9C26-255C0D3CCA0C";
name = "14 Feb 22, 16:31";
shapes = (
{
closed = 1;
nodes = (
(317,117,o),
(474,275,o),
(508,450,cs),
(539,606,o),
(465,710,o),
(341,710,cs),
(219,710,o),
(127,634,o),
(103,509,cs),
(78,378,o),
(157,299,o),
(266,299,cs),
(366,299,o),
(417,339,o),
(465,377,c),
(465,417,l),
(417,377,o),
(357,333,o),
(272,333,cs),
(189,333,o),
(118,389,o),
(141,509,cs),
(160,610,o),
(238,676,o),
(334,676,cs),
(433,676,o),
(499,604,o),
(470,450,cs),
(440,289,o),
(278,127,o),
(128,0,c),
(182,0,l)
);
}
);
width = 520;
},
{
associatedMasterId = "A1EBBC90-F302-476F-8EDD-2A5F06C6278F";
background = {
shapes = (
{
closed = 1;
nodes = (
(377,148,o),
(487,270,o),
(522,454,cs),
(553,613,o),
(474,698,o),
(343,710,cs),
(221,722,o),
(104,657,o),
(75,505,cs),
(48,366,o),
(118,285,o),
(236,274,cs),
(291,268,o),
(345,282,o),
(392,322,c),
(395,420,l),
(371,401,o),
(320,385,o),
(281,389,cs),
(223,394,o),
(206,443,o),
(215,489,cs),
(226,543,o),
(262,599,o),
(321,593,cs),
(386,587,o),
(391,527,o),
(381,472,cs),
(354,334,o),
(238,178,o),
(61,16,c),
(227,0,l)
);
}
);
};
layerId = "F1E29731-BFFE-4331-BBDA-9DB6F8BF0C16";
name = "14 Feb 22, 16:33";
shapes = (
{
closed = 1;
nodes = (
(392,161,o),
(483,270,o),
(519,458,cs),
(547,607,o),
(480,712,o),
(332,712,cs),
(199,712,o),
(101,638,o),
(74,497,cs),
(45,348,o),
(140,272,o),
(252,272,cs),
(298,272,o),
(350,290,o),
(408,334,c),
(401,431,l),
(376,410,o),
(324,388,o),
(285,388,cs),
(223,388,o),
(203,434,o),
(215,497,cs),
(225,546,o),
(260,596,o),
(319,596,cs),
(390,596,o),
(387,513,o),
(378,465,cs),
(348,312,o),
(251,176,o),
(60,0,c),
(236,0,l)
);
}
);
width = 520;
}
);
unicode = 57;
},
{
color = 11;
glyphname = zero.slash;
lastChange = "2022-04-14 18:48:42 +0000";
layers = (
{
background = {
shapes = (
{
closed = 1;
nodes = (
(117,-65,l),
(164,21,l),
(132,21,l),
(85,-65,l)
);
},
{
closed = 1;
nodes = (
(423,645,l),
(470,731,l),
(436,731,l),
(389,645,l)
);
},
{
ref = zero;
},
{
pos = (242,283);
ref = period;
}
);
};
layerId = "0474999B-FB68-4D9A-82B1-2286F2372C1D";
shapes = (
{
closed = 1;
nodes = (
(119,-61,l),
(166,25,l),
(134,25,l),
(87,-61,l)
);
},
{
closed = 1;
nodes = (
(439,674,l),
(486,760,l),
(452,760,l),
(405,674,l)
);
},
{
alignment = -1;
ref = zero;
},
{
alignment = -1;
pos = (229,303);
ref = period;
}
);
width = 520;
},
{
background = {
shapes = (
{
closed = 1;
nodes = (
(131,-65,l),
(179,41,l),
(123,41,l),
(76,-65,l)
);
},
{
closed = 1;
nodes = (
(427,625,l),
(474,731,l),
(419,731,l),
(372,625,l)
);
},
{
ref = zero;
},
{
pos = (252,295);
ref = period;
scale = (0.4635,0.5055);
}
);
};
layerId = "A1EBBC90-F302-476F-8EDD-2A5F06C6278F";
shapes = (
{
closed = 1;
nodes = (
(135,-59,l),
(183,47,l),
(127,47,l),
(80,-59,l)
);
},
{
closed = 1;
nodes = (
(435,644,l),
(482,750,l),
(427,750,l),
(380,644,l)
);
},
{
alignment = -1;
ref = zero;
},
{
alignment = -1;
pos = (228,295);
ref = period;
scale = (0.4635,0.5055);
}
);
width = 520;
}
);
},
{
glyphname = zero.lf;
lastChange = "2022-04-14 18:48:42 +0000";
layers = (
{
background = {
shapes = (
{
closed = 1;
nodes = (
(347,-9,o),
(449,92,o),
(496,330,cs),
(552,616,o),
(488,711,o),
(355,711,cs),
(229,711,o),
(126,614,o),
(72,338,cs),
(22,81,o),
(98,-9,o),
(221,-9,cs)
);
},
{
closed = 1;
nodes = (
(123,25,o),
(63,99,o),
(108,330,cs),
(157,583,o),
(241,676,o),
(353,676,cs),
(454,676,o),
(511,599,o),
(460,338,cs),
(415,111,o),
(328,25,o),
(222,25,cs)
);
}
);
};
layerId = "0474999B-FB68-4D9A-82B1-2286F2372C1D";
shapes = (
{
closed = 1;
nodes = (
(335,-10,o),
(438,77,o),
(485,318,cs),
(536,583,o),
(471,670,o),
(341,670,cs),
(212,670,o),
(112,582,o),
(61,318,cs),
(14,76,o),
(83,-10,o),
(209,-10,cs)
);
},
{
closed = 1;
nodes = (
(107,24,o),
(53,96,o),
(96,317,cs),
(142,555,o),
(234,636,o),
(335,636,cs),
(452,636,o),
(495,553,o),
(449,318,cs),
(406,97,o),
(310,24,o),
(216,24,cs)
);
}
);
userData = {
RMXScaler = {
height = 90;
weight = 1;
};
};
width = 519;
},
{
background = {
shapes = (
{
closed = 1;
nodes = (
(369,-13,o),
(470,89,o),
(517,332,cs),
(568,593,o),
(509,714,o),
(347,714,cs),
(197,714,o),
(103,602,o),
(54,354,cs),
(5,103,o),
(70,-13,o),
(226,-13,cs)
);
},
{
closed = 1;
nodes = (
(195,108,o),
(176,169,o),
(207,334,cs),
(241,514,o),
(293,593,o),
(342,593,cs),
(382,593,o),
(397,526,o),
(365,356,cs),
(332,181,o),
(278,108,o),
(233,108,cs)
);
}
);
};
layerId = "A1EBBC90-F302-476F-8EDD-2A5F06C6278F";
shapes = (
{
closed = 1;
nodes = (
(369,-12,o),
(465,93,o),
(510,325,cs),
(556,564,o),
(504,672,o),
(340,672,cs),
(179,672,o),
(82,564,o),
(36,325,cs),
(-9,93,o),
(45,-12,o),
(208,-12,cs)
);
},
{
closed = 1;
nodes = (
(177,110,o),
(163,165,o),
(194,325,cs),
(226,492,o),
(261,550,o),
(318,550,cs),
(374,550,o),
(384,491,o),
(352,325,cs),
(321,165,o),
(286,110,o),
(232,110,cs)
);
}
);
userData = {
RMXScaler = {
height = 90;
};
};
width = 520;
}
);
userData = {
"21 03 2011 [FL]:
Wt1
01. correzione spessore H

23 05 2011 [OA]:
Wt0
01. correzione overshooting superiore 669
02. spessori curveH 32
03. correzione larghezza 550
Wt1
01. spessori curveH 120
02. spessori curveV 142  com.typemytype.robofont.guides" = (
{
angle = 0;
isGlobal = 0;
magnetic = 5;
x = 0;
y = 660;
}
);
RMXScaler = {
source = zero;
};
};
},
{
glyphname = one.lf;
lastChange = "2022-04-14 18:48:42 +0000";
layers = (
{
background = {
shapes = (
{
closed = 1;
nodes = (
(304,0,l),
(440,700,l),
(404,700,l),
(188,556,l),
(200,527,l),
(397,661,l),
(268,0,l)
);
}
);
};
layerId = "0474999B-FB68-4D9A-82B1-2286F2372C1D";
shapes = (
{
closed = 1;
nodes = (
(282,0,l),
(410,660,l),
(374,660,l),
(186,540,l),
(198,512,l),
(367,621,l),
(246,0,l)
);
}
);
userData = {
RMXScaler = {
height = 90;
weight = 1;
};
};
width = 520;
},
{
background = {
shapes = (
{
closed = 1;
nodes = (
(366,0,l),
(503,700,l),
(367,700,l),
(134,555,l),
(162,441,l),
(316,532,l),
(212,0,l)
);
}
);
};
layerId = "A1EBBC90-F302-476F-8EDD-2A5F06C6278F";
shapes = (
{
closed = 1;
nodes = (
(347,0,l),
(477,672,l),
(352,672,l),
(130,551,l),
(158,443,l),
(290,512,l),
(191,0,l)
);
}
);
userData = {
RMXScaler = {
height = 90;
};
};
width = 520;
}
);
userData = {
"21 03 2011 [FL]:
Wt1
01. correzione spessore H  com.typemytype.robofont.guides" = (
{
angle = 0;
isGlobal = 0;
magnetic = 5;
x = 0;
y = 660;
}
);
RMXScaler = {
source = one;
};
};
},
{
glyphname = two.lf;
lastChange = "2022-04-14 18:48:42 +0000";
layers = (
{
background = {
shapes = (
{
closed = 1;
nodes = (
(413,0,l),
(419,32,l),
(82,32,l),
(328,276,ls),
(406,351,o),
(477,423,o),
(497,530,cs),
(522,660,o),
(465,710,o),
(340,710,cs),
(281,710,o),
(204,694,o),
(166,682,c),
(166,648,l),
(228,664,o),
(293,675,o),
(337,675,cs),
(432,675,o),
(481,640,o),
(461,537,cs),
(442,437,o),
(374,375,o),
(290,291,cs),
(33,31,l),
(28,0,l)
);
}
);
};
layerId = "0474999B-FB68-4D9A-82B1-2286F2372C1D";
shapes = (
{
closed = 1;
nodes = (
(392,0,l),
(399,34,l),
(49,34,l),
(55,20,l),
(300,255,ls),
(394,346,o),
(454,417,o),
(470,500,cs),
(493,617,o),
(432,670,o),
(317,670,cs),
(256,670,o),
(186,653,o),
(139,632,c),
(144,597,l),
(195,618,o),
(259,636,o),
(308,636,cs),
(416,636,o),
(452,595,o),
(434,499,cs),
(422,435,o),
(363,365,o),
(268,273,cs),
(16,31,l),
(10,0,l)
);
}
);
userData = {
RMXScaler = {
height = 90;
weight = 1;
};
};
width = 520;
},
{
background = {
shapes = (
{
closed = 1;
nodes = (
(426,0,l),
(450,126,l),
(218,126,l),
(350,242,ls),
(459,337,o),
(498,395,o),
(519,502,cs),
(547,644,o),
(479,714,o),
(339,714,cs),
(277,714,o),
(191,697,o),
(149,682,c),
(142,559,l),
(209,573,o),
(256,579,o),
(291,579,cs),
(355,579,o),
(374,564,o),
(362,499,cs),
(349,426,o),
(277,373,o),
(188,281,cs),
(39,121,l),
(17,0,l)
);
}
);
};
layerId = "A1EBBC90-F302-476F-8EDD-2A5F06C6278F";
shapes = (
{
closed = 1;
nodes = (
(415,0,l),
(438,122,l),
(137,122,l),
(162,61,l),
(331,233,ls),
(428,332,o),
(484,381,o),
(504,483,cs),
(527,606,o),
(458,672,o),
(323,672,cs),
(253,672,o),
(170,651,o),
(126,633,c),
(127,524,l),
(163,536,o),
(219,549,o),
(267,549,cs),
(333,549,o),
(355,527,o),
(343,467,cs),
(331,405,o),
(283,354,o),
(182,261,cs),
(24,115,l),
(2,0,l)
);
}
);
userData = {
RMXScaler = {
height = 90;
};
};
width = 520;
}
);
userData = {
"21 03 2011 [FL]:
Wt1
01. correzione spessore H

23 05 2011 [OA]:
Wt0
01.  spessori curveH 32

Wt1
01. spessori curveH 120
03. spessore astaH 120  com.typemytype.robofont.guides" = (
{
angle = 0;
isGlobal = 0;
magnetic = 5;
x = 0;
y = 660;
}
);
RMXScaler = {
source = two;
};
};
},
{
glyphname = three.lf;
lastChange = "2022-04-14 18:48:42 +0000";
layers = (
{
background = {
shapes = (
{
closed = 1;
nodes = (
(355,-9,o),
(428,57,o),
(454,190,cs),
(477,310,o),
(439,352,o),
(369,375,c),
(372,374,o),
(478,403,o),
(503,533,cs),
(527,654,o),
(486,711,o),
(352,711,cs),
(287,711,o),
(209,697,o),
(170,687,c),
(171,653,l),
(221,666,o),
(295,676,o),
(351,676,cs),
(457,676,o),
(486,639,o),
(467,541,cs),
(446,433,o),
(353,388,o),
(305,388,cs),
(183,388,l),
(176,353,l),
(302,353,l),
(381,348,o),
(440,318,o),
(416,192,cs),
(395,85,o),
(337,25,o),
(227,25,cs),
(155,25,o),
(78,39,o),
(39,49,c),
(29,15,l),
(70,4,o),
(154,-9,o),
(226,-9,cs)
);
}
);
};
layerId = "0474999B-FB68-4D9A-82B1-2286F2372C1D";
shapes = (
{
closed = 1;
nodes = (
(321,-10,o),
(400,56,o),
(424,182,cs),
(448,302,o),
(389,338,o),
(325,355,c),
(329,351,l),
(358,361,o),
(449,396,o),
(471,508,cs),
(491,613,o),
(447,670,o),
(320,670,cs),
(259,670,o),
(181,654,o),
(141,640,c),
(145,606,l),
(184,620,o),
(256,636,o),
(315,636,cs),
(416,636,o),
(452,595,o),
(435,509,cs),
(416,412,o),
(324,366,o),
(262,366,cs),
(174,366,l),
(168,332,l),
(256,332,ls),
(353,332,o),
(410,292,o),
(388,179,cs),
(368,77,o),
(309,24,o),
(203,24,cs),
(138,24,o),
(62,38,o),
(24,52,c),
(9,18,l),
(49,5,o),
(128,-10,o),
(197,-10,cs)
);
}
);
userData = {
RMXScaler = {
height = 90;
weight = 1;
};
};
width = 519;
},
{
background = {
shapes = (
{
closed = 1;
nodes = (
(365,-13,o),
(440,46,o),
(470,200,cs),
(488,295,o),
(467,332,o),
(422,362,c),
(465,388,o),
(502,421,o),
(520,512,cs),
(548,653,o),
(485,714,o),
(316,714,cs),
(268,714,o),
(187,697,o),
(143,685,c),
(135,563,l),
(177,572,o),
(251,580,o),
(300,580,cs),
(352,580,o),
(374,560,o),
(365,512,cs),
(354,451,o),
(309,421,o),
(269,421,cs),
(151,421,l),
(127,297,l),
(258,297,ls),
(309,297,o),
(329,274,o),
(317,213,cs),
(304,149,o),
(262,121,o),
(200,121,cs),
(151,121,o),
(78,130,o),
(36,136,c),
(16,17,l),
(59,5,o),
(145,-13,o),
(213,-13,cs)
);
}
);
};
layerId = "A1EBBC90-F302-476F-8EDD-2A5F06C6278F";
shapes = (
{
closed = 1;
nodes = (
(329,-12,o),
(426,58,o),
(453,197,cs),
(472,298,o),
(424,342,o),
(347,362,c),
(351,328,l),
(421,355,o),
(480,395,o),
(499,490,cs),
(523,612,o),
(453,672,o),
(299,672,cs),
(245,672,o),
(169,656,o),
(124,640,c),
(118,531,l),
(162,543,o),
(218,551,o),
(262,551,cs),
(321,551,o),
(349,524,o),
(339,475,cs),
(329,424,o),
(290,395,o),
(237,395,cs),
(167,395,l),
(145,281,l),
(217,281,ls),
(280,281,o),
(308,252,o),
(297,197,cs),
(286,142,o),
(249,111,o),
(188,111,cs),
(138,111,o),
(78,122,o),
(36,134,c),
(-5,22,l),
(40,5,o),
(114,-12,o),
(187,-12,cs)
);
}
);
userData = {
RMXScaler = {
height = 90;
};
};
width = 519;
}
);
userData = {
"21 03 2011 [FL]:
Wt1
01. correzione spessore H  com.typemytype.robofont.guides" = (
{
angle = 0;
isGlobal = 0;
magnetic = 5;
x = 0;
y = 660;
}
);
RMXScaler = {
source = three;
};
};
},
{
glyphname = four.lf;
lastChange = "2022-04-14 18:48:42 +0000";
layers = (
{
background = {
shapes = (
{
closed = 1;
nodes = (
(354,0,l),
(383,151,l),
(472,151,l),
(479,186,l),
(390,186,l),
(436,419,l),
(400,419,l),
(354,186,l),
(78,186,l),
(364,700,l),
(324,700,l),
(35,182,l),
(29,151,l),
(347,151,l),
(318,0,l)
);
}
);
};
layerId = "0474999B-FB68-4D9A-82B1-2286F2372C1D";
shapes = (
{
closed = 1;
nodes = (
(351,0,l),
(379,142,l),
(467,142,l),
(473,176,l),
(385,176,l),
(428,395,l),
(392,395,l),
(349,176,l),
(75,176,l),
(353,660,l),
(313,660,l),
(32,172,l),
(27,142,l),
(343,142,l),
(315,0,l)
);
}
);
userData = {
RMXScaler = {
height = 90;
weight = 1;
};
};
width = 520;
},
{
background = {
shapes = (
{
closed = 1;
nodes = (
(411,0,l),
(433,113,l),
(477,113,l),
(502,244,l),
(458,244,l),
(492,420,l),
(347,417,l),
(303,244,l),
(193,244,l),
(424,700,l),
(244,700,l),
(33,227,l),
(12,113,l),
(277,113,l),
(256,0,l)
);
}
);
};
layerId = "A1EBBC90-F302-476F-8EDD-2A5F06C6278F";
shapes = (
{
closed = 1;
nodes = (
(405,0,l),
(426,106,l),
(472,106,l),
(495,228,l),
(449,228,l),
(481,395,l),
(337,392,l),
(294,228,l),
(180,228,l),
(410,660,l),
(240,660,l),
(23,214,l),
(3,106,l),
(271,106,l),
(250,0,l)
);
}
);
userData = {
RMXScaler = {
height = 90;
};
};
width = 520;
}
);
userData = {
"23 05 2011 [FL]
Wt1
1. spostamento V stems 138
2. spostamento H stems 120  com.typemytype.robofont.guides" = (
{
angle = 0;
isGlobal = 0;
magnetic = 5;
x = 0;
y = 660;
}
);
RMXScaler = {
source = four;
};
};
},
{
glyphname = five.lf;
lastChange = "2022-04-14 18:48:42 +0000";
layers = (
{
background = {
shapes = (
{
closed = 1;
nodes = (
(345,-7,o),
(436,69,o),
(467,228,cs),
(497,384,o),
(433,437,o),
(313,437,cs),
(255,437,o),
(179,407,o),
(141,383,c),
(213,664,l),
(524,664,l),
(531,700,l),
(188,700,l),
(101,348,l),
(135,343,l),
(176,370,o),
(252,403,o),
(311,403,cs),
(401,403,o),
(456,366,o),
(430,231,cs),
(404,99,o),
(321,27,o),
(224,27,cs),
(163,27,o),
(84,42,o),
(42,53,c),
(33,18,l),
(74,7,o),
(159,-7,o),
(223,-7,cs)
);
}
);
};
layerId = "0474999B-FB68-4D9A-82B1-2286F2372C1D";
shapes = (
{
closed = 1;
nodes = (
(333,-10,o),
(425,68,o),
(454,215,cs),
(480,348,o),
(417,407,o),
(303,407,cs),
(247,407,o),
(179,384,o),
(137,359,c),
(205,626,l),
(508,626,l),
(514,660,l),
(177,660,l),
(95,325,l),
(127,321,l),
(169,347,o),
(241,373,o),
(295,373,cs),
(385,373,o),
(440,327,o),
(418,215,cs),
(394,90,o),
(316,24,o),
(213,24,cs),
(155,24,o),
(90,37,o),
(43,54,c),
(28,20,l),
(81,2,o),
(149,-10,o),
(207,-10,cs)
);
}
);
userData = {
RMXScaler = {
height = 90;
weight = 1;
};
};
width = 519;
},
{
background = {
shapes = (
{
closed = 1;
nodes = (
(361,-11,o),
(455,56,o),
(487,221,cs),
(517,378,o),
(464,448,o),
(321,448,cs),
(288,448,o),
(243,434,o),
(215,421,c),
(257,563,l),
(529,563,l),
(556,700,l),
(163,700,l),
(68,293,l),
(171,277,l),
(196,290,o),
(243,308,o),
(283,308,cs),
(328,308,o),
(346,292,o),
(335,232,cs),
(321,158,o),
(280,117,o),
(222,117,cs),
(168,117,o),
(81,129,o),
(33,139,c),
(6,26,l),
(64,9,o),
(162,-11,o),
(231,-11,cs)
);
}
);
};
layerId = "A1EBBC90-F302-476F-8EDD-2A5F06C6278F";
shapes = (
{
closed = 1;
nodes = (
(354,-12,o),
(454,64,o),
(483,215,cs),
(511,355,o),
(447,420,o),
(325,420,cs),
(289,420,o),
(246,406,o),
(215,392,c),
(252,537,l),
(520,537,l),
(544,660,l),
(155,660,l),
(66,278,l),
(161,264,l),
(194,282,o),
(234,295,o),
(265,295,cs),
(316,295,o),
(339,265,o),
(328,207,cs),
(315,142,o),
(276,110,o),
(217,110,cs),
(162,110,o),
(99,122,o),
(49,138,c),
(3,29,l),
(61,5,o),
(144,-12,o),
(218,-12,cs)
);
}
);
userData = {
RMXScaler = {
height = 90;
};
};
width = 521;
}
);
userData = {
"21 03 2011 [FL]:
Wt1
01. correzione spessore H

23 05 2011 [FL]
Wt1
1. spostamento H stems 120  com.typemytype.robofont.guides" = (
{
angle = 0;
isGlobal = 0;
magnetic = 5;
x = 0;
y = 660;
}
);
RMXScaler = {
source = five;
};
};
},
{
glyphname = six.lf;
lastChange = "2022-04-14 18:48:42 +0000";
layers = (
{
background = {
shapes = (
{
closed = 1;
nodes = (
(360,-9,o),
(447,77,o),
(474,217,cs),
(502,359,o),
(446,430,o),
(312,430,cs),
(261,430,o),
(129,383,o),
(129,381,cs),
(169,578,o),
(265,675,o),
(380,675,cs),
(433,675,o),
(498,670,o),
(530,666,c),
(537,699,l),
(491,705,o),
(431,710,o),
(381,710,cs),
(244,710,o),
(135,603,o),
(88,361,cs),
(41,117,o),
(87,-9,o),
(226,-9,cs)
);
},
{
closed = 1;
nodes = (
(113,25,o),
(86,144,o),
(122,342,c),
(166,365,o),
(248,396,o),
(310,396,cs),
(411,396,o),
(460,341,o),
(437,223,cs),
(412,94,o),
(338,25,o),
(227,25,cs)
);
}
);
};
layerId = "0474999B-FB68-4D9A-82B1-2286F2372C1D";
shapes = (
{
closed = 1;
nodes = (
(351,-10,o),
(435,74,o),
(461,207,cs),
(486,336,o),
(425,406,o),
(303,406,cs),
(228,406,o),
(134,361,o),
(105,326,c),
(98,285,l),
(150,333,o),
(232,372,o),
(295,372,cs),
(392,372,o),
(446,314,o),
(425,206,cs),
(403,91,o),
(334,24,o),
(236,24,cs),
(107,24,o),
(74,132,o),
(111,324,cs),
(152,537,o),
(238,636,o),
(364,636,cs),
(415,636,o),
(466,626,o),
(500,609,c),
(517,641,l),
(479,660,o),
(421,670,o),
(369,670,cs),
(230,670,o),
(123,571,o),
(76,328,cs),
(32,105,o),
(79,-10,o),
(229,-10,cs)
);
}
);
userData = {
RMXScaler = {
height = 90;
weight = 1;
};
};
width = 520;
},
{
background = {
shapes = (
{
closed = 1;
nodes = (
(366,-13,o),
(464,60,o),
(493,211,cs),
(525,374,o),
(466,451,o),
(326,451,cs),
(297,451,o),
(247,431,o),
(218,416,c),
(245,515,o),
(292,584,o),
(372,584,cs),
(419,584,o),
(496,576,o),
(537,570,c),
(561,684,l,{
name = hr00;
}),
(515,696,o),
(434,713,o),
(372,713,cs),
(231,713,o),
(114,628,o),
(62,361,cs),
(16,122,o),
(67,-13,o),
(235,-13,cs)
);
},
{
closed = 1;
nodes = (
(179,114,o),
(177,183,o),
(199,288,c),
(224,307,o),
(266,325,o),
(303,325,cs),
(351,325,o),
(366,297,o),
(353,232,cs),
(340,166,o),
(301,114,o),
(241,114,cs)
);
}
);
};
layerId = "A1EBBC90-F302-476F-8EDD-2A5F06C6278F";
shapes = (
{
closed = 1;
nodes = (
(350,-12,o),
(454,65,o),
(484,216,cs),
(512,360,o),
(453,420,o),
(333,420,cs),
(280,420,o),
(213,397,o),
(177,360,c),
(175,267,l),
(194,287,o),
(244,308,o),
(285,308,cs),
(333,308,o),
(355,279,o),
(343,217,cs),
(331,155,o),
(300,107,o),
(245,107,cs),
(176,107,o),
(173,187,o),
(203,339,cs),
(230,480,o),
(275,553,o),
(362,553,cs),
(409,553,o),
(465,541,o),
(503,524,c),
(552,633,l,{
name = hr00;
}),
(509,655,o),
(440,672,o),
(381,672,cs),
(247,672,o),
(103,600,o),
(52,338,cs),
(4,91,o),
(76,-12,o),
(218,-12,cs)
);
}
);
userData = {
RMXScaler = {
height = 90;
};
};
width = 520;
}
);
userData = {
RMXScaler = {
source = six;
};
};
},
{
glyphname = seven.lf;
lastChange = "2022-04-14 18:48:42 +0000";
layers = (
{
background = {
shapes = (
{
closed = 1;
nodes = (
(534,633,l),
(547,700,l),
(176,700,l),
(169,666,l),
(502,666,l),
(498,642,l),
(128,0,l),
(169,0,l)
);
}
);
};
layerId = "0474999B-FB68-4D9A-82B1-2286F2372C1D";
shapes = (
{
closed = 1;
nodes = (
(140,0,l),
(498,612,l),
(507,660,l),
(139,660,l),
(133,626,l),
(462,626,l),
(461,617,l),
(99,0,l)
);
}
);
userData = {
RMXScaler = {
height = 90;
weight = 1;
};
};
width = 520;
},
{
background = {
shapes = (
{
closed = 1;
nodes = (
(527,534,l),
(558,700,l),
(156,700,l),
(128,558,l),
(370,558,l),
(363,531,l),
(68,0,l),
(236,0,l)
);
}
);
};
layerId = "A1EBBC90-F302-476F-8EDD-2A5F06C6278F";
shapes = (
{
closed = 1;
nodes = (
(216,0,l),
(512,525,l),
(538,660,l),
(132,660,l),
(108,538,l),
(362,538,l),
(358,517,l),
(49,0,l)
);
}
);
userData = {
RMXScaler = {
height = 90;
};
};
width = 520;
}
);
userData = {
RMXScaler = {
source = seven;
};
};
},
{
glyphname = eight.lf;
lastChange = "2022-04-14 18:48:42 +0000";
layers = (
{
background = {
shapes = (
{
closed = 1;
nodes = (
(311,-10,o),
(410,44,o),
(436,178,cs),
(456,281,o),
(411,324,o),
(331,348,c),
(328,341,l),
(422,367,o),
(474,427,o),
(489,505,cs),
(509,606,o),
(444,670,o),
(329,670,cs),
(214,670,o),
(129,605,o),
(109,506,cs),
(94,428,o),
(123,367,o),
(195,341,c),
(196,349,l),
(114,317,o),
(55,278,o),
(33,167,cs),
(10,47,o),
(95,-10,o),
(197,-10,cs)
);
},
{
closed = 1;
nodes = (
(115,24,o),
(54,72,o),
(73,168,cs),
(89,253,o),
(170,327,o),
(243,327,c),
(274,327,l),
(364,327,o),
(414,274,o),
(397,177,cs),
(378,71,o),
(291,24,o),
(204,24,cs)
);
},
{
closed = 1;
nodes = (
(249,360,l),
(161,360,o),
(135,441,o),
(147,505,cs),
(164,589,o),
(231,636,o),
(323,636,cs),
(418,636,o),
(466,587,o),
(450,504,cs),
(437,435,o),
(368,360,o),
(280,360,c)
);
}
);
};
layerId = "0474999B-FB68-4D9A-82B1-2286F2372C1D";
shapes = (
{
closed = 1;
nodes = (
(311,-10,o),
(410,44,o),
(435,175,cs),
(452,264,o),
(411,324,o),
(331,348,c),
(328,336,l),
(417,364,o),
(470,409,o),
(486,493,cs),
(505,588,o),
(444,670,o),
(329,670,cs),
(214,670,o),
(129,607,o),
(109,508,cs),
(94,430,o),
(123,367,o),
(195,341,c),
(196,349,l),
(114,317,o),
(53,270,o),
(34,174,cs),
(10,47,o),
(95,-10,o),
(197,-10,cs)
);
},
{
closed = 1;
nodes = (
(115,24,o),
(54,72,o),
(74,175,cs),
(90,257,o),
(165,327,o),
(243,327,cs),
(274,327,ls),
(364,327,o),
(412,264,o),
(396,174,cs),
(378,71,o),
(291,24,o),
(204,24,cs)
);
},
{
closed = 1;
nodes = (
(249,360,ls),
(161,360,o),
(135,443,o),
(147,507,cs),
(164,591,o),
(231,636,o),
(323,636,cs),
(418,636,o),
(462,569,o),
(447,492,cs),
(433,417,o),
(368,360,o),
(280,360,cs)
);
}
);
userData = {
RMXScaler = {
height = 90;
weight = 1;
};
};
width = 499;
},
{
background = {
shapes = (
{
closed = 1;
nodes = (
(329,-12,o),
(450,35,o),
(478,177,cs),
(499,285,o),
(463,324,o),
(372,364,c),
(366,317,l),
(473,358,o),
(513,399,o),
(531,496,cs),
(555,617,o),
(466,672,o),
(339,672,cs),
(213,672,o),
(106,612,o),
(83,497,cs),
(64,399,o),
(90,354,o),
(178,314,c),
(177,364,l),
(83,318,o),
(30,282,o),
(8,173,cs),
(-19,33,o),
(83,-12,o),
(206,-12,cs)
);
},
{
closed = 1;
nodes = (
(179,105,o),
(157,137,o),
(168,191,cs),
(176,233,o),
(204,270,o),
(241,285,c),
(286,285,l),
(318,270,o),
(335,236,o),
(326,194,cs),
(315,135,o),
(280,105,o),
(229,105,cs)
);
},
{
closed = 1;
nodes = (
(261,390,l),
(237,406,o),
(225,440,o),
(232,475,cs),
(240,517,o),
(268,556,o),
(317,556,cs),
(367,556,o),
(381,517,o),
(373,474,cs),
(366,441,o),
(341,406,o),
(306,390,c)
);
}
);
};
layerId = "A1EBBC90-F302-476F-8EDD-2A5F06C6278F";
shapes = (
{
closed = 1;
nodes = (
(356,-12,o),
(454,56,o),
(478,177,cs),
(495,263,o),
(468,317,o),
(372,358,c),
(366,317,l),
(475,359,o),
(513,400,o),
(530,488,cs),
(550,597,o),
(481,672,o),
(339,672,cs),
(203,672,o),
(104,604,o),
(83,497,cs),
(64,401,o),
(88,355,o),
(178,314,c),
(177,364,l),
(64,309,o),
(27,267,o),
(12,191,cs),
(-14,64,o),
(56,-12,o),
(206,-12,cs)
);
},
{
closed = 1;
nodes = (
(179,105,o),
(157,137,o),
(168,191,cs),
(177,239,o),
(214,285,o),
(257,285,cs),
(276,285,ls),
(317,285,o),
(336,246,o),
(326,194,cs),
(315,136,o),
(278,105,o),
(229,105,cs)
);
},
{
closed = 1;
nodes = (
(275,390,ls),
(242,390,o),
(222,422,o),
(232,475,cs),
(241,525,o),
(274,556,o),
(317,556,cs),
(361,556,o),
(382,524,o),
(373,474,cs),
(363,426,o),
(330,390,o),
(296,390,cs)
);
}
);
userData = {
RMXScaler = {
height = 90;
};
};
width = 521;
}
);
userData = {
"21 03 2011 [FL]:
Wt1
01. correzione spessore H  com.typemytype.robofont.guides" = (
{
angle = 0;
isGlobal = 0;
magnetic = 5;
x = 0;
y = 660;
},
{
angle = 90;
isGlobal = 0;
magnetic = 5;
x = 273;
y = 0;
}
);
RMXScaler = {
source = eight;
};
};
},
{
glyphname = nine.lf;
lastChange = "2022-04-14 18:48:42 +0000";
layers = (
{
background = {
shapes = (
{
closed = 1;
nodes = (
(346,-9,o),
(441,84,o),
(491,341,cs),
(534,565,o),
(499,710,o),
(349,710,cs),
(227,710,o),
(131,618,o),
(105,487,cs),
(76,340,o),
(125,272,o),
(259,272,cs),
(310,272,o),
(394,296,o),
(450,320,c),
(405,101,o),
(313,25,o),
(194,25,cs),
(144,25,o),
(76,31,o),
(44,35,c),
(36,2,l),
(69,-3,o),
(131,-9,o),
(193,-9,cs)
);
},
{
closed = 1;
nodes = (
(158,306,o),
(117,356,o),
(141,478,cs),
(164,597,o),
(244,675,o),
(347,675,cs),
(471,675,o),
(490,543,o),
(456,357,c),
(402,333,o),
(315,306,o),
(263,306,cs)
);
}
);
};
layerId = "0474999B-FB68-4D9A-82B1-2286F2372C1D";
shapes = (
{
closed = 1;
nodes = (
(170,0,l),
(362,165,o),
(465,291,o),
(493,438,cs),
(524,595,o),
(451,669,o),
(328,669,cs),
(207,669,o),
(110,584,o),
(84,454,cs),
(58,318,o),
(125,250,o),
(242,250,cs),
(312,250,o),
(385,284,o),
(432,322,c),
(439,362,l),
(392,322,o),
(324,283,o),
(250,283,cs),
(154,283,o),
(99,343,o),
(120,454,cs),
(142,564,o),
(221,635,o),
(321,635,cs),
(419,635,o),
(483,573,o),
(457,438,cs),
(430,296,o),
(330,183,o),
(118,0,c)
);
}
);
userData = {
RMXScaler = {
height = 90;
weight = 1;
};
};
width = 520;
},
{
background = {
shapes = (
{
closed = 1;
nodes = (
(337,-13,o),
(450,66,o),
(503,338,cs),
(550,582,o),
(497,713,o),
(331,713,cs),
(204,713,o),
(103,640,o),
(74,494,cs),
(41,326,o),
(96,250,o),
(238,250,cs),
(260,250,o),
(305,261,o),
(347,284,c),
(316,168,o),
(266,117,o),
(194,117,cs),
(146,117,o),
(68,125,o),
(28,131,c),
(4,16,l,{
name = hr00;
}),
(49,5,o),
(131,-13,o),
(193,-13,cs)
);
},
{
closed = 1;
nodes = (
(219,377,o),
(199,400,o),
(211,460,cs),
(226,537,o),
(267,586,o),
(324,586,cs),
(386,586,o),
(389,521,o),
(366,413,c),
(346,397,o),
(300,377,o),
(261,377,cs)
);
}
);
};
layerId = "A1EBBC90-F302-476F-8EDD-2A5F06C6278F";
shapes = (
{
closed = 1;
nodes = (
(240,0,l),
(405,155,o),
(502,272,o),
(532,427,cs),
(565,596,o),
(474,670,o),
(342,670,cs),
(225,670,o),
(98,582,o),
(69,436,cs),
(43,302,o),
(121,229,o),
(223,229,cs),
(299,229,o),
(372,281,o),
(398,325,c),
(392,379,l),
(368,358,o),
(318,347,o),
(279,347,cs),
(230,347,o),
(210,390,o),
(220,440,cs),
(232,500,o),
(268,548,o),
(318,548,cs),
(378,548,o),
(393,500,o),
(381,438,cs),
(351,285,o),
(251,176,o),
(62,0,c)
);
}
);
userData = {
RMXScaler = {
height = 90;
};
};
width = 520;
}
);
userData = {
RMXScaler = {
source = nine;
};
};
},
{
glyphname = zero.pnum;
lastChange = "2022-04-14 18:48:42 +0000";
layers = (
{
background = {
shapes = (
{
closed = 1;
nodes = (
(347,-9,o),
(449,92,o),
(496,330,cs),
(552,616,o),
(488,711,o),
(355,711,cs),
(229,711,o),
(126,614,o),
(72,338,cs),
(22,81,o),
(98,-9,o),
(221,-9,cs)
);
},
{
closed = 1;
nodes = (
(123,25,o),
(63,99,o),
(108,330,cs),
(157,583,o),
(241,676,o),
(353,676,cs),
(454,676,o),
(511,599,o),
(460,338,cs),
(415,111,o),
(328,25,o),
(222,25,cs)
);
}
);
};
layerId = "0474999B-FB68-4D9A-82B1-2286F2372C1D";
shapes = (
{
closed = 1;
nodes = (
(287,-8,o),
(378,57,o),
(414,243,cs),
(453,444,o),
(394,512,o),
(279,512,cs),
(161,512,o),
(78,439,o),
(40,243,cs),
(4,59,o),
(67,-8,o),
(178,-8,cs)
);
},
{
closed = 1;
nodes = (
(90,23,o),
(42,77,o),
(74,242,cs),
(110,427,o),
(190,481,o),
(273,481,cs),
(380,481,o),
(412,413,o),
(379,243,cs),
(347,78,o),
(266,23,o),
(184,23,cs)
);
}
);
width = 456;
},
{
background = {
shapes = (
{
closed = 1;
nodes = (
(369,-13,o),
(470,89,o),
(517,332,cs),
(568,593,o),
(509,714,o),
(347,714,cs),
(197,714,o),
(103,602,o),
(54,354,cs),
(5,103,o),
(70,-13,o),
(226,-13,cs)
);
},
{
closed = 1;
nodes = (
(195,108,o),
(176,169,o),
(207,334,cs),
(241,514,o),
(293,593,o),
(342,593,cs),
(382,593,o),
(397,526,o),
(365,356,cs),
(332,181,o),
(278,108,o),
(233,108,cs)
);
}
);
};
layerId = "A1EBBC90-F302-476F-8EDD-2A5F06C6278F";
shapes = (
{
closed = 1;
nodes = (
(322,-10,o),
(403,79,o),
(437,255,cs),
(473,440,o),
(426,528,o),
(281,528,cs),
(139,528,o),
(54,440,o),
(19,256,cs),
(-17,70,o),
(37,-10,o),
(177,-10,cs)
);
},
{
closed = 1;
nodes = (
(150,99,o),
(139,142,o),
(161,256,cs),
(184,377,o),
(212,419,o),
(261,419,cs),
(308,419,o),
(319,378,o),
(295,254,cs),
(274,146,o),
(247,99,o),
(198,99,cs)
);
}
);
width = 457;
}
);
userData = {
com.typemytype.robofont.guides = (
{
angle = 0;
isGlobal = 0;
magnetic = 5;
x = 0;
y = 243;
},
{
angle = 0;
isGlobal = 0;
magnetic = 5;
x = 0;
y = 447;
},
{
angle = 90;
isGlobal = 0;
magnetic = 5;
x = 263;
y = 0;
}
);
};
},
{
glyphname = one.pnum;
lastChange = "2022-04-14 18:48:42 +0000";
layers = (
{
background = {
shapes = (
{
closed = 1;
nodes = (
(304,0,l),
(440,700,l),
(404,700,l),
(188,556,l),
(200,527,l),
(397,661,l),
(268,0,l)
);
}
);
};
layerId = "0474999B-FB68-4D9A-82B1-2286F2372C1D";
shapes = (
{
closed = 1;
nodes = (
(244,0,l),
(342,505,l),
(308,505,l),
(145,413,l),
(157,385,l),
(300,465,l),
(209,0,l)
);
}
);
width = 458;
},
{
background = {
shapes = (
{
closed = 1;
nodes = (
(366,0,l),
(503,700,l),
(367,700,l),
(134,555,l),
(162,441,l),
(316,532,l),
(212,0,l)
);
}
);
};
layerId = "A1EBBC90-F302-476F-8EDD-2A5F06C6278F";
shapes = (
{
closed = 1;
nodes = (
(301,0,l),
(403,529,l),
(291,529,l),
(97,434,l),
(122,337,l),
(235,386,l),
(161,0,l)
);
}
);
width = 457;
}
);
},
{
glyphname = two.pnum;
lastChange = "2022-04-14 18:48:42 +0000";
layers = (
{
background = {
shapes = (
{
closed = 1;
nodes = (
(413,0,l),
(419,32,l),
(82,32,l),
(328,276,ls),
(406,351,o),
(477,423,o),
(497,530,cs),
(522,660,o),
(465,710,o),
(340,710,cs),
(281,710,o),
(204,694,o),
(166,682,c),
(166,648,l),
(228,664,o),
(293,675,o),
(337,675,cs),
(432,675,o),
(481,640,o),
(461,537,cs),
(442,437,o),
(374,375,o),
(290,291,cs),
(33,31,l),
(28,0,l)
);
}
);
};
layerId = "0474999B-FB68-4D9A-82B1-2286F2372C1D";
shapes = (
{
closed = 1;
nodes = (
(340,0,l),
(346,32,l),
(39,32,l),
(45,17,l),
(253,194,ls),
(334,263,o),
(385,317,o),
(397,380,cs),
(414,466,o),
(366,512,o),
(258,512,cs),
(208,512,o),
(147,500,o),
(102,483,c),
(107,452,l),
(158,470,o),
(211,481,o),
(250,481,cs),
(346,481,o),
(376,449,o),
(363,379,cs),
(354,331,o),
(305,278,o),
(222,208,cs),
(8,28,l),
(3,0,l)
);
}
);
width = 458;
},
{
background = {
shapes = (
{
closed = 1;
nodes = (
(426,0,l),
(450,126,l),
(218,126,l),
(350,242,ls),
(459,337,o),
(498,395,o),
(519,502,cs),
(547,644,o),
(479,714,o),
(339,714,cs),
(277,714,o),
(191,697,o),
(149,682,c),
(142,559,l),
(209,573,o),
(256,579,o),
(291,579,cs),
(355,579,o),
(374,564,o),
(362,499,cs),
(349,426,o),
(277,373,o),
(188,281,cs),
(39,121,l),
(17,0,l)
);
}
);
};
layerId = "A1EBBC90-F302-476F-8EDD-2A5F06C6278F";
shapes = (
{
closed = 1;
nodes = (
(360,0,l),
(381,109,l),
(117,109,l),
(139,54,l),
(281,180,ls),
(366,258,o),
(414,296,o),
(429,375,cs),
(448,475,o),
(385,528,o),
(266,528,cs),
(205,528,o),
(133,511,o),
(93,497,c),
(94,400,l),
(127,409,o),
(175,418,o),
(216,418,cs),
(273,418,o),
(293,403,o),
(285,363,cs),
(275,314,o),
(240,280,o),
(147,204,cs),
(16,103,l),
(-4,0,l)
);
}
);
width = 458;
}
);
},
{
glyphname = three.pnum;
lastChange = "2022-04-14 18:48:42 +0000";
layers = (
{
background = {
shapes = (
{
closed = 1;
nodes = (
(355,-9,o),
(428,57,o),
(454,190,cs),
(477,310,o),
(439,352,o),
(369,375,c),
(372,374,o),
(478,403,o),
(503,533,cs),
(527,654,o),
(486,711,o),
(352,711,cs),
(287,711,o),
(209,697,o),
(170,687,c),
(171,653,l),
(221,666,o),
(295,676,o),
(351,676,cs),
(457,676,o),
(486,639,o),
(467,541,cs),
(446,433,o),
(353,388,o),
(305,388,cs),
(183,388,l),
(176,353,l),
(302,353,l),
(381,348,o),
(440,318,o),
(416,192,cs),
(395,85,o),
(337,25,o),
(227,25,cs),
(155,25,o),
(78,39,o),
(39,49,c),
(29,15,l),
(70,4,o),
(154,-9,o),
(226,-9,cs)
);
}
);
};
layerId = "0474999B-FB68-4D9A-82B1-2286F2372C1D";
shapes = (
{
closed = 1;
nodes = (
(278,-8,o),
(345,43,o),
(364,142,cs),
(382,234,o),
(322,260,o),
(272,271,c),
(276,267,l),
(302,275,o),
(381,303,o),
(397,387,cs),
(412,465,o),
(376,512,o),
(260,512,cs),
(210,512,o),
(144,501,o),
(103,489,c),
(107,458,l),
(140,468,o),
(202,480,o),
(255,480,cs),
(341,480,o),
(376,452,o),
(363,387,cs),
(349,315,o),
(270,281,o),
(216,281,cs),
(139,281,l),
(133,251,l),
(210,251,ls),
(293,251,o),
(346,221,o),
(330,140,cs),
(315,62,o),
(265,24,o),
(172,24,cs),
(117,24,o),
(50,33,o),
(14,44,c),
(1,14,l),
(36,4,o),
(106,-8,o),
(167,-8,cs)
);
}
);
width = 456;
},
{
background = {
shapes = (
{
closed = 1;
nodes = (
(365,-13,o),
(440,46,o),
(470,200,cs),
(488,295,o),
(467,332,o),
(422,362,c),
(465,388,o),
(502,421,o),
(520,512,cs),
(548,653,o),
(485,714,o),
(316,714,cs),
(268,714,o),
(187,697,o),
(143,685,c),
(135,563,l),
(177,572,o),
(251,580,o),
(300,580,cs),
(352,580,o),
(374,560,o),
(365,512,cs),
(354,451,o),
(309,421,o),
(269,421,cs),
(151,421,l),
(127,297,l),
(258,297,ls),
(309,297,o),
(329,274,o),
(317,213,cs),
(304,149,o),
(262,121,o),
(200,121,cs),
(151,121,o),
(78,130,o),
(36,136,c),
(16,17,l),
(59,5,o),
(145,-13,o),
(213,-13,cs)
);
}
);
};
layerId = "A1EBBC90-F302-476F-8EDD-2A5F06C6278F";
shapes = (
{
closed = 1;
nodes = (
(290,-10,o),
(370,51,o),
(390,157,cs),
(404,231,o),
(365,268,o),
(293,285,c),
(297,254,l),
(356,276,o),
(410,310,o),
(424,380,cs),
(444,480,o),
(382,528,o),
(244,528,cs),
(197,528,o),
(130,515,o),
(91,502,c),
(86,406,l),
(124,415,o),
(176,420,o),
(211,420,cs),
(264,420,o),
(287,401,o),
(280,366,cs),
(274,336,o),
(243,314,o),
(195,314,cs),
(134,314,l),
(115,213,l),
(178,213,ls),
(232,213,o),
(257,192,o),
(250,157,cs),
(243,121,o),
(211,100,o),
(159,100,cs),
(116,100,o),
(63,108,o),
(26,117,c),
(-11,18,l),
(29,4,o),
(94,-10,o),
(159,-10,cs)
);
}
);
width = 456;
}
);
},
{
glyphname = four.pnum;
lastChange = "2022-04-14 18:48:42 +0000";
layers = (
{
background = {
shapes = (
{
closed = 1;
nodes = (
(354,0,l),
(383,151,l),
(472,151,l),
(479,186,l),
(390,186,l),
(436,419,l),
(400,419,l),
(354,186,l),
(78,186,l),
(364,700,l),
(324,700,l),
(35,182,l),
(29,151,l),
(347,151,l),
(318,0,l)
);
}
);
};
layerId = "0474999B-FB68-4D9A-82B1-2286F2372C1D";
shapes = (
{
closed = 1;
nodes = (
(304,0,l),
(325,106,l),
(402,106,l),
(407,137,l),
(331,137,l),
(363,302,l),
(328,301,l),
(296,137,l),
(59,137,l),
(291,504,l),
(253,504,l),
(19,134,l),
(14,106,l),
(290,106,l),
(269,0,l)
);
}
);
width = 457;
},
{
background = {
shapes = (
{
closed = 1;
nodes = (
(411,0,l),
(433,113,l),
(477,113,l),
(502,244,l),
(458,244,l),
(492,420,l),
(347,417,l),
(303,244,l),
(193,244,l),
(424,700,l),
(244,700,l),
(33,227,l),
(12,113,l),
(277,113,l),
(256,0,l)
);
}
);
};
layerId = "A1EBBC90-F302-476F-8EDD-2A5F06C6278F";
shapes = (
{
closed = 1;
nodes = (
(351,0,l),
(367,78,l),
(406,78,l),
(427,187,l),
(387,187,l),
(411,310,l),
(282,307,l),
(248,187,l),
(152,187,l),
(344,518,l),
(191,518,l),
(11,174,l),
(-7,78,l),
(228,78,l),
(212,0,l)
);
}
);
width = 457;
}
);
},
{
glyphname = five.pnum;
lastChange = "2022-04-14 18:48:42 +0000";
layers = (
{
background = {
shapes = (
{
closed = 1;
nodes = (
(345,-7,o),
(436,69,o),
(467,228,cs),
(497,384,o),
(433,437,o),
(313,437,cs),
(255,437,o),
(179,407,o),
(141,383,c),
(213,664,l),
(524,664,l),
(531,700,l),
(188,700,l),
(101,348,l),
(135,343,l),
(176,370,o),
(252,403,o),
(311,403,cs),
(401,403,o),
(456,366,o),
(430,231,cs),
(404,99,o),
(321,27,o),
(224,27,cs),
(163,27,o),
(84,42,o),
(42,53,c),
(33,18,l),
(74,7,o),
(159,-7,o),
(223,-7,cs)
);
}
);
};
layerId = "0474999B-FB68-4D9A-82B1-2286F2372C1D";
shapes = (
{
closed = 1;
nodes = (
(287,-8,o),
(367,52,o),
(389,162,cs),
(409,266,o),
(355,311,o),
(252,311,cs),
(206,311,o),
(148,296,o),
(108,276,c),
(161,472,l),
(427,472,l),
(432,504,l),
(135,504,l),
(70,246,l),
(99,242,l),
(134,261,o),
(197,281,o),
(244,281,cs),
(329,281,o),
(370,242,o),
(354,161,cs),
(336,70,o),
(269,23,o),
(182,23,cs),
(130,23,o),
(73,33,o),
(32,46,c),
(18,16,l),
(65,2,o),
(124,-8,o),
(177,-8,cs)
);
}
);
width = 457;
},
{
background = {
shapes = (
{
closed = 1;
nodes = (
(361,-11,o),
(455,56,o),
(487,221,cs),
(517,378,o),
(464,448,o),
(321,448,cs),
(288,448,o),
(243,434,o),
(215,421,c),
(257,563,l),
(529,563,l),
(556,700,l),
(163,700,l),
(68,293,l),
(171,277,l),
(196,290,o),
(243,308,o),
(283,308,cs),
(328,308,o),
(346,292,o),
(335,232,cs),
(321,158,o),
(280,117,o),
(222,117,cs),
(168,117,o),
(81,129,o),
(33,139,c),
(6,26,l),
(64,9,o),
(162,-11,o),
(231,-11,cs)
);
}
);
};
layerId = "A1EBBC90-F302-476F-8EDD-2A5F06C6278F";
shapes = (
{
closed = 1;
nodes = (
(307,-10,o),
(393,50,o),
(416,168,cs),
(437,275,o),
(387,332,o),
(273,332,cs),
(244,332,o),
(205,322,o),
(179,313,c),
(205,408,l),
(440,408,l),
(462,518,l),
(118,518,l),
(45,211,l),
(131,199,l),
(159,212,o),
(194,220,o),
(219,220,cs),
(262,220,o),
(284,199,o),
(277,162,cs),
(269,121,o),
(238,99,o),
(185,99,cs),
(135,99,o),
(79,109,o),
(37,121,c),
(-4,24,l),
(46,5,o),
(119,-10,o),
(187,-10,cs)
);
}
);
width = 459;
}
);
},
{
glyphname = six.pnum;
lastChange = "2022-04-14 18:48:42 +0000";
layers = (
{
background = {
shapes = (
{
closed = 1;
nodes = (
(360,-9,o),
(447,77,o),
(474,217,cs),
(502,359,o),
(446,430,o),
(312,430,cs),
(261,430,o),
(129,383,o),
(129,381,cs),
(169,578,o),
(265,675,o),
(380,675,cs),
(433,675,o),
(498,670,o),
(530,666,c),
(537,699,l),
(491,705,o),
(431,710,o),
(381,710,cs),
(244,710,o),
(135,603,o),
(88,361,cs),
(41,117,o),
(87,-9,o),
(226,-9,cs)
);
},
{
closed = 1;
nodes = (
(113,25,o),
(86,144,o),
(122,342,c),
(166,365,o),
(248,396,o),
(310,396,cs),
(411,396,o),
(460,341,o),
(437,223,cs),
(412,94,o),
(338,25,o),
(227,25,cs)
);
}
);
};
layerId = "0474999B-FB68-4D9A-82B1-2286F2372C1D";
shapes = (
{
closed = 1;
nodes = (
(303,-8,o),
(375,56,o),
(395,157,cs),
(415,258,o),
(360,311,o),
(252,311,cs),
(187,311,o),
(106,278,o),
(81,251,c),
(75,217,l),
(119,252,o),
(190,281,o),
(244,281,cs),
(329,281,o),
(376,238,o),
(361,159,cs),
(345,76,o),
(291,23,o),
(202,23,cs),
(90,23,o),
(58,104,o),
(86,247,cs),
(117,407,o),
(188,481,o),
(299,481,cs),
(345,481,o),
(391,473,o),
(420,460,c),
(435,489,l),
(401,504,o),
(347,512,o),
(304,512,cs),
(182,512,o),
(89,438,o),
(53,251,cs),
(19,79,o),
(64,-8,o),
(195,-8,cs)
);
}
);
width = 457;
},
{
background = {
shapes = (
{
closed = 1;
nodes = (
(366,-13,o),
(464,60,o),
(493,211,cs),
(525,374,o),
(466,451,o),
(326,451,cs),
(297,451,o),
(247,431,o),
(218,416,c),
(245,515,o),
(292,584,o),
(372,584,cs),
(419,584,o),
(496,576,o),
(537,570,c),
(561,684,l,{
name = hr00;
}),
(515,696,o),
(434,713,o),
(372,713,cs),
(231,713,o),
(114,628,o),
(62,361,cs),
(16,122,o),
(67,-13,o),
(235,-13,cs)
);
},
{
closed = 1;
nodes = (
(179,114,o),
(177,183,o),
(199,288,c),
(224,307,o),
(266,325,o),
(303,325,cs),
(351,325,o),
(366,297,o),
(353,232,cs),
(340,166,o),
(301,114,o),
(241,114,cs)
);
}
);
};
layerId = "A1EBBC90-F302-476F-8EDD-2A5F06C6278F";
shapes = (
{
closed = 1;
nodes = (
(298,-10,o),
(392,47,o),
(416,169,cs),
(439,286,o),
(387,332,o),
(280,332,cs),
(234,332,o),
(177,317,o),
(145,288,c),
(144,207,l),
(157,217,o),
(199,232,o),
(237,232,cs),
(278,232,o),
(298,214,o),
(290,172,cs),
(282,131,o),
(257,96,o),
(210,96,cs),
(153,96,o),
(145,148,o),
(169,270,cs),
(188,368,o),
(225,422,o),
(300,422,cs),
(341,422,o),
(391,412,o),
(425,399,c),
(469,496,l,{
name = hr00;
}),
(430,513,o),
(371,528,o),
(317,528,cs),
(203,528,o),
(74,478,o),
(33,267,cs),
(-4,77,o),
(55,-10,o),
(186,-10,cs)
);
}
);
width = 458;
}
);
userData = {
com.typemytype.robofont.guides = (
{
angle = 90;
isGlobal = 0;
magnetic = 5;
x = 182;
y = 0;
}
);
};
},
{
glyphname = seven.pnum;
lastChange = "2022-04-14 18:48:42 +0000";
layers = (
{
background = {
shapes = (
{
closed = 1;
nodes = (
(534,633,l),
(547,700,l),
(176,700,l),
(169,666,l),
(502,666,l),
(498,642,l),
(128,0,l),
(169,0,l)
);
}
);
};
layerId = "0474999B-FB68-4D9A-82B1-2286F2372C1D";
shapes = (
{
closed = 1;
nodes = (
(118,0,l),
(418,463,l),
(426,504,l),
(101,504,l),
(96,473,l),
(384,473,l),
(383,466,l),
(80,0,l)
);
}
);
width = 458;
},
{
background = {
shapes = (
{
closed = 1;
nodes = (
(527,534,l),
(558,700,l),
(156,700,l),
(128,558,l),
(370,558,l),
(363,531,l),
(68,0,l),
(236,0,l)
);
}
);
};
layerId = "A1EBBC90-F302-476F-8EDD-2A5F06C6278F";
shapes = (
{
closed = 1;
nodes = (
(186,0,l),
(433,399,l),
(456,518,l),
(98,518,l),
(76,409,l),
(298,409,l),
(295,391,l),
(36,0,l)
);
}
);
width = 458;
}
);
},
{
glyphname = eight.pnum;
lastChange = "2022-04-14 18:48:42 +0000";
layers = (
{
background = {
shapes = (
{
closed = 1;
nodes = (
(269,-8,o),
(355,33,o),
(375,138,cs),
(390,215,o),
(347,248,o),
(278,267,c),
(276,259,l),
(358,280,o),
(402,323,o),
(414,386,cs),
(429,465,o),
(368,512,o),
(269,512,cs),
(167,512,o),
(93,462,o),
(78,385,cs),
(66,326,o),
(94,279,o),
(158,259,c),
(158,267,l),
(87,242,o),
(36,214,o),
(19,127,cs),
(1,35,o),
(79,-8,o),
(168,-8,cs)
);
},
{
closed = 1;
nodes = (
(95,23,o),
(41,61,o),
(54,127,cs),
(66,192,o),
(136,247,o),
(200,247,c),
(228,247,l),
(304,247,o),
(353,209,o),
(340,135,cs),
(328,63,o),
(256,23,o),
(174,23,cs)
);
},
{
closed = 1;
nodes = (
(206,276,l),
(128,278,o),
(103,337,o),
(112,385,cs),
(124,446,o),
(184,481,o),
(263,481,cs),
(346,481,o),
(391,445,o),
(379,383,cs),
(368,327,o),
(304,277,o),
(233,276,c)
);
}
);
};
layerId = "0474999B-FB68-4D9A-82B1-2286F2372C1D";
shapes = (
{
closed = 1;
nodes = (
(269,-8,o),
(355,33,o),
(375,136,cs),
(389,211,o),
(347,248,o),
(278,267,c),
(276,259,l),
(358,280,o),
(402,323,o),
(414,386,cs),
(429,465,o),
(368,512,o),
(269,512,cs),
(167,512,o),
(93,462,o),
(78,385,cs),
(66,326,o),
(94,279,o),
(158,259,c),
(158,267,l),
(87,242,o),
(35,209,o),
(20,133,cs),
(1,35,o),
(79,-8,o),
(168,-8,cs)
);
},
{
closed = 1;
nodes = (
(95,23,o),
(41,61,o),
(55,133,cs),
(68,196,o),
(136,247,o),
(200,247,cs),
(228,247,ls),
(304,247,o),
(353,209,o),
(340,133,cs),
(328,63,o),
(256,23,o),
(174,23,cs)
);
},
{
closed = 1;
nodes = (
(206,276,ls),
(128,276,o),
(103,337,o),
(112,385,cs),
(124,446,o),
(184,481,o),
(263,481,cs),
(346,481,o),
(391,445,o),
(379,383,cs),
(368,327,o),
(304,276,o),
(233,276,cs)
);
}
);
width = 440;
},
{
background = {
shapes = (
{
closed = 1;
nodes = (
(308,-10,o),
(393,44,o),
(412,139,cs),
(427,217,o),
(406,250,o),
(316,288,c),
(310,245,l),
(408,281,o),
(438,312,o),
(453,389,cs),
(470,476,o),
(405,528,o),
(280,528,cs),
(160,528,o),
(74,475,o),
(57,390,cs),
(42,311,o),
(61,278,o),
(143,242,c),
(143,288,l),
(42,241,o),
(12,210,o),
(-3,136,cs),
(-21,42,o),
(42,-10,o),
(175,-10,cs)
);
},
{
closed = 1;
nodes = (
(153,94,o),
(133,116,o),
(141,154,cs),
(148,190,o),
(172,216,o),
(209,218,cs),
(229,219,ls),
(265,220,o),
(283,190,o),
(276,155,cs),
(268,116,o),
(240,94,o),
(196,94,cs)
);
},
{
closed = 1;
nodes = (
(227,307,ls),
(203,306,o),
(184,337,o),
(190,367,cs),
(196,401,o),
(225,425,o),
(260,425,cs),
(297,425,o),
(317,401,o),
(310,366,cs),
(304,335,o),
(277,310,o),
(247,308,cs)
);
}
);
};
layerId = "A1EBBC90-F302-476F-8EDD-2A5F06C6278F";
shapes = (
{
closed = 1;
nodes = (
(308,-10,o),
(393,44,o),
(412,139,cs),
(427,217,o),
(406,250,o),
(316,288,c),
(310,245,l),
(408,281,o),
(438,312,o),
(451,379,cs),
(469,470,o),
(405,528,o),
(280,528,cs),
(160,528,o),
(74,475,o),
(57,390,cs),
(43,319,o),
(61,278,o),
(143,242,c),
(143,288,l),
(42,241,o),
(12,210,o),
(-1,146,cs),
(-20,52,o),
(42,-10,o),
(175,-10,cs)
);
},
{
closed = 1;
nodes = (
(153,94,o),
(133,116,o),
(141,154,cs),
(148,190,o),
(175,218,o),
(212,218,cs),
(232,218,ls),
(260,218,o),
(283,190,o),
(276,155,cs),
(268,116,o),
(240,94,o),
(196,94,cs)
);
},
{
closed = 1;
nodes = (
(227,307,ls),
(203,307,o),
(184,332,o),
(190,367,cs),
(196,401,o),
(225,425,o),
(260,425,cs),
(297,425,o),
(317,401,o),
(310,366,cs),
(303,330,o),
(277,307,o),
(247,307,cs)
);
}
);
width = 459;
}
);
userData = {
com.typemytype.robofont.guides = (
{
angle = 90;
isGlobal = 0;
magnetic = 5;
x = 259;
y = 0;
}
);
};
},
{
glyphname = nine.pnum;
lastChange = "2022-04-14 18:48:42 +0000";
layers = (
{
background = {
shapes = (
{
closed = 1;
nodes = (
(346,-9,o),
(441,84,o),
(491,341,cs),
(534,565,o),
(499,710,o),
(349,710,cs),
(227,710,o),
(131,618,o),
(105,487,cs),
(76,340,o),
(125,272,o),
(259,272,cs),
(310,272,o),
(394,296,o),
(450,320,c),
(405,101,o),
(313,25,o),
(194,25,cs),
(144,25,o),
(76,31,o),
(44,35,c),
(36,2,l),
(69,-3,o),
(131,-9,o),
(193,-9,cs)
);
},
{
closed = 1;
nodes = (
(158,306,o),
(117,356,o),
(141,478,cs),
(164,597,o),
(244,675,o),
(347,675,cs),
(471,675,o),
(490,543,o),
(456,357,c),
(402,333,o),
(315,306,o),
(263,306,cs)
);
}
);
};
layerId = "0474999B-FB68-4D9A-82B1-2286F2372C1D";
shapes = (
{
closed = 1;
nodes = (
(145,0,l),
(311,127,o),
(397,221,o),
(419,336,cs),
(442,454,o),
(375,511,o),
(268,511,cs),
(161,511,o),
(77,446,o),
(57,345,cs),
(37,242,o),
(98,190,o),
(201,190,cs),
(263,190,o),
(326,217,o),
(366,246,c),
(371,277,l),
(331,248,o),
(273,220,o),
(208,220,cs),
(125,220,o),
(76,265,o),
(92,346,cs),
(108,427,o),
(174,480,o),
(261,480,cs),
(350,480,o),
(403,429,o),
(385,337,cs),
(364,226,o),
(281,143,o),
(95,0,c)
);
}
);
width = 457;
},
{
background = {
shapes = (
{
closed = 1;
nodes = (
(337,-13,o),
(450,66,o),
(503,338,cs),
(550,582,o),
(497,713,o),
(331,713,cs),
(204,713,o),
(103,640,o),
(74,494,cs),
(41,326,o),
(96,250,o),
(238,250,cs),
(260,250,o),
(305,261,o),
(347,284,c),
(316,168,o),
(266,117,o),
(194,117,cs),
(146,117,o),
(68,125,o),
(28,131,c),
(4,16,l,{
name = hr00;
}),
(49,5,o),
(131,-13,o),
(193,-13,cs)
);
},
{
closed = 1;
nodes = (
(219,377,o),
(199,400,o),
(211,460,cs),
(226,537,o),
(267,586,o),
(324,586,cs),
(386,586,o),
(389,521,o),
(366,413,c),
(346,397,o),
(300,377,o),
(261,377,cs)
);
}
);
};
layerId = "A1EBBC90-F302-476F-8EDD-2A5F06C6278F";
shapes = (
{
closed = 1;
nodes = (
(217,0,l),
(380,139,o),
(434,225,o),
(455,333,cs),
(478,452,o),
(416,526,o),
(293,526,cs),
(171,526,o),
(70,446,o),
(46,329,cs),
(27,235,o),
(86,167,o),
(185,167,cs),
(238,167,o),
(309,208,o),
(338,256,c),
(331,300,l),
(309,285,o),
(266,272,o),
(235,272,cs),
(197,272,o),
(175,299,o),
(182,334,cs),
(193,389,o),
(224,417,o),
(272,417,cs),
(310,417,o),
(333,387,o),
(324,341,cs),
(304,238,o),
(235,158,o),
(47,0,c)
);
}
);
width = 458;
}
);
},
{
glyphname = zero.dnom;
lastChange = "2022-04-14 18:48:42 +0000";
layers = (
{
background = {
shapes = (
{
closed = 1;
nodes = (
(149,-4,o),
(200,43,o),
(224,159,cs),
(245,260,o),
(217,317,o),
(147,317,cs),
(86,317,o),
(35,269,o),
(11,153,cs),
(-12,43,o),
(24,-4,o),
(89,-4,cs)
);
},
{
closed = 1;
nodes = (
(47,23,o),
(25,56,o),
(44,149,cs),
(64,246,o),
(103,290,o),
(145,290,cs),
(192,290,o),
(208,248,o),
(191,163,cs),
(171,66,o),
(132,23,o),
(90,23,cs)
);
}
);
};
layerId = "0474999B-FB68-4D9A-82B1-2286F2372C1D";
shapes = (
{
closed = 1;
nodes = (
(149,-4,o),
(200,43,o),
(224,159,cs),
(245,260,o),
(217,317,o),
(147,317,cs),
(86,317,o),
(35,269,o),
(11,153,cs),
(-12,43,o),
(24,-4,o),
(89,-4,cs)
);
},
{
closed = 1;
nodes = (
(47,23,o),
(25,56,o),
(44,149,cs),
(64,246,o),
(103,290,o),
(145,290,cs),
(192,290,o),
(208,248,o),
(191,163,cs),
(171,66,o),
(132,23,o),
(90,23,cs)
);
}
);
userData = {
RMXScaler = {
height = 44.57;
weight = -2;
width = 48;
};
};
width = 272;
},
{
background = {
shapes = (
{
closed = 1;
nodes = (
(202,-7,o),
(250,46,o),
(275,161,cs),
(304,294,o),
(269,361,o),
(172,361,cs),
(79,361,o),
(33,303,o),
(7,184,cs),
(-21,57,o),
(18,-7,o),
(113,-7,cs)
);
},
{
closed = 1;
nodes = (
(94,76,o),
(102,108,o),
(117,172,cs),
(132,239,o),
(138,279,o),
(166,279,cs),
(188,279,o),
(180,241,o),
(166,177,cs),
(150,105,o),
(142,76,o),
(118,76,cs)
);
}
);
};
layerId = "A1EBBC90-F302-476F-8EDD-2A5F06C6278F";
shapes = (
{
closed = 1;
nodes = (
(202,-7,o),
(250,46,o),
(275,161,cs),
(304,294,o),
(269,361,o),
(172,361,cs),
(79,361,o),
(33,303,o),
(7,184,cs),
(-21,57,o),
(18,-7,o),
(113,-7,cs)
);
},
{
closed = 1;
nodes = (
(94,76,o),
(98,108,o),
(113,172,cs),
(128,239,o),
(138,279,o),
(166,279,cs),
(188,279,o),
(184,241,o),
(170,177,cs),
(154,105,o),
(142,76,o),
(118,76,cs)
);
}
);
userData = {
RMXScaler = {
height = 50.71;
weight = -45;
width = 56;
};
};
width = 316;
}
);
userData = {
"- fatto in thin
- fatto in bold  com.typemytype.robofont.guides" = (
{
angle = 0;
isGlobal = 0;
magnetic = 5;
x = 0;
y = -100;
},
{
angle = 0;
isGlobal = 0;
magnetic = 5;
x = 0;
y = 314;
},
{
angle = 0;
isGlobal = 0;
magnetic = 5;
x = 0;
y = -100;
},
{
angle = 90;
isGlobal = 0;
magnetic = 5;
x = 2709;
y = 0;
},
{
angle = 90;
isGlobal = 0;
magnetic = 5;
x = 2686;
y = 0;
},
{
angle = 90;
isGlobal = 0;
magnetic = 5;
x = 3966;
y = 0;
}
);
RMXScaler = {
source = zero;
};
};
},
{
glyphname = one.dnom;
lastChange = "2022-04-14 18:48:42 +0000";
layers = (
{
background = {
shapes = (
{
closed = 1;
nodes = (
(129,0,l),
(190,312,l),
(159,312,l),
(54,248,l),
(64,221,l),
(163,282,l),
(152,290,l),
(96,0,l)
);
}
);
};
layerId = "0474999B-FB68-4D9A-82B1-2286F2372C1D";
shapes = (
{
closed = 1;
nodes = (
(129,0,l),
(190,312,l),
(159,312,l),
(54,248,l),
(64,221,l),
(163,282,l),
(152,290,l),
(96,0,l)
);
}
);
userData = {
RMXScaler = {
height = 44.57;
weight = -2;
width = 48;
};
};
width = 272;
},
{
background = {
shapes = (
{
closed = 1;
nodes = (
(198,0,l),
(268,355,l),
(171,355,l),
(39,281,l),
(62,199,l),
(176,261,l),
(143,284,l),
(88,0,l)
);
}
);
};
layerId = "A1EBBC90-F302-476F-8EDD-2A5F06C6278F";
shapes = (
{
closed = 1;
nodes = (
(198,0,l),
(268,355,l),
(171,355,l),
(39,281,l),
(62,199,l),
(176,261,l),
(145,284,l),
(88,0,l)
);
}
);
userData = {
RMXScaler = {
height = 50.71;
weight = -45;
width = 56;
};
};
width = 316;
}
);
userData = {
"- fatto in thin
- fatto in bold  com.typemytype.robofont.guides" = (
{
angle = 0;
isGlobal = 0;
magnetic = 5;
x = 0;
y = -100;
}
);
RMXScaler = {
source = one;
};
};
},
{
glyphname = two.dnom;
lastChange = "2022-04-14 18:48:42 +0000";
layers = (
{
background = {
shapes = (
{
closed = 1;
nodes = (
(181,0,l),
(186,27,l),
(23,27,l),
(29,17,l),
(132,111,ls),
(187,161,o),
(210,190,o),
(217,223,cs),
(231,286,o),
(190,317,o),
(134,317,cs),
(105,317,o),
(73,307,o),
(51,298,c),
(59,274,l),
(89,285,o),
(110,289,o),
(128,289,cs),
(163,289,o),
(194,272,o),
(184,228,cs),
(177,196,o),
(154,171,o),
(103,124,cs),
(-3,27,l),
(-8,0,l)
);
}
);
};
layerId = "0474999B-FB68-4D9A-82B1-2286F2372C1D";
shapes = (
{
closed = 1;
nodes = (
(181,0,l),
(186,27,l),
(23,27,l),
(29,17,l),
(132,111,ls),
(187,161,o),
(210,190,o),
(217,223,cs),
(231,286,o),
(190,317,o),
(134,317,cs),
(105,317,o),
(73,307,o),
(51,298,c),
(59,274,l),
(89,285,o),
(110,289,o),
(128,289,cs),
(163,289,o),
(194,272,o),
(184,228,cs),
(177,196,o),
(154,171,o),
(103,124,cs),
(-3,27,l),
(-8,0,l)
);
}
);
userData = {
RMXScaler = {
height = 44.57;
weight = -2;
width = 48;
};
};
width = 272;
},
{
background = {
shapes = (
{
closed = 1;
nodes = (
(230,0,l),
(247,79,l),
(88,79,l),
(111,49,l),
(184,113,ls),
(245,168,o),
(265,199,o),
(276,241,cs),
(294,311,o),
(251,362,o),
(164,362,cs),
(128,362,o),
(82,349,o),
(46,333,c),
(61,263,l),
(98,275,o),
(114,278,o),
(132,278,cs),
(159,278,o),
(169,263,o),
(165,245,cs),
(157,212,o),
(126,182,o),
(78,138,cs),
(11,78,l),
(-5,0,l)
);
}
);
};
layerId = "A1EBBC90-F302-476F-8EDD-2A5F06C6278F";
shapes = (
{
closed = 1;
nodes = (
(230,0,l),
(247,79,l),
(88,79,l),
(108,49,l),
(182,113,ls),
(244,167,o),
(265,199,o),
(276,241,cs),
(294,311,o),
(251,362,o),
(164,362,cs),
(128,362,o),
(82,349,o),
(46,333,c),
(61,263,l),
(98,275,o),
(114,278,o),
(132,278,cs),
(159,278,o),
(169,263,o),
(165,245,cs),
(157,212,o),
(127,181,o),
(78,138,cs),
(11,78,l),
(-5,0,l)
);
}
);
userData = {
RMXScaler = {
height = 50.71;
weight = -45;
width = 56;
};
};
width = 316;
}
);
userData = {
"- fatto in thin
- fatto in bold  com.typemytype.robofont.guides" = (
{
angle = 0;
isGlobal = 0;
magnetic = 5;
x = 0;
y = -100;
}
);
RMXScaler = {
source = two;
};
};
},
{
glyphname = three.dnom;
lastChange = "2022-04-14 18:48:42 +0000";
layers = (
{
background = {
shapes = (
{
closed = 1;
nodes = (
(141,-5,o),
(183,28,o),
(194,86,cs),
(204,138,o),
(184,158,o),
(149,169,c),
(150,161,l),
(179,170,o),
(208,195,o),
(215,232,cs),
(225,284,o),
(202,317,o),
(137,317,cs),
(103,317,o),
(68,309,o),
(49,301,c),
(53,276,l),
(73,283,o),
(107,288,o),
(131,288,cs),
(173,288,o),
(189,270,o),
(182,235,cs),
(175,197,o),
(136,177,o),
(114,177,cs),
(82,177,l),
(76,150,l),
(112,150,l),
(147,148,o),
(171,138,o),
(161,88,cs),
(153,49,o),
(122,23,o),
(79,23,cs),
(49,23,o),
(22,30,o),
(2,39,c),
(-8,14,l),
(12,4,o),
(48,-5,o),
(81,-5,cs)
);
}
);
};
layerId = "0474999B-FB68-4D9A-82B1-2286F2372C1D";
shapes = (
{
closed = 1;
nodes = (
(141,-5,o),
(183,28,o),
(194,86,cs),
(204,138,o),
(184,158,o),
(149,169,c),
(150,161,l),
(179,170,o),
(208,195,o),
(215,232,cs),
(225,284,o),
(202,317,o),
(137,317,cs),
(103,317,o),
(68,309,o),
(49,301,c),
(53,276,l),
(73,283,o),
(107,288,o),
(131,288,cs),
(173,288,o),
(189,270,o),
(182,235,cs),
(175,197,o),
(136,177,o),
(114,177,cs),
(82,177,l),
(76,150,l),
(112,150,l),
(147,148,o),
(171,138,o),
(161,88,cs),
(153,49,o),
(122,23,o),
(79,23,cs),
(49,23,o),
(22,30,o),
(2,39,c),
(-8,14,l),
(12,4,o),
(48,-5,o),
(81,-5,cs)
);
}
);
userData = {
RMXScaler = {
height = 44.57;
weight = -2;
width = 48;
};
};
width = 272;
},
{
background = {
shapes = (
{
closed = 1;
nodes = (
(174,-7,o),
(233,22,o),
(249,105,cs),
(259,157,o),
(239,173,o),
(201,196,c),
(204,167,l),
(234,187,o),
(262,197,o),
(273,252,cs),
(288,326,o),
(237,362,o),
(162,362,cs),
(116,362,o),
(78,353,o),
(52,340,c),
(52,269,l),
(75,274,o),
(99,275,o),
(127,275,cs),
(146,275,o),
(165,264,o),
(162,251,cs),
(159,235,o),
(146,218,o),
(123,218,cs),
(94,218,l),
(80,140,l),
(119,140,ls),
(134,141,o),
(142,123,o),
(140,114,cs),
(135,91,o),
(109,79,o),
(83,79,cs),
(59,79,o),
(40,79,o),
(16,83,c),
(-4,13,l),
(21,2,o),
(55,-7,o),
(93,-7,cs)
);
}
);
};
layerId = "A1EBBC90-F302-476F-8EDD-2A5F06C6278F";
shapes = (
{
closed = 1;
nodes = (
(174,-7,o),
(233,22,o),
(248,100,cs),
(257,147,o),
(239,173,o),
(194,191,c),
(193,171,l),
(235,187,o),
(262,200,o),
(273,252,cs),
(288,326,o),
(237,362,o),
(162,362,cs),
(116,362,o),
(78,353,o),
(52,342,c),
(52,269,l),
(75,275,o),
(99,278,o),
(127,278,cs),
(155,278,o),
(167,264,o),
(163,245,cs),
(161,234,o),
(151,218,o),
(118,218,cs),
(94,218,l),
(80,140,l),
(114,140,ls),
(142,140,o),
(144,123,o),
(142,114,cs),
(137,90,o),
(110,76,o),
(83,76,cs),
(59,76,o),
(41,79,o),
(19,86,c),
(-4,13,l),
(21,2,o),
(55,-7,o),
(93,-7,cs)
);
}
);
userData = {
RMXScaler = {
height = 50.71;
weight = -45;
width = 56;
};
};
width = 316;
}
);
userData = {
"- fatto in thin
- fatto in bold  com.typemytype.robofont.guides" = (
{
angle = 0;
isGlobal = 0;
magnetic = 5;
x = 0;
y = -100;
}
);
RMXScaler = {
source = three;
};
};
},
{
glyphname = four.dnom;
lastChange = "2022-04-14 18:48:42 +0000";
layers = (
{
background = {
shapes = (
{
closed = 1;
nodes = (
(159,0,l),
(171,63,l),
(208,63,l),
(213,91,l),
(177,91,l),
(195,187,l),
(163,186,l),
(143,91,l),
(33,91,l),
(159,312,l),
(121,312,l),
(-3,88,l),
(-8,63,l),
(137,63,l),
(125,0,l)
);
}
);
};
layerId = "0474999B-FB68-4D9A-82B1-2286F2372C1D";
shapes = (
{
closed = 1;
nodes = (
(159,0,l),
(171,63,l),
(208,63,l),
(213,91,l),
(177,91,l),
(195,187,l),
(163,186,l),
(143,91,l),
(33,91,l),
(159,312,l),
(121,312,l),
(-3,88,l),
(-8,63,l),
(137,63,l),
(125,0,l)
);
}
);
userData = {
RMXScaler = {
height = 44.57;
weight = -2;
width = 48;
};
};
width = 272;
},
{
background = {
shapes = (
{
closed = 1;
nodes = (
(225,0,l),
(236,55,l),
(252,55,l),
(268,138,l),
(252,138,l),
(266,213,l),
(163,211,l),
(142,138,l),
(113,138,l),
(226,355,l),
(97,355,l),
(0,129,l),
(-13,55,l),
(125,55,l),
(115,0,l)
);
}
);
};
layerId = "A1EBBC90-F302-476F-8EDD-2A5F06C6278F";
shapes = (
{
closed = 1;
nodes = (
(221,0,l),
(232,55,l),
(252,55,l),
(268,138,l),
(248,138,l),
(262,213,l),
(163,211,l),
(142,138,l),
(109,138,l),
(222,355,l),
(97,355,l),
(0,129,l),
(-13,55,l),
(125,55,l),
(115,0,l)
);
}
);
userData = {
RMXScaler = {
height = 50.71;
weight = -45;
width = 56;
};
};
width = 316;
}
);
userData = {
"- fatto in thin  com.typemytype.robofont.guides" = (
{
angle = 0;
isGlobal = 0;
magnetic = 5;
x = 0;
y = -100;
}
);
RMXScaler = {
source = four;
};
};
},
{
glyphname = five.dnom;
lastChange = "2022-04-14 18:48:42 +0000";
layers = (
{
background = {
shapes = (
{
closed = 1;
nodes = (
(147,-4,o),
(192,33,o),
(205,100,cs),
(218,166,o),
(188,195,o),
(127,195,cs),
(101,195,o),
(72,184,o),
(55,175,c),
(85,284,l),
(228,284,l),
(233,312,l),
(62,312,l),
(22,148,l),
(47,144,l),
(65,155,o),
(97,167,o),
(121,167,cs),
(163,167,o),
(182,149,o),
(173,104,cs),
(163,53,o),
(130,23,o),
(86,23,cs),
(59,23,o),
(29,30,o),
(8,39,c),
(-2,15,l),
(20,4,o),
(58,-4,o),
(88,-4,cs)
);
}
);
};
layerId = "0474999B-FB68-4D9A-82B1-2286F2372C1D";
shapes = (
{
closed = 1;
nodes = (
(147,-4,o),
(192,33,o),
(205,100,cs),
(218,166,o),
(188,195,o),
(127,195,cs),
(101,195,o),
(72,184,o),
(55,175,c),
(85,284,l),
(228,284,l),
(233,312,l),
(62,312,l),
(22,148,l),
(47,144,l),
(65,155,o),
(97,167,o),
(121,167,cs),
(163,167,o),
(182,149,o),
(173,104,cs),
(163,53,o),
(130,23,o),
(86,23,cs),
(59,23,o),
(29,30,o),
(8,39,c),
(-2,15,l),
(20,4,o),
(58,-4,o),
(88,-4,cs)
);
}
);
userData = {
RMXScaler = {
height = 44.57;
weight = -2;
width = 48;
};
};
width = 272;
},
{
background = {
shapes = (
{
closed = 1;
nodes = (
(184,-7,o),
(239,30,o),
(254,108,cs),
(269,186,o),
(232,225,o),
(155,225,cs),
(136,225,o),
(123,222,o),
(110,218,c),
(127,269,l),
(272,269,l),
(289,355,l),
(59,355,l),
(9,141,l),
(81,130,l),
(92,135,o),
(112,138,o),
(122,138,cs),
(144,138,o),
(150,122,o),
(149,118,cs),
(144,96,o),
(134,73,o),
(101,73,cs),
(82,73,o),
(47,81,o),
(18,94,c),
(-9,28,l),
(27,5,o),
(73,-7,o),
(111,-7,cs)
);
}
);
};
layerId = "A1EBBC90-F302-476F-8EDD-2A5F06C6278F";
shapes = (
{
closed = 1;
nodes = (
(186,-7,o),
(239,30,o),
(254,108,cs),
(269,186,o),
(229,225,o),
(162,225,cs),
(143,225,o),
(123,221,o),
(110,216,c),
(122,269,l),
(272,269,l),
(289,355,l),
(59,355,l),
(9,141,l),
(81,130,l),
(92,134,o),
(108,138,o),
(122,138,cs),
(144,138,o),
(154,122,o),
(150,106,cs),
(147,90,o),
(138,73,o),
(108,73,cs),
(80,73,o),
(48,83,o),
(19,97,c),
(-9,28,l),
(27,5,o),
(73,-7,o),
(113,-7,cs)
);
}
);
userData = {
RMXScaler = {
height = 50.71;
weight = -45;
width = 56;
};
};
width = 316;
}
);
userData = {
"- fatto in thin
- fatto in bold  com.typemytype.robofont.guides" = (
{
angle = 0;
isGlobal = 0;
magnetic = 5;
x = 0;
y = -100;
}
);
RMXScaler = {
source = five;
};
};
},
{
glyphname = six.dnom;
lastChange = "2022-04-14 18:48:42 +0000";
layers = (
{
background = {
shapes = (
{
closed = 1;
nodes = (
(150,-5,o),
(200,36,o),
(211,95,cs),
(223,158,o),
(194,194,o),
(131,194,cs),
(95,194,o),
(61,181,o),
(42,164,c),
(40,134,l),
(59,152,o),
(92,168,o),
(126,168,cs),
(165,168,o),
(190,150,o),
(180,99,cs),
(171,54,o),
(134,22,o),
(93,22,cs),
(42,22,o),
(34,75,o),
(46,137,cs),
(66,240,o),
(112,289,o),
(164,289,cs),
(181,289,o),
(204,285,o),
(222,277,c),
(234,300,l),
(212,310,o),
(186,317,o),
(163,317,cs),
(97,317,o),
(40,270,o),
(14,137,cs),
(-2,56,o),
(20,-5,o),
(92,-5,cs)
);
}
);
};
layerId = "0474999B-FB68-4D9A-82B1-2286F2372C1D";
shapes = (
{
closed = 1;
nodes = (
(157,-5,o),
(200,36,o),
(211,95,cs),
(223,158,o),
(194,194,o),
(131,194,cs),
(95,194,o),
(62,180,o),
(42,164,c),
(40,134,l),
(59,152,o),
(92,168,o),
(126,168,cs),
(165,168,o),
(190,150,o),
(180,99,cs),
(171,54,o),
(141,22,o),
(97,22,cs),
(44,22,o),
(34,75,o),
(46,137,cs),
(66,240,o),
(112,289,o),
(164,289,cs),
(181,289,o),
(203,283,o),
(221,274,c),
(234,300,l),
(214,310,o),
(188,317,o),
(163,317,cs),
(97,317,o),
(40,270,o),
(14,137,cs),
(-2,56,o),
(22,-5,o),
(96,-5,cs)
);
}
);
userData = {
RMXScaler = {
height = 44.57;
weight = -2;
width = 48;
};
};
width = 272;
},
{
background = {
shapes = (
{
closed = 1;
nodes = (
(188,-7,o),
(248,31,o),
(263,108,cs),
(278,189,o),
(226,230,o),
(162,230,cs),
(114,230,o),
(104,215,o),
(94,210,c),
(75,130,l),
(83,133,o),
(106,153,o),
(138,153,cs),
(154,153,o),
(166,138,o),
(163,121,cs),
(159,101,o),
(147,70,o),
(120,70,cs),
(85,70,o),
(100,125,o),
(118,204,cs),
(127,241,o),
(151,280,o),
(190,280,cs),
(220,280,o),
(246,272,o),
(261,264,c),
(291,331,l,{
name = hr00;
}),
(267,347,o),
(221,362,o),
(182,362,cs),
(103,362,o),
(39,328,o),
(15,205,cs),
(-18,38,o),
(26,-7,o),
(118,-7,cs)
);
}
);
};
layerId = "A1EBBC90-F302-476F-8EDD-2A5F06C6278F";
shapes = (
{
closed = 1;
nodes = (
(188,-7,o),
(248,31,o),
(263,108,cs),
(278,189,o),
(226,230,o),
(162,230,cs),
(114,230,o),
(104,215,o),
(94,210,c),
(75,130,l),
(83,133,o),
(106,153,o),
(138,153,cs),
(155,153,o),
(170,138,o),
(166,115,cs),
(162,91,o),
(148,70,o),
(120,70,cs),
(85,70,o),
(97,125,o),
(115,204,cs),
(124,242,o),
(146,282,o),
(190,282,cs),
(220,282,o),
(246,273,o),
(261,264,c),
(291,331,l,{
name = hr00;
}),
(267,347,o),
(221,362,o),
(182,362,cs),
(103,362,o),
(39,328,o),
(15,205,cs),
(-14,57,o),
(26,-7,o),
(128,-7,cs)
);
}
);
userData = {
RMXScaler = {
height = 50.71;
weight = -45;
width = 56;
};
};
width = 316;
}
);
userData = {
"- fatto in thin
- fatto in bold  com.typemytype.robofont.guides" = (
{
angle = 0;
isGlobal = 0;
magnetic = 5;
x = 0;
y = -100;
}
);
RMXScaler = {
source = six;
};
};
},
{
glyphname = seven.dnom;
lastChange = "2022-04-14 18:48:42 +0000";
layers = (
{
background = {
shapes = (
{
closed = 1;
nodes = (
(225,268,l),
(234,312,l),
(52,312,l),
(45,282,l),
(194,282,l),
(192,273,l),
(28,0,l),
(65,0,l)
);
}
);
};
layerId = "0474999B-FB68-4D9A-82B1-2286F2372C1D";
shapes = (
{
closed = 1;
nodes = (
(225,268,l),
(234,312,l),
(52,312,l),
(45,282,l),
(194,282,l),
(192,273,l),
(28,0,l),
(65,0,l)
);
}
);
userData = {
RMXScaler = {
height = 44.57;
weight = -2;
width = 48;
};
};
width = 272;
},
{
background = {
shapes = (
{
closed = 1;
nodes = (
(271,244,l),
(292,355,l),
(60,355,l),
(41,260,l),
(162,260,l),
(162,255,l),
(10,0,l),
(130,0,l)
);
}
);
};
layerId = "A1EBBC90-F302-476F-8EDD-2A5F06C6278F";
shapes = (
{
closed = 1;
nodes = (
(271,244,l),
(292,355,l),
(60,355,l),
(41,260,l),
(164,260,l),
(164,255,l),
(10,0,l),
(130,0,l)
);
}
);
userData = {
RMXScaler = {
height = 50.71;
weight = -45;
width = 56;
};
};
width = 316;
}
);
userData = {
"- fatto in thin
- fatto in bold  com.typemytype.robofont.guides" = (
{
angle = 0;
isGlobal = 0;
magnetic = 5;
x = 0;
y = -100;
}
);
RMXScaler = {
source = seven;
};
};
},
{
glyphname = eight.dnom;
lastChange = "2022-04-14 18:48:42 +0000";
layers = (
{
background = {
shapes = (
{
closed = 1;
nodes = (
(153,-5,o),
(198,27,o),
(209,82,cs),
(217,124,o),
(200,154,o),
(161,166,c),
(158,157,l),
(202,172,o),
(226,196,o),
(234,234,cs),
(244,285,o),
(210,317,o),
(145,317,cs),
(83,317,o),
(42,288,o),
(31,238,cs),
(24,201,o),
(38,173,o),
(71,160,c),
(73,170,l),
(24,148,o),
(4,126,o),
(-4,83,cs),
(-14,29,o),
(21,-5,o),
(87,-5,cs)
);
},
{
closed = 1;
nodes = (
(49,23,o),
(23,44,o),
(31,86,cs),
(37,120,o),
(64,150,o),
(108,150,cs),
(119,150,ls),
(156,150,o),
(184,127,o),
(176,86,cs),
(169,48,o),
(140,23,o),
(92,23,cs)
);
},
{
closed = 1;
nodes = (
(79,175,o),
(57,197,o),
(63,232,cs),
(70,267,o),
(101,289,o),
(144,289,cs),
(187,289,o),
(209,269,o),
(201,235,cs),
(193,200,o),
(162,175,o),
(124,175,cs),
(114,175,ls)
);
}
);
};
layerId = "0474999B-FB68-4D9A-82B1-2286F2372C1D";
shapes = (
{
closed = 1;
nodes = (
(153,-5,o),
(198,27,o),
(209,82,cs),
(217,124,o),
(200,154,o),
(161,166,c),
(158,157,l),
(202,172,o),
(226,196,o),
(234,234,cs),
(244,285,o),
(210,317,o),
(145,317,cs),
(83,317,o),
(42,288,o),
(31,238,cs),
(24,201,o),
(38,173,o),
(71,160,c),
(73,170,l),
(24,148,o),
(4,126,o),
(-4,83,cs),
(-14,29,o),
(21,-5,o),
(87,-5,cs)
);
},
{
closed = 1;
nodes = (
(49,23,o),
(23,44,o),
(31,86,cs),
(37,120,o),
(64,150,o),
(108,150,cs),
(119,150,ls),
(156,150,o),
(184,127,o),
(176,86,cs),
(169,48,o),
(140,23,o),
(92,23,cs)
);
},
{
closed = 1;
nodes = (
(79,175,o),
(57,197,o),
(63,232,cs),
(70,267,o),
(101,289,o),
(144,289,cs),
(187,289,o),
(209,269,o),
(201,235,cs),
(193,200,o),
(162,175,o),
(124,175,cs),
(114,175,ls)
);
}
);
userData = {
RMXScaler = {
height = 44.57;
weight = -2;
width = 48;
};
};
width = 272;
},
{
background = {
shapes = (
{
closed = 1;
nodes = (
(184,-7,o),
(247,17,o),
(261,90,cs),
(269,133,o),
(252,166,o),
(197,190,c),
(194,157,l),
(265,192,o),
(276,206,o),
(287,249,cs),
(302,309,o),
(260,362,o),
(170,362,cs),
(89,362,o),
(41,324,o),
(30,274,cs),
(21,233,o),
(36,191,o),
(77,169,c),
(86,198,l),
(23,172,o),
(-1,150,o),
(-9,103,cs),
(-22,28,o),
(44,-7,o),
(123,-7,cs)
);
},
{
closed = 1;
nodes = (
(102,75,o),
(98,93,o),
(103,110,cs),
(108,133,o),
(117,145,o),
(133,145,cs),
(136,145,ls),
(146,145,o),
(158,137,o),
(152,113,cs),
(148,92,o),
(139,75,o),
(119,75,cs)
);
},
{
closed = 1;
nodes = (
(140,216,o),
(129,223,o),
(134,245,cs),
(138,264,o),
(146,279,o),
(164,279,cs),
(180,279,o),
(183,263,o),
(179,248,cs),
(174,227,o),
(166,216,o),
(152,216,cs),
(149,216,ls)
);
}
);
};
layerId = "A1EBBC90-F302-476F-8EDD-2A5F06C6278F";
shapes = (
{
closed = 1;
nodes = (
(198,-7,o),
(249,29,o),
(261,90,cs),
(269,135,o),
(249,167,o),
(197,190,c),
(194,157,l),
(262,190,o),
(275,204,o),
(287,249,cs),
(303,314,o),
(254,362,o),
(170,362,cs),
(95,362,o),
(42,329,o),
(30,274,cs),
(20,230,o),
(39,190,o),
(77,169,c),
(86,198,l),
(21,171,o),
(-1,149,o),
(-9,103,cs),
(-20,37,o),
(32,-7,o),
(123,-7,cs)
);
},
{
closed = 1;
nodes = (
(104,75,o),
(97,90,o),
(103,110,cs),
(108,134,o),
(118,145,o),
(133,145,cs),
(136,145,ls),
(150,145,o),
(157,132,o),
(152,113,cs),
(147,88,o),
(136,75,o),
(119,75,cs)
);
},
{
closed = 1;
nodes = (
(136,216,o),
(130,228,o),
(134,245,cs),
(139,268,o),
(149,279,o),
(164,279,cs),
(178,279,o),
(184,266,o),
(179,248,cs),
(174,226,o),
(165,216,o),
(152,216,cs),
(149,216,ls)
);
}
);
userData = {
RMXScaler = {
height = 50.71;
weight = -45;
width = 56;
};
};
width = 316;
}
);
userData = {
"- fatto in thin
- fatto in bold  com.typemytype.robofont.guides" = (
{
angle = 0;
isGlobal = 0;
magnetic = 5;
x = 0;
y = -100;
}
);
RMXScaler = {
source = eight;
};
};
},
{
glyphname = nine.dnom;
lastChange = "2022-04-14 18:48:42 +0000";
layers = (
{
background = {
shapes = (
{
closed = 1;
nodes = (
(80,0,l),
(153,63,o),
(211,122,o),
(226,198,cs),
(240,269,o),
(203,317,o),
(141,317,cs),
(81,317,o),
(37,279,o),
(26,222,cs),
(14,161,o),
(55,120,o),
(107,120,cs),
(145,120,o),
(169,129,o),
(195,148,c),
(196,175,l),
(176,160,o),
(149,148,o),
(114,148,cs),
(77,148,o),
(49,174,o),
(58,222,cs),
(65,258,o),
(97,290,o),
(137,290,cs),
(183,290,o),
(205,256,o),
(194,199,cs),
(181,129,o),
(109,60,o),
(36,0,c)
);
}
);
};
layerId = "0474999B-FB68-4D9A-82B1-2286F2372C1D";
shapes = (
{
closed = 1;
nodes = (
(80,0,l),
(153,63,o),
(211,122,o),
(226,198,cs),
(240,269,o),
(203,317,o),
(141,317,cs),
(81,317,o),
(37,279,o),
(26,222,cs),
(14,161,o),
(55,120,o),
(107,120,cs),
(145,120,o),
(169,129,o),
(195,148,c),
(196,175,l),
(176,160,o),
(149,148,o),
(114,148,cs),
(77,148,o),
(49,174,o),
(58,222,cs),
(65,258,o),
(97,290,o),
(137,290,cs),
(183,290,o),
(205,256,o),
(194,199,cs),
(181,129,o),
(109,60,o),
(36,0,c)
);
}
);
userData = {
RMXScaler = {
height = 44.57;
weight = -2;
width = 48;
};
};
width = 272;
},
{
background = {
shapes = (
{
closed = 1;
nodes = (
(146,0,l),
(243,94,o),
(266,138,o),
(279,208,cs),
(296,300,o),
(255,362,o),
(166,362,cs),
(88,362,o),
(36,320,o),
(23,249,cs),
(8,171,o),
(60,121,o),
(122,121,cs),
(138,121,o),
(171,128,o),
(205,152,c),
(199,216,l),
(191,211,o),
(167,201,o),
(154,201,cs),
(123,201,o),
(118,227,o),
(122,247,cs),
(126,264,o),
(137,281,o),
(157,281,cs),
(191,281,o),
(184,236,o),
(183,232,cs),
(166,150,o),
(130,101,o),
(11,0,c)
);
}
);
};
layerId = "A1EBBC90-F302-476F-8EDD-2A5F06C6278F";
shapes = (
{
closed = 1;
nodes = (
(146,0,l),
(243,94,o),
(266,138,o),
(279,208,cs),
(296,300,o),
(255,362,o),
(166,362,cs),
(88,362,o),
(36,320,o),
(23,249,cs),
(8,171,o),
(60,121,o),
(122,121,cs),
(138,121,o),
(171,128,o),
(205,152,c),
(199,216,l),
(191,211,o),
(167,201,o),
(154,201,cs),
(123,201,o),
(118,227,o),
(122,247,cs),
(126,264,o),
(137,281,o),
(157,281,cs),
(191,281,o),
(184,236,o),
(183,232,cs),
(166,150,o),
(130,101,o),
(11,0,c)
);
}
);
userData = {
RMXScaler = {
height = 50.71;
weight = -45;
width = 56;
};
};
width = 316;
},
{
associatedMasterId = "0474999B-FB68-4D9A-82B1-2286F2372C1D";
background = {
shapes = (
{
closed = 1;
nodes = (
(297,134,o),
(464,268,o),
(504,474,cs),
(527,594,o),
(461,697,o),
(340,709,cs),
(220,720,o),
(123,632,o),
(101,518,cs),
(76,388,o),
(154,310,o),
(256,300,cs),
(323,294,o),
(399,321,o),
(444,355,c),
(452,395,l),
(405,359,o),
(336,327,o),
(265,334,cs),
(184,342,o),
(118,405,o),
(139,514,cs),
(157,608,o),
(235,684,o),
(333,675,cs),
(430,665,o),
(486,576,o),
(467,477,cs),
(430,285,o),
(257,142,o),
(105,12,c),
(158,6,l)
);
}
);
};
layerId = "CDB8468A-9D87-403E-9C26-255C0D3CCA0C";
name = "14 Feb 22, 16:31";
shapes = (
{
closed = 1;
nodes = (
(317,117,o),
(474,275,o),
(508,450,cs),
(539,606,o),
(465,710,o),
(341,710,cs),
(219,710,o),
(127,634,o),
(103,509,cs),
(78,378,o),
(157,299,o),
(266,299,cs),
(366,299,o),
(417,339,o),
(465,377,c),
(465,417,l),
(417,377,o),
(357,333,o),
(272,333,cs),
(189,333,o),
(118,389,o),
(141,509,cs),
(160,610,o),
(238,676,o),
(334,676,cs),
(433,676,o),
(499,604,o),
(470,450,cs),
(440,289,o),
(278,127,o),
(128,0,c),
(182,0,l)
);
}
);
width = 520;
},
{
associatedMasterId = "A1EBBC90-F302-476F-8EDD-2A5F06C6278F";
background = {
shapes = (
{
closed = 1;
nodes = (
(377,148,o),
(487,270,o),
(522,454,cs),
(553,613,o),
(474,698,o),
(343,710,cs),
(221,722,o),
(104,657,o),
(75,505,cs),
(48,366,o),
(118,285,o),
(236,274,cs),
(291,268,o),
(345,282,o),
(392,322,c),
(395,420,l),
(371,401,o),
(320,385,o),
(281,389,cs),
(223,394,o),
(206,443,o),
(215,489,cs),
(226,543,o),
(262,599,o),
(321,593,cs),
(386,587,o),
(391,527,o),
(381,472,cs),
(354,334,o),
(238,178,o),
(61,16,c),
(227,0,l)
);
}
);
};
layerId = "F1E29731-BFFE-4331-BBDA-9DB6F8BF0C16";
name = "14 Feb 22, 16:33";
shapes = (
{
closed = 1;
nodes = (
(392,161,o),
(483,270,o),
(519,458,cs),
(547,607,o),
(480,712,o),
(332,712,cs),
(199,712,o),
(101,638,o),
(74,497,cs),
(45,348,o),
(140,272,o),
(252,272,cs),
(298,272,o),
(350,290,o),
(408,334,c),
(401,431,l),
(376,410,o),
(324,388,o),
(285,388,cs),
(223,388,o),
(203,434,o),
(215,497,cs),
(225,546,o),
(260,596,o),
(319,596,cs),
(390,596,o),
(387,513,o),
(378,465,cs),
(348,312,o),
(251,176,o),
(60,0,c),
(236,0,l)
);
}
);
width = 520;
}
);
userData = {
"- fatto in thin
- fatto in bold  com.typemytype.robofont.guides" = (
{
angle = 0;
isGlobal = 0;
magnetic = 5;
x = 0;
y = -100;
}
);
RMXScaler = {
source = nine;
};
};
},
{
color = 10;
glyphname = zerosuperior;
lastChange = "2022-04-15 12:45:21 +0000";
layers = (
{
background = {
shapes = (
{
closed = 1;
nodes = (
(237,469,o),
(282,509,o),
(306,632,cs),
(330,757,o),
(300,799,o),
(233,799,cs),
(173,799,o),
(125,760,o),
(101,639,cs),
(76,511,o),
(112,469,o),
(174,469,cs)
);
},
{
closed = 1;
nodes = (
(129,502,o),
(117,541,o),
(134,631,cs),
(153,728,o),
(184,766,o),
(231,766,cs),
(278,766,o),
(290,726,o),
(273,638,cs),
(253,537,o),
(220,502,o),
(176,502,cs)
);
}
);
};
layerId = "0474999B-FB68-4D9A-82B1-2286F2372C1D";
shapes = (
{
pos = (94,483);
ref = zero.dnom;
}
);
width = 272;
},
{
background = {
shapes = (
{
closed = 1;
nodes = (
(285,368,o),
(325,410,o),
(350,538,cs),
(377,679,o),
(348,733,o),
(245,733,cs),
(158,733,o),
(115,691,o),
(90,563,cs),
(63,422,o),
(93,368,o),
(194,368,cs)
);
},
{
closed = 1;
nodes = (
(183,458,o),
(174,468,o),
(189,541,cs),
(206,624,o),
(221,644,o),
(247,644,cs),
(265,644,o),
(265,626,o),
(250,548,cs),
(237,480,o),
(224,458,o),
(198,458,cs)
);
}
);
};
layerId = "A1EBBC90-F302-476F-8EDD-2A5F06C6278F";
shapes = (
{
pos = (86,441);
ref = zero.dnom;
}
);
width = 316;
}
);
unicode = 8304;
userData = {
"- fatto in thin
- fatto in bold  com.typemytype.robofont.guides" = (
{
angle = 0;
isGlobal = 0;
magnetic = 5;
x = 0;
y = 378;
},
{
angle = 0;
isGlobal = 0;
magnetic = 5;
x = 0;
y = 792;
},
{
angle = 0;
isGlobal = 0;
magnetic = 5;
x = 0;
y = 378;
},
{
angle = 90;
isGlobal = 0;
magnetic = 5;
x = 2709;
y = 0;
},
{
angle = 90;
isGlobal = 0;
magnetic = 5;
x = 2686;
y = 0;
},
{
angle = 90;
isGlobal = 0;
magnetic = 5;
x = 3966;
y = 0;
}
);
};
},
{
color = 10;
glyphname = onesuperior;
lastChange = "2022-04-15 12:45:21 +0000";
layers = (
{
background = {
shapes = (
{
closed = 1;
nodes = (
(217,478,l),
(277,790,l),
(243,790,l),
(139,723,l),
(152,695,l),
(236,751,l),
(183,478,l)
);
}
);
};
layerId = "0474999B-FB68-4D9A-82B1-2286F2372C1D";
shapes = (
{
pos = (94,483);
ref = one.dnom;
}
);
width = 272;
},
{
background = {
shapes = (
{
closed = 1;
nodes = (
(268,373,l),
(337,728,l),
(238,728,l),
(109,652,l),
(126,563,l),
(201,603,l),
(156,373,l)
);
}
);
};
layerId = "A1EBBC90-F302-476F-8EDD-2A5F06C6278F";
shapes = (
{
pos = (86,440);
ref = one.dnom;
}
);
width = 316;
}
);
unicode = 185;
userData = {
"- fatto in thin
- fatto in bold  com.typemytype.robofont.guides" = (
{
angle = 0;
isGlobal = 0;
magnetic = 5;
x = 0;
y = 378;
}
);
};
},
{
color = 10;
glyphname = twosuperior;
lastChange = "2022-04-15 12:45:21 +0000";
layers = (
{
background = {
shapes = (
{
closed = 1;
nodes = (
(264,478,l),
(270,511,l),
(133,511,l),
(222,593,ls),
(273,640,o),
(294,666,o),
(303,714,cs),
(314,770,o),
(287,799,o),
(233,799,cs),
(208,799,o),
(171,793,o),
(145,786,c),
(144,757,l),
(172,762,o),
(208,767,o),
(229,767,cs),
(259,767,o),
(276,752,o),
(269,717,cs),
(261,676,o),
(233,649,o),
(200,617,cs),
(89,509,l),
(84,478,l)
);
}
);
};
layerId = "0474999B-FB68-4D9A-82B1-2286F2372C1D";
shapes = (
{
pos = (94,483);
ref = two.dnom;
}
);
width = 272;
},
{
background = {
shapes = (
{
closed = 1;
nodes = (
(299,373,l),
(316,462,l),
(215,462,l),
(255,495,ls),
(314,543,o),
(339,566,o),
(349,620,cs),
(363,693,o),
(334,735,o),
(247,735,cs),
(220,735,o),
(169,729,o),
(144,723,c),
(142,639,l),
(161,642,o),
(198,647,o),
(225,647,cs),
(252,647,o),
(257,643,o),
(254,628,cs),
(248,596,o),
(225,578,o),
(189,546,cs),
(93,458,l),
(79,373,l)
);
}
);
};
layerId = "A1EBBC90-F302-476F-8EDD-2A5F06C6278F";
shapes = (
{
pos = (86,440);
ref = two.dnom;
}
);
width = 316;
}
);
unicode = 178;
userData = {
"- fatto in thin
- fatto in bold  com.typemytype.robofont.guides" = (
{
angle = 0;
isGlobal = 0;
magnetic = 5;
x = 0;
y = 378;
}
);
};
},
{
color = 10;
glyphname = threesuperior;
lastChange = "2022-04-15 12:45:21 +0000";
layers = (
{
background = {
shapes = (
{
closed = 1;
nodes = (
(243,469,o),
(277,498,o),
(289,559,cs),
(300,618,o),
(289,631,o),
(256,642,c),
(286,656,o),
(305,680,o),
(313,722,cs),
(323,774,o),
(296,799,o),
(236,799,cs),
(210,799,o),
(172,794,o),
(147,790,c),
(146,757,l),
(167,761,o),
(206,766,o),
(232,766,cs),
(269,766,o),
(285,756,o),
(279,724,cs),
(272,685,o),
(238,656,o),
(218,656,cs),
(159,656,l),
(153,623,l),
(214,623,ls),
(243,623,o),
(265,608,o),
(257,568,cs),
(248,522,o),
(224,502,o),
(177,502,cs),
(154,502,o),
(113,507,o),
(92,511,c),
(85,480,l),
(108,475,o),
(150,469,o),
(180,469,cs)
);
}
);
};
layerId = "0474999B-FB68-4D9A-82B1-2286F2372C1D";
shapes = (
{
pos = (94,483);
ref = three.dnom;
}
);
width = 272;
},
{
background = {
shapes = (
{
closed = 1;
nodes = (
(269,368,o),
(308,395,o),
(324,472,cs),
(334,522,o),
(317,544,o),
(301,554,c),
(333,572,o),
(342,591,o),
(348,623,cs),
(362,696,o),
(324,734,o),
(242,734,cs),
(210,734,o),
(162,728,o),
(133,722,c),
(130,641,l),
(151,644,o),
(190,648,o),
(217,648,cs),
(239,648,o),
(249,639,o),
(247,627,cs),
(242,602,o),
(220,593,o),
(204,593,cs),
(142,593,l),
(126,514,l),
(201,514,ls),
(222,514,o),
(229,504,o),
(226,489,cs),
(220,460,o),
(200,454,o),
(167,454,cs),
(147,454,o),
(107,457,o),
(82,461,c),
(72,382,l),
(101,377,o),
(147,368,o),
(191,368,cs)
);
}
);
};
layerId = "A1EBBC90-F302-476F-8EDD-2A5F06C6278F";
shapes = (
{
pos = (86,440);
ref = three.dnom;
}
);
width = 316;
}
);
unicode = 179;
userData = {
"- fatto in thin
- fatto in bold  com.typemytype.robofont.guides" = (
{
angle = 0;
isGlobal = 0;
magnetic = 5;
x = 0;
y = 378;
}
);
};
},
{
color = 10;
glyphname = foursuperior;
lastChange = "2022-04-15 12:45:21 +0000";
layers = (
{
background = {
shapes = (
{
closed = 1;
nodes = (
(260,478,l),
(271,535,l),
(304,535,l),
(311,568,l),
(277,568,l),
(294,656,l),
(259,656,l),
(242,568,l),
(148,568,l),
(270,790,l),
(232,790,l),
(107,566,l),
(102,535,l),
(236,535,l),
(225,478,l)
);
}
);
};
layerId = "0474999B-FB68-4D9A-82B1-2286F2372C1D";
shapes = (
{
pos = (94,483);
ref = four.dnom;
}
);
width = 272;
},
{
background = {
shapes = (
{
closed = 1;
nodes = (
(299,373,l),
(308,421,l),
(325,421,l),
(341,508,l),
(325,508,l),
(340,588,l),
(235,579,l),
(218,508,l),
(179,508,l),
(291,728,l),
(173,728,l),
(75,498,l),
(61,421,l),
(202,421,l),
(193,373,l)
);
}
);
};
layerId = "A1EBBC90-F302-476F-8EDD-2A5F06C6278F";
shapes = (
{
pos = (86,440);
ref = four.dnom;
}
);
width = 316;
}
);
unicode = 8308;
userData = {
"- fatto in thin  com.typemytype.robofont.guides" = (
{
angle = 0;
isGlobal = 0;
magnetic = 5;
x = 0;
y = 378;
}
);
};
},
{
color = 10;
glyphname = fivesuperior;
lastChange = "2022-04-15 12:45:21 +0000";
layers = (
{
background = {
shapes = (
{
closed = 1;
nodes = (
(240,469,o),
(278,503,o),
(291,573,cs),
(306,650,o),
(269,673,o),
(222,673,cs),
(201,673,o),
(173,663,o),
(159,653,c),
(186,757,l),
(318,757,l),
(324,790,l),
(162,790,l),
(121,620,l),
(152,617,l),
(165,626,o),
(193,640,o),
(221,640,cs),
(245,640,o),
(267,627,o),
(258,580,cs),
(248,529,o),
(223,502,o),
(184,502,cs),
(157,502,o),
(119,507,o),
(98,511,c),
(91,481,l),
(122,474,o),
(157,469,o),
(182,469,cs)
);
}
);
};
layerId = "0474999B-FB68-4D9A-82B1-2286F2372C1D";
shapes = (
{
pos = (94,483);
ref = five.dnom;
}
);
width = 272;
},
{
background = {
shapes = (
{
closed = 1;
nodes = (
(258,369,o),
(307,396,o),
(323,481,cs),
(341,574,o),
(303,604,o),
(231,604,cs),
(218,604,o),
(194,599,o),
(180,594,c),
(192,640,l),
(342,640,l),
(359,728,l),
(137,728,l),
(86,511,l),
(157,501,l),
(167,505,o),
(188,513,o),
(207,513,cs),
(224,513,o),
(225,505,o),
(222,490,cs),
(217,466,o),
(201,452,o),
(173,452,cs),
(147,452,o),
(99,457,o),
(72,462,c),
(59,389,l),
(89,381,o),
(145,369,o),
(186,369,cs)
);
}
);
};
layerId = "A1EBBC90-F302-476F-8EDD-2A5F06C6278F";
shapes = (
{
pos = (86,440);
ref = five.dnom;
}
);
width = 316;
}
);
unicode = 8309;
userData = {
"- fatto in thin
- fatto in bold  com.typemytype.robofont.guides" = (
{
angle = 0;
isGlobal = 0;
magnetic = 5;
x = 0;
y = 378;
}
);
};
},
{
color = 10;
glyphname = sixsuperior;
lastChange = "2022-04-15 12:45:21 +0000";
layers = (
{
background = {
shapes = (
{
closed = 1;
nodes = (
(245,469,o),
(285,511,o),
(298,575,cs),
(311,642,o),
(291,680,o),
(224,680,cs),
(202,680,o),
(169,668,o),
(159,664,c),
(157,662,o),
(155,662,o),
(155,660,c),
(171,736,o),
(201,766,o),
(250,766,cs),
(273,766,o),
(304,762,o),
(320,759,c),
(325,790,l),
(309,794,o),
(277,799,o),
(251,799,cs),
(183,799,o),
(139,757,o),
(115,635,cs),
(94,525,o),
(118,469,o),
(184,469,cs)
);
},
{
closed = 1;
nodes = (
(143,502,o),
(134,539,o),
(147,622,c),
(148,625,o),
(186,648,o),
(221,648,cs),
(260,648,o),
(275,630,o),
(266,585,cs),
(257,538,o),
(234,502,o),
(186,502,cs)
);
}
);
};
layerId = "0474999B-FB68-4D9A-82B1-2286F2372C1D";
shapes = (
{
pos = (94,483);
ref = six.dnom;
}
);
width = 272;
},
{
background = {
shapes = (
{
closed = 1;
nodes = (
(260,368,o),
(313,400,o),
(328,477,cs),
(345,565,o),
(312,607,o),
(230,607,cs),
(217,607,o),
(198,602,o),
(193,603,c),
(194,600,o),
(191,601,o),
(191,595,c),
(199,626,o),
(218,650,o),
(256,650,cs),
(278,650,o),
(320,646,o),
(343,643,c),
(355,717,l),
(329,723,o),
(283,733,o),
(249,733,cs),
(168,733,o),
(116,693,o),
(89,556,cs),
(66,436,o),
(94,368,o),
(191,368,cs)
);
},
{
closed = 1;
nodes = (
(170,450,o),
(166,467,o),
(174,505,c),
(178,514,o),
(200,528,o),
(222,528,cs),
(237,528,o),
(241,520,o),
(237,499,cs),
(231,469,o),
(214,450,o),
(186,450,cs)
);
}
);
};
layerId = "A1EBBC90-F302-476F-8EDD-2A5F06C6278F";
shapes = (
{
pos = (86,440);
ref = six.dnom;
}
);
width = 316;
}
);
unicode = 8310;
userData = {
"- fatto in thin
- fatto in bold  com.typemytype.robofont.guides" = (
{
angle = 0;
isGlobal = 0;
magnetic = 5;
x = 0;
y = 378;
}
);
};
},
{
color = 10;
glyphname = sevensuperior;
lastChange = "2022-04-15 12:45:21 +0000";
layers = (
{
background = {
shapes = (
{
closed = 1;
nodes = (
(323,729,l),
(334,790,l),
(156,790,l),
(150,756,l),
(292,756,l),
(286,731,l),
(138,479,l),
(171,470,l)
);
}
);
};
layerId = "0474999B-FB68-4D9A-82B1-2286F2372C1D";
shapes = (
{
pos = (94,483);
ref = seven.dnom;
}
);
width = 272;
},
{
background = {
shapes = (
{
closed = 1;
nodes = (
(346,624,l),
(365,728,l),
(141,728,l),
(122,628,l),
(241,628,l),
(236,611,l),
(101,389,l),
(200,368,l)
);
}
);
};
layerId = "A1EBBC90-F302-476F-8EDD-2A5F06C6278F";
shapes = (
{
pos = (86,440);
ref = seven.dnom;
}
);
width = 316;
}
);
unicode = 8311;
userData = {
"- fatto in thin
- fatto in bold  com.typemytype.robofont.guides" = (
{
angle = 0;
isGlobal = 0;
magnetic = 5;
x = 0;
y = 378;
}
);
};
},
{
color = 10;
glyphname = eightsuperior;
lastChange = "2022-04-15 12:45:21 +0000";
layers = (
{
background = {
shapes = (
{
closed = 1;
nodes = (
(242,469,o),
(286,497,o),
(298,558,cs),
(308,609,o),
(294,632,o),
(261,643,c),
(305,658,o),
(316,672,o),
(324,715,cs),
(335,774,o),
(304,799,o),
(240,799,cs),
(176,799,o),
(140,775,o),
(129,721,cs),
(120,674,o),
(131,659,o),
(163,645,c),
(124,628,o),
(103,612,o),
(93,560,cs),
(80,492,o),
(121,469,o),
(180,469,cs)
);
},
{
closed = 1;
nodes = (
(141,502,o),
(119,518,o),
(126,555,cs),
(135,601,o),
(157,618,o),
(193,628,c),
(226,628,l),
(264,617,o),
(272,598,o),
(265,563,cs),
(257,522,o),
(228,502,o),
(182,502,cs)
);
},
{
closed = 1;
nodes = (
(197,660,l),
(164,673,o),
(155,681,o),
(162,716,cs),
(169,749,o),
(192,766,o),
(238,766,cs),
(285,766,o),
(297,750,o),
(290,716,cs),
(284,685,o),
(269,671,o),
(230,660,c)
);
}
);
};
layerId = "0474999B-FB68-4D9A-82B1-2286F2372C1D";
shapes = (
{
pos = (94,483);
ref = eight.dnom;
}
);
width = 272;
},
{
background = {
shapes = (
{
closed = 1;
nodes = (
(259,368,o),
(314,384,o),
(329,459,cs),
(339,511,o),
(328,537,o),
(297,551,c),
(334,570,o),
(349,585,o),
(357,627,cs),
(372,706,o),
(321,733,o),
(240,733,cs),
(168,733,o),
(119,713,o),
(107,652,cs),
(95,591,o),
(115,575,o),
(133,563,c),
(95,542,o),
(76,525,o),
(68,483,cs),
(52,398,o),
(110,368,o),
(188,368,cs)
);
},
{
closed = 1;
nodes = (
(171,445,o),
(164,448,o),
(168,469,cs),
(173,495,o),
(191,511,o),
(203,517,c),
(222,525,l),
(232,517,o),
(236,511,o),
(232,487,cs),
(228,463,o),
(210,445,o),
(184,445,cs)
);
},
{
closed = 1;
nodes = (
(208,586,l),
(199,594,o),
(198,601,o),
(201,617,cs),
(204,636,o),
(217,657,o),
(244,657,cs),
(259,657,o),
(262,653,o),
(259,637,cs),
(255,616,o),
(240,600,o),
(228,594,c)
);
}
);
};
layerId = "A1EBBC90-F302-476F-8EDD-2A5F06C6278F";
shapes = (
{
pos = (86,440);
ref = eight.dnom;
}
);
width = 316;
}
);
unicode = 8312;
userData = {
"- fatto in thin
- fatto in bold  com.typemytype.robofont.guides" = (
{
angle = 0;
isGlobal = 0;
magnetic = 5;
x = 0;
y = 378;
}
);
};
},
{
color = 10;
glyphname = ninesuperior;
lastChange = "2022-04-15 12:45:21 +0000";
layers = (
{
background = {
shapes = (
{
closed = 1;
nodes = (
(253,469,o),
(295,520,o),
(317,631,cs),
(339,743,o),
(314,799,o),
(245,799,cs),
(190,799,o),
(144,763,o),
(131,695,cs),
(119,631,o),
(148,590,o),
(205,590,cs),
(228,590,o),
(260,600,o),
(279,608,c),
(264,539,o),
(231,502,o),
(179,502,cs),
(155,502,o),
(125,506,o),
(108,509,c),
(102,479,l),
(119,475,o),
(151,469,o),
(178,469,cs)
);
},
{
closed = 1;
nodes = (
(171,622,o),
(157,653,o),
(164,691,cs),
(174,741,o),
(204,766,o),
(244,766,cs),
(291,766,o),
(299,725,o),
(284,642,c),
(265,633,o),
(230,622,o),
(208,622,cs)
);
}
);
};
layerId = "0474999B-FB68-4D9A-82B1-2286F2372C1D";
shapes = (
{
pos = (94,483);
ref = nine.dnom;
}
);
width = 272;
},
{
background = {
shapes = (
{
closed = 1;
nodes = (
(268,368,o),
(318,416,o),
(343,543,cs),
(367,665,o),
(337,733,o),
(240,733,cs),
(170,733,o),
(120,701,o),
(105,622,cs),
(89,539,o),
(124,495,o),
(200,495,cs),
(208,495,o),
(228,498,o),
(245,509,c),
(232,477,o),
(211,452,o),
(175,452,cs),
(150,452,o),
(108,455,o),
(85,459,c),
(73,385,l,{
name = hr00;
}),
(101,379,o),
(147,368,o),
(184,368,cs)
);
},
{
closed = 1;
nodes = (
(196,573,o),
(190,581,o),
(194,600,cs),
(200,631,o),
(219,651,o),
(244,651,cs),
(266,651,o),
(266,635,o),
(256,594,c),
(246,584,o),
(229,573,o),
(209,573,cs)
);
}
);
};
layerId = "A1EBBC90-F302-476F-8EDD-2A5F06C6278F";
shapes = (
{
pos = (86,440);
ref = nine.dnom;
}
);
width = 316;
}
);
unicode = 8313;
userData = {
"- fatto in thin
- fatto in bold  com.typemytype.robofont.guides" = (
{
angle = 0;
isGlobal = 0;
magnetic = 5;
x = 0;
y = 378;
}
);
};
},
{
glyphname = fraction;
lastChange = "2022-04-14 18:48:42 +0000";
layers = (
{
background = {
shapes = (
{
closed = 1;
nodes = (
(235,660,l),
(197,660,l),
(-186,10,l),
(-146,10,l)
);
}
);
};
layerId = "0474999B-FB68-4D9A-82B1-2286F2372C1D";
shapes = (
{
closed = 1;
nodes = (
(316,700,l),
(277,700,l),
(-258,0,l),
(-217,0,l)
);
}
);
width = 20;
},
{
background = {
shapes = (
{
closed = 1;
nodes = (
(312,709,l),
(196,709,l),
(-149,-29,l),
(-33,-29,l)
);
}
);
};
layerId = "A1EBBC90-F302-476F-8EDD-2A5F06C6278F";
shapes = (
{
closed = 1;
nodes = (
(371,700,l),
(255,700,l),
(-205,0,l),
(-89,0,l)
);
}
);
width = 130;
}
);
unicode = 8260;
},
{
glyphname = percent;
kernLeft = percent;
lastChange = "2022-04-14 18:48:42 +0000";
layers = (
{
background = {
shapes = (
{
closed = 1;
nodes = (
(434,660,l),
(404,669,l),
(103,-1,l),
(131,-9,l)
);
},
{
closed = 1;
nodes = (
(204,397,o),
(253,435,o),
(271,528,cs),
(290,627,o),
(263,669,o),
(200,669,cs),
(145,669,o),
(101,632,o),
(83,540,cs),
(63,440,o),
(94,397,o),
(152,397,cs)
);
},
{
closed = 1;
nodes = (
(109,429,o),
(103,467,o),
(116,536,cs),
(129,602,o),
(154,637,o),
(199,637,cs),
(243,637,o),
(252,604,o),
(239,538,cs),
(226,468,o),
(200,429,o),
(154,429,cs)
);
},
{
closed = 1;
nodes = (
(385,-9,o),
(432,32,o),
(450,124,cs),
(469,224,o),
(439,263,o),
(379,263,cs),
(322,263,o),
(280,226,o),
(261,131,cs),
(242,34,o),
(274,-9,o),
(332,-9,cs)
);
},
{
closed = 1;
nodes = (
(288,23,o),
(282,61,o),
(295,130,cs),
(308,196,o),
(332,231,o),
(378,231,cs),
(422,231,o),
(430,197,o),
(418,134,cs),
(404,59,o),
(378,23,o),
(333,23,cs)
);
}
);
};
layerId = "0474999B-FB68-4D9A-82B1-2286F2372C1D";
shapes = (
{
closed = 1;
nodes = (
(434,660,l),
(400,660,l),
(103,0,l),
(135,0,l)
);
},
{
closed = 1;
nodes = (
(204,397,o),
(253,435,o),
(271,528,cs),
(290,627,o),
(263,669,o),
(200,669,cs),
(145,669,o),
(101,632,o),
(83,540,cs),
(63,440,o),
(94,397,o),
(152,397,cs)
);
},
{
closed = 1;
nodes = (
(109,429,o),
(103,467,o),
(116,536,cs),
(129,602,o),
(154,637,o),
(199,637,cs),
(243,637,o),
(252,604,o),
(239,538,cs),
(226,468,o),
(200,429,o),
(154,429,cs)
);
},
{
closed = 1;
nodes = (
(385,-9,o),
(432,32,o),
(450,124,cs),
(469,224,o),
(439,263,o),
(379,263,cs),
(322,263,o),
(280,226,o),
(261,131,cs),
(242,34,o),
(274,-9,o),
(332,-9,cs)
);
},
{
closed = 1;
nodes = (
(288,23,o),
(282,61,o),
(295,130,cs),
(308,196,o),
(332,231,o),
(378,231,cs),
(422,231,o),
(430,197,o),
(418,134,cs),
(404,59,o),
(378,23,o),
(333,23,cs)
);
}
);
width = 501;
},
{
background = {
shapes = (
{
closed = 1;
nodes = (
(478,679,l),
(433,692,l),
(128,-32,l),
(170,-44,l)
);
},
{
closed = 1;
nodes = (
(254,349,o),
(293,401,o),
(312,500,cs),
(333,607,o),
(308,669,o),
(215,669,cs),
(135,669,o),
(95,619,o),
(76,523,cs),
(55,414,o),
(80,349,o),
(172,349,cs)
);
},
{
closed = 1;
nodes = (
(157,430,o),
(159,466,o),
(166,502,cs),
(177,559,o),
(192,589,o),
(214,589,cs),
(235,589,o),
(230,560,o),
(223,522,cs),
(212,462,o),
(193,430,o),
(174,430,cs)
);
},
{
closed = 1;
nodes = (
(478,-11,o),
(517,41,o),
(536,137,cs),
(558,246,o),
(533,308,o),
(440,308,cs),
(363,308,o),
(320,262,o),
(300,162,cs),
(279,54,o),
(304,-11,o),
(397,-11,cs)
);
},
{
closed = 1;
nodes = (
(381,69,o),
(382,105,o),
(389,139,cs),
(401,198,o),
(416,228,o),
(439,228,cs),
(460,228,o),
(455,201,o),
(447,160,cs),
(436,102,o),
(418,69,o),
(398,69,cs)
);
}
);
};
layerId = "A1EBBC90-F302-476F-8EDD-2A5F06C6278F";
shapes = (
{
closed = 1;
nodes = (
(478,679,l),
(427,679,l),
(128,-32,l),
(175,-32,l)
);
},
{
closed = 1;
nodes = (
(254,349,o),
(293,401,o),
(312,500,cs),
(333,607,o),
(308,669,o),
(215,669,cs),
(135,669,o),
(95,619,o),
(76,523,cs),
(55,414,o),
(80,349,o),
(172,349,cs)
);
},
{
closed = 1;
nodes = (
(157,430,o),
(159,466,o),
(166,502,cs),
(177,559,o),
(192,589,o),
(214,589,cs),
(235,589,o),
(230,560,o),
(223,522,cs),
(212,462,o),
(193,430,o),
(174,430,cs)
);
},
{
closed = 1;
nodes = (
(478,-11,o),
(517,41,o),
(536,137,cs),
(558,246,o),
(533,308,o),
(440,308,cs),
(363,308,o),
(320,262,o),
(300,162,cs),
(279,54,o),
(304,-11,o),
(397,-11,cs)
);
},
{
closed = 1;
nodes = (
(381,69,o),
(382,105,o),
(389,139,cs),
(401,198,o),
(416,228,o),
(439,228,cs),
(460,228,o),
(455,201,o),
(447,160,cs),
(436,102,o),
(418,69,o),
(398,69,cs)
);
}
);
width = 583;
}
);
unicode = 37;
},
{
color = 11;
glyphname = perthousand;
kernLeft = percent;
lastChange = "2022-04-14 18:48:42 +0000";
layers = (
{
background = {
shapes = (
{
closed = 1;
nodes = (
(624,-9,o),
(673,29,o),
(691,122,cs),
(710,221,o),
(683,263,o),
(620,263,cs),
(565,263,o),
(521,226,o),
(503,134,cs),
(483,34,o),
(514,-9,o),
(573,-9,cs)
);
},
{
closed = 1;
nodes = (
(529,23,o),
(523,61,o),
(536,128,cs),
(549,192,o),
(571,231,o),
(619,231,cs),
(663,231,o),
(672,198,o),
(659,132,cs),
(646,62,o),
(620,23,o),
(574,23,cs)
);
},
{
pos = (6,0);
ref = percent;
}
);
};
layerId = "0474999B-FB68-4D9A-82B1-2286F2372C1D";
shapes = (
{
closed = 1;
nodes = (
(604,-9,o),
(653,29,o),
(671,122,cs),
(690,221,o),
(663,263,o),
(600,263,cs),
(545,263,o),
(501,226,o),
(483,134,cs),
(463,34,o),
(494,-9,o),
(553,-9,cs)
);
},
{
closed = 1;
nodes = (
(509,23,o),
(503,61,o),
(516,128,cs),
(529,192,o),
(551,231,o),
(599,231,cs),
(643,231,o),
(652,198,o),
(639,132,cs),
(626,62,o),
(600,23,o),
(554,23,cs)
);
},
{
alignment = -1;
ref = percent;
}
);
width = 719;
},
{
background = {
shapes = (
{
closed = 1;
nodes = (
(757,-11,o),
(797,41,o),
(816,137,cs),
(838,246,o),
(812,308,o),
(719,308,cs),
(641,308,o),
(599,258,o),
(580,162,cs),
(559,53,o),
(586,-11,o),
(676,-11,cs)
);
},
{
closed = 1;
nodes = (
(660,69,o),
(663,103,o),
(670,141,cs),
(681,198,o),
(692,228,o),
(720,228,cs),
(736,228,o),
(734,198,o),
(727,161,cs),
(716,102,o),
(701,69,o),
(677,69,cs)
);
},
{
pos = (22,0);
ref = percent;
}
);
};
layerId = "A1EBBC90-F302-476F-8EDD-2A5F06C6278F";
shapes = (
{
closed = 1;
nodes = (
(737,-11,o),
(777,41,o),
(796,137,cs),
(818,246,o),
(792,308,o),
(699,308,cs),
(621,308,o),
(579,258,o),
(560,162,cs),
(539,53,o),
(566,-11,o),
(656,-11,cs)
);
},
{
closed = 1;
nodes = (
(640,69,o),
(643,103,o),
(650,141,cs),
(661,198,o),
(672,228,o),
(700,228,cs),
(716,228,o),
(714,198,o),
(707,161,cs),
(696,102,o),
(681,69,o),
(657,69,cs)
);
},
{
alignment = -1;
ref = percent;
}
);
width = 841;
}
);
unicode = 8240;
},
{
color = 11;
glyphname = dollar;
lastChange = "2022-04-14 18:48:42 +0000";
layers = (
{
background = {
shapes = (
{
closed = 1;
nodes = (
(129,-120,l),
(412,790,l),
(379,790,l),
(95,-120,l)
);
},
{
ref = S;
scale = (0.941,0.941);
}
);
};
layerId = "0474999B-FB68-4D9A-82B1-2286F2372C1D";
shapes = (
{
closed = 1;
nodes = (
(164,-120,l),
(447,790,l),
(414,790,l),
(130,-120,l)
);
},
{
alignment = -1;
pos = (38.118,0);
ref = S;
scale = (0.941,0.941);
}
);
width = 532;
},
{
background = {
shapes = (
{
closed = 1;
nodes = (
(200,-120,l),
(425,790,l),
(368,790,l),
(144,-120,l)
);
},
{
alignment = -1;
pos = (6,0);
ref = S;
scale = (0.9672,0.9672);
}
);
};
layerId = "A1EBBC90-F302-476F-8EDD-2A5F06C6278F";
shapes = (
{
closed = 1;
nodes = (
(179,-120,l),
(444,790,l),
(387,790,l),
(123,-120,l)
);
},
{
alignment = -1;
pos = (-6.295,0);
ref = S;
scale = (0.9672,0.9672);
}
);
width = 532;
}
);
unicode = 36;
},
{
glyphname = cent;
lastChange = "2022-04-14 18:48:42 +0000";
layers = (
{
background = {
shapes = (
{
closed = 1;
nodes = (
(279,40,o),
(315,45,o),
(355,55,c),
(354,90,l),
(325,82,o),
(286,77,o),
(238,77,cs),
(138,77,o),
(110,135,o),
(132,247,cs),
(153,355,o),
(209,425,o),
(296,425,cs),
(341,425,o),
(380,421,o),
(416,411,c),
(428,445,l),
(397,456,o),
(358,461,o),
(301,461,c),
(194,460,o),
(118,381,o),
(92,247,cs),
(63,100,o),
(113,43,o),
(221,41,cs)
);
},
{
closed = 1;
nodes = (
(220,-85,l),
(246,49,l),
(213,49,l),
(187,-85,l)
);
},
{
closed = 1;
nodes = (
(352,591,l),
(318,591,l),
(291,452,l),
(324,451,l)
);
}
);
};
layerId = "0474999B-FB68-4D9A-82B1-2286F2372C1D";
shapes = (
{
closed = 1;
nodes = (
(237,40,o),
(273,45,o),
(313,55,c),
(312,90,l),
(283,82,o),
(244,77,o),
(196,77,cs),
(96,77,o),
(68,135,o),
(90,247,cs),
(111,355,o),
(167,425,o),
(254,425,cs),
(299,425,o),
(338,421,o),
(374,411,c),
(386,445,l),
(355,456,o),
(316,461,o),
(259,461,c),
(152,460,o),
(76,381,o),
(50,247,cs),
(21,100,o),
(71,43,o),
(179,41,cs)
);
},
{
closed = 1;
nodes = (
(178,-85,l),
(204,49,l),
(171,49,l),
(145,-85,l)
);
},
{
closed = 1;
nodes = (
(310,591,l),
(276,591,l),
(249,452,l),
(282,451,l)
);
}
);
width = 394;
},
{
background = {
shapes = (
{
closed = 1;
nodes = (
(327,41,o),
(366,50,o),
(416,60,c),
(421,166,l),
(367,159,o),
(330,158,o),
(294,158,cs),
(233,158,o),
(212,194,o),
(223,251,cs),
(232,299,o),
(271,346,o),
(328,346,cs),
(371,346,o),
(422,342,o),
(455,337,c),
(491,445,l),
(444,456,o),
(403,463,o),
(321,466,c),
(184,468,o),
(96,387,o),
(70,251,cs),
(41,104,o),
(95,39,o),
(239,39,c)
);
},
{
closed = 1;
nodes = (
(247,-84,l),
(274,56,l),
(213,54,l),
(186,-84,l,{
name = hr00;
})
);
},
{
closed = 1;
nodes = (
(377,587,l),
(315,587,l),
(289,450,l),
(350,448,l)
);
}
);
};
layerId = "A1EBBC90-F302-476F-8EDD-2A5F06C6278F";
shapes = (
{
closed = 1;
nodes = (
(303,41,o),
(342,50,o),
(392,60,c),
(397,166,l),
(343,159,o),
(306,158,o),
(270,158,cs),
(209,158,o),
(188,194,o),
(199,251,cs),
(208,299,o),
(247,346,o),
(304,346,cs),
(347,346,o),
(398,342,o),
(431,337,c),
(467,445,l),
(420,456,o),
(379,463,o),
(297,466,c),
(160,468,o),
(72,387,o),
(46,251,cs),
(17,104,o),
(71,39,o),
(215,39,c)
);
},
{
closed = 1;
nodes = (
(223,-84,l),
(250,56,l),
(189,54,l),
(162,-84,l,{
name = hr00;
})
);
},
{
closed = 1;
nodes = (
(353,587,l),
(291,587,l),
(265,450,l),
(326,448,l)
);
}
);
width = 476;
}
);
unicode = 162;
},
{
glyphname = sterling;
lastChange = "2022-04-14 18:48:42 +0000";
layers = (
{
background = {
shapes = (
{
closed = 1;
nodes = (
(118,406,l),
(112,374,l),
(376,374,l),
(382,406,l)
);
},
{
closed = 1;
nodes = (
(26,34,l),
(19,0,l),
(299,0,l),
(374,17,l),
(379,50,l),
(305,34,l)
);
},
{
closed = 1;
nodes = (
(105,23,l),
(140,23,l),
(225,462,ls),
(252,601,o),
(300,645,o),
(364,645,cs),
(405,645,o),
(437,637,o),
(456,626,c),
(472,655,l),
(450,668,o),
(423,677,o),
(369,677,cs),
(287,677,o),
(223,629,o),
(191,466,cs)
);
}
);
};
layerId = "0474999B-FB68-4D9A-82B1-2286F2372C1D";
shapes = (
{
closed = 1;
nodes = (
(81,406,l),
(75,374,l),
(339,374,l),
(345,406,l)
);
},
{
closed = 1;
nodes = (
(-11,34,l),
(-18,0,l),
(262,0,l),
(337,17,l),
(342,50,l),
(268,34,l)
);
},
{
closed = 1;
nodes = (
(68,23,l),
(103,23,l),
(188,462,ls),
(215,601,o),
(263,645,o),
(327,645,cs),
(368,645,o),
(400,637,o),
(419,626,c),
(435,655,l),
(413,668,o),
(386,677,o),
(332,677,cs),
(250,677,o),
(186,629,o),
(154,466,cs)
);
}
);
width = 412;
},
{
background = {
shapes = (
{
closed = 1;
nodes = (
(86,402,l),
(74,338,l),
(415,338,l),
(427,402,l)
);
},
{
closed = 1;
nodes = (
(24,113,l),
(2,0,l),
(319,0,l),
(415,15,l),
(437,128,l),
(340,113,l)
);
},
{
closed = 1;
nodes = (
(86,98,l),
(226,98,l),
(301,480,ls),
(310,529,o),
(336,573,o),
(401,573,cs),
(446,573,o),
(464,570,o),
(494,563,c),
(525,662,l),
(491,677,o),
(439,691,o),
(393,691,cs),
(276,691,o),
(191,631,o),
(163,489,cs)
);
}
);
};
layerId = "A1EBBC90-F302-476F-8EDD-2A5F06C6278F";
shapes = (
{
closed = 1;
nodes = (
(80,402,l),
(68,338,l),
(409,338,l),
(421,402,l)
);
},
{
closed = 1;
nodes = (
(18,113,l),
(-4,0,l),
(313,0,l),
(409,15,l),
(431,128,l),
(334,113,l)
);
},
{
closed = 1;
nodes = (
(80,98,l),
(220,98,l),
(295,480,ls),
(304,529,o),
(330,573,o),
(395,573,cs),
(440,573,o),
(458,570,o),
(488,563,c),
(519,662,l),
(485,677,o),
(433,691,o),
(387,691,cs),
(270,691,o),
(185,631,o),
(157,489,cs)
);
}
);
width = 496;
}
);
unicode = 163;
},
{
color = 11;
glyphname = euro;
lastChange = "2022-04-14 18:48:42 +0000";
layers = (
{
background = {
shapes = (
{
closed = 1;
nodes = (
(407,393,l),
(414,427,l),
(25,427,l),
(18,393,l)
);
},
{
closed = 1;
nodes = (
(378,245,l),
(385,279,l),
(-4,279,l),
(-11,245,l)
);
},
{
pos = (32,0);
ref = C;
scale = (0.944,0.944);
}
);
};
layerId = "0474999B-FB68-4D9A-82B1-2286F2372C1D";
shapes = (
{
closed = 1;
nodes = (
(467,393,l),
(474,427,l),
(85,427,l),
(78,393,l)
);
},
{
closed = 1;
nodes = (
(438,245,l),
(445,279,l),
(56,279,l),
(49,245,l)
);
},
{
alignment = -1;
pos = (92,0);
ref = C;
scale = (0.944,0.944);
}
);
width = 566;
},
{
background = {
shapes = (
{
closed = 1;
nodes = (
(422,372,l),
(434,433,l),
(12,433,l),
(0,372,l)
);
},
{
closed = 1;
nodes = (
(396,233,l),
(407,294,l),
(-15,294,l),
(-27,233,l)
);
},
{
pos = (27,0);
ref = C;
scale = (0.9681,0.9688);
}
);
};
layerId = "A1EBBC90-F302-476F-8EDD-2A5F06C6278F";
shapes = (
{
closed = 1;
nodes = (
(493,372,l),
(505,433,l),
(83,433,l),
(71,372,l)
);
},
{
closed = 1;
nodes = (
(467,233,l),
(478,294,l),
(56,294,l),
(44,233,l)
);
},
{
alignment = -1;
pos = (107.681,0);
ref = C;
scale = (0.9681,0.9688);
}
);
width = 630;
}
);
unicode = 8364;
userData = {
com.typemytype.robofont.guides = (
{
angle = 0;
isGlobal = 0;
magnetic = 5;
x = 0;
y = 660;
},
{
angle = 0;
isGlobal = 0;
magnetic = 5;
x = 0;
y = -11;
},
{
angle = 0;
isGlobal = 0;
magnetic = 5;
x = 0;
y = 671;
}
);
};
},
{
color = 11;
glyphname = yen;
lastChange = "2022-04-14 18:48:42 +0000";
layers = (
{
background = {
shapes = (
{
closed = 1;
nodes = (
(452,182,l),
(459,216,l),
(53,216,l),
(46,182,l)
);
},
{
closed = 1;
nodes = (
(310,331,l),
(480,331,l),
(487,365,l),
(316,365,l)
);
},
{
closed = 1;
nodes = (
(258,365,l),
(81,365,l),
(74,331,l),
(252,331,l)
);
},
{
alignment = -1;
pos = (25,0);
ref = Y;
scale = (0.9681,0.9681);
}
);
};
layerId = "0474999B-FB68-4D9A-82B1-2286F2372C1D";
shapes = (
{
closed = 1;
nodes = (
(231,0,l),
(288,291,l),
(561,660,l),
(520,660,l),
(277,330,l),
(160,660,l),
(121,660,l),
(253,291,l),
(196,0,l)
);
},
{
closed = 1;
nodes = (
(452,182,l),
(459,216,l),
(53,216,l),
(46,182,l)
);
},
{
closed = 1;
nodes = (
(252,331,l),
(258,365,l),
(81,365,l),
(74,331,l)
);
},
{
closed = 1;
nodes = (
(480,331,l),
(487,365,l),
(316,365,l),
(310,331,l)
);
}
);
width = 523;
},
{
background = {
shapes = (
{
closed = 1;
nodes = (
(472,154,l),
(484,218,l),
(50,218,l),
(38,154,l)
);
},
{
closed = 1;
nodes = (
(335,307,l),
(502,307,l),
(514,370,l),
(347,370,l)
);
},
{
closed = 1;
nodes = (
(237,370,l),
(80,370,l),
(68,307,l),
(225,307,l)
);
},
{
pos = (10,0);
ref = Y;
scale = (0.9681,0.9681);
}
);
};
layerId = "A1EBBC90-F302-476F-8EDD-2A5F06C6278F";
shapes = (
{
closed = 1;
nodes = (
(309,0,l),
(360,250,l),
(623,672,l),
(457,672,l),
(312,418,l),
(269,672,l),
(107,672,l),
(207,250,l),
(156,0,l)
);
},
{
closed = 1;
nodes = (
(480,154,l),
(492,218,l),
(58,218,l),
(46,154,l)
);
},
{
closed = 1;
nodes = (
(233,307,l),
(245,370,l),
(88,370,l),
(76,307,l)
);
},
{
closed = 1;
nodes = (
(510,307,l),
(522,370,l),
(355,370,l),
(343,307,l)
);
}
);
width = 570;
}
);
unicode = 165;
},
{
glyphname = florin;
lastChange = "2022-04-14 18:48:42 +0000";
layers = (
{
background = {
shapes = (
{
closed = 1;
nodes = (
(147,-239,o),
(188,-195,o),
(214,-61,cs),
(294,352,l),
(443,352,l),
(449,384,l),
(300,384,l),
(322,493,ls),
(342,593,o),
(385,640,o),
(437,640,cs),
(464,640,o),
(500,637,o),
(517,635,c),
(523,667,l),
(505,670,o),
(467,673,o),
(437,673,cs),
(327,673,o),
(298,549,o),
(280,459,cs),
(265,384,l),
(203,384,l),
(197,352,l),
(259,352,l),
(179,-59,ls),
(158,-169,o),
(126,-206,o),
(65,-206,cs),
(47,-206,o),
(6,-203,o),
(-16,-201,c),
(-21,-234,l),
(12,-237,o),
(45,-239,o),
(64,-239,cs)
);
}
);
};
layerId = "0474999B-FB68-4D9A-82B1-2286F2372C1D";
shapes = (
{
closed = 1;
nodes = (
(90,-239,o),
(131,-195,o),
(157,-61,cs),
(237,352,l),
(386,352,l),
(392,384,l),
(243,384,l),
(265,493,ls),
(285,593,o),
(328,640,o),
(380,640,cs),
(407,640,o),
(443,637,o),
(460,635,c),
(466,667,l),
(448,670,o),
(410,673,o),
(380,673,cs),
(270,673,o),
(241,549,o),
(223,459,cs),
(208,384,l),
(146,384,l),
(140,352,l),
(202,352,l),
(122,-59,ls),
(101,-169,o),
(69,-206,o),
(8,-206,cs),
(-10,-206,o),
(-51,-203,o),
(-73,-201,c),
(-78,-234,l),
(-45,-237,o),
(-12,-239,o),
(7,-239,cs)
);
}
);
width = 415;
},
{
background = {
shapes = (
{
closed = 1;
nodes = (
(159,-214,o),
(197,-176,o),
(226,-41,cs,{
name = hr00;
}),
(310,346,l),
(410,346,l),
(423,415,l),
(325,415,l),
(334,453,ls),
(354,533,o),
(372,564,o),
(417,564,cs),
(428,564,o),
(451,563,o),
(461,562,c),
(473,669,l),
(442,673,o),
(390,680,o),
(362,680,cs),
(258,680,o),
(222,618,o),
(194,495,cs),
(176,415,l),
(117,415,l),
(103,346,l),
(161,346,l),
(83,-20,ls),
(72,-71,o),
(50,-91,o),
(16,-97,cs),
(9,-98,o),
(-32,-97,o),
(-41,-96,c),
(-53,-204,l),
(-23,-208,o),
(27,-214,o),
(56,-214,cs)
);
}
);
};
layerId = "A1EBBC90-F302-476F-8EDD-2A5F06C6278F";
shapes = (
{
closed = 1;
nodes = (
(147,-214,o),
(185,-176,o),
(214,-41,cs,{
name = hr00;
}),
(298,346,l),
(398,346,l),
(411,415,l),
(313,415,l),
(322,453,ls),
(342,533,o),
(360,564,o),
(405,564,cs),
(416,564,o),
(439,563,o),
(449,562,c),
(461,669,l),
(430,673,o),
(378,680,o),
(350,680,cs),
(246,680,o),
(210,618,o),
(182,495,cs),
(164,415,l),
(105,415,l),
(91,346,l),
(149,346,l),
(71,-20,ls),
(60,-71,o),
(38,-91,o),
(4,-97,cs),
(-3,-98,o),
(-44,-97,o),
(-53,-96,c),
(-65,-204,l),
(-35,-208,o),
(15,-214,o),
(44,-214,cs)
);
}
);
width = 418;
}
);
unicode = 402;
},
{
glyphname = currency;
lastChange = "2022-04-14 18:48:42 +0000";
layers = (
{
background = {
shapes = (
{
closed = 1;
nodes = (
(320,82,o),
(404,157,o),
(422,248,cs),
(441,345,o),
(387,422,o),
(297,422,cs),
(211,422,o),
(127,347,o),
(109,255,cs),
(90,159,o),
(147,82,o),
(235,82,cs)
);
},
{
closed = 1;
nodes = (
(169,144,l),
(149,169,l),
(43,75,l),
(65,49,l)
);
},
{
closed = 1;
nodes = (
(172,118,o),
(129,178,o),
(143,249,cs),
(158,324,o),
(227,386,o),
(294,386,cs),
(360,386,o),
(402,324,o),
(389,258,cs),
(374,181,o),
(308,118,o),
(237,118,cs)
);
},
{
closed = 1;
nodes = (
(211,360,l),
(142,455,l),
(112,429,l),
(183,335,l)
);
},
{
closed = 1;
nodes = (
(420,75,l),
(349,169,l),
(321,144,l),
(390,49,l)
);
},
{
closed = 1;
nodes = (
(489,429,l),
(467,455,l),
(363,360,l),
(383,335,l)
);
}
);
};
layerId = "0474999B-FB68-4D9A-82B1-2286F2372C1D";
shapes = (
{
closed = 1;
nodes = (
(295,82,o),
(379,157,o),
(397,248,cs),
(416,345,o),
(362,422,o),
(272,422,cs),
(186,422,o),
(102,347,o),
(84,255,cs),
(65,159,o),
(122,82,o),
(210,82,cs)
);
},
{
closed = 1;
nodes = (
(144,144,l),
(124,169,l),
(18,75,l),
(40,49,l)
);
},
{
closed = 1;
nodes = (
(147,118,o),
(104,178,o),
(118,249,cs),
(133,324,o),
(202,386,o),
(269,386,cs),
(335,386,o),
(377,324,o),
(364,258,cs),
(349,181,o),
(283,118,o),
(212,118,cs)
);
},
{
closed = 1;
nodes = (
(186,360,l),
(117,455,l),
(87,429,l),
(158,335,l)
);
},
{
closed = 1;
nodes = (
(395,75,l),
(324,169,l),
(296,144,l),
(365,49,l)
);
},
{
closed = 1;
nodes = (
(464,429,l),
(442,455,l),
(338,360,l),
(358,335,l)
);
}
);
width = 482;
},
{
background = {
shapes = (
{
closed = 1;
nodes = (
(242,49,o),
(357,73,o),
(421,165,cs),
(488,262,o),
(471,374,o),
(391,421,cs),
(320,463,o),
(203,439,o),
(138,345,cs),
(72,250,o),
(90,137,o),
(170,91,cs)
);
},
{
closed = 1;
nodes = (
(178,124,l),
(138,172,l),
(33,74,l),
(73,26,l)
);
},
{
closed = 1;
nodes = (
(186,178,o),
(185,234,o),
(211,280,cs),
(237,326,o),
(295,369,o),
(340,348,cs),
(376,332,o),
(374,275,o),
(349,232,cs),
(319,181,o),
(264,143,o),
(219,163,cs)
);
},
{
closed = 1;
nodes = (
(230,387,l),
(156,485,l),
(103,437,l),
(178,340,l)
);
},
{
closed = 1;
nodes = (
(460,74,l),
(385,172,l),
(335,124,l),
(409,26,l)
);
},
{
closed = 1;
nodes = (
(531,437,l),
(491,485,l),
(386,387,l),
(424,340,l)
);
}
);
};
layerId = "A1EBBC90-F302-476F-8EDD-2A5F06C6278F";
shapes = (
{
closed = 1;
nodes = (
(220,49,o),
(335,73,o),
(399,165,cs),
(466,262,o),
(449,374,o),
(369,421,cs),
(298,463,o),
(181,439,o),
(116,345,cs),
(50,250,o),
(68,137,o),
(148,91,cs)
);
},
{
closed = 1;
nodes = (
(156,124,l),
(116,172,l),
(11,74,l),
(51,26,l)
);
},
{
closed = 1;
nodes = (
(164,178,o),
(163,234,o),
(189,280,cs),
(215,326,o),
(273,369,o),
(318,348,cs),
(354,332,o),
(352,275,o),
(327,232,cs),
(297,181,o),
(242,143,o),
(197,163,cs)
);
},
{
closed = 1;
nodes = (
(208,387,l),
(134,485,l),
(81,437,l),
(156,340,l)
);
},
{
closed = 1;
nodes = (
(438,74,l),
(363,172,l),
(313,124,l),
(387,26,l)
);
},
{
closed = 1;
nodes = (
(509,437,l),
(469,485,l),
(364,387,l),
(402,340,l)
);
}
);
width = 520;
}
);
unicode = 164;
userData = {
com.typemytype.robofont.guides = (
{
angle = 0;
isGlobal = 0;
magnetic = 5;
x = 0;
y = 520;
},
{
angle = 0;
isGlobal = 0;
magnetic = 5;
x = 0;
y = 317;
},
{
angle = 0;
isGlobal = 0;
magnetic = 5;
x = 0;
y = 187;
},
{
angle = 0;
isGlobal = 0;
magnetic = 5;
x = 0;
y = 565;
},
{
angle = 90;
isGlobal = 0;
magnetic = 5;
x = 165;
y = 0;
},
{
angle = 90;
isGlobal = 0;
magnetic = 5;
x = 210;
y = 0;
},
{
angle = 90;
isGlobal = 0;
magnetic = 5;
x = 340;
y = 0;
}
);
};
},
{
glyphname = asciicircum;
lastChange = "2022-04-14 18:48:42 +0000";
layers = (
{
background = {
shapes = (
{
closed = 1;
nodes = (
(136,323,l),
(339,624,l),
(432,323,l),
(471,323,l),
(363,660,l),
(327,660,l),
(95,323,l)
);
}
);
};
layerId = "0474999B-FB68-4D9A-82B1-2286F2372C1D";
shapes = (
{
closed = 1;
nodes = (
(91,323,l),
(294,624,l),
(387,323,l),
(426,323,l),
(318,660,l),
(282,660,l),
(50,323,l)
);
}
);
width = 441;
},
{
background = {
shapes = (
{
closed = 1;
nodes = (
(221,316,l),
(356,556,l),
(391,316,l),
(537,316,l),
(454,665,l),
(289,665,l),
(71,316,l)
);
}
);
};
layerId = "A1EBBC90-F302-476F-8EDD-2A5F06C6278F";
shapes = (
{
closed = 1;
nodes = (
(193,316,l),
(328,556,l),
(363,316,l),
(509,316,l),
(426,665,l),
(261,665,l),
(43,316,l)
);
}
);
width = 524;
}
);
unicode = 94;
},
{
glyphname = plus;
lastChange = "2022-04-14 18:48:42 +0000";
layers = (
{
background = {
shapes = (
{
closed = 1;
nodes = (
(238,20,l),
(279,234,l),
(466,234,l),
(473,268,l),
(286,268,l),
(327,480,l),
(291,480,l),
(250,268,l),
(65,268,l),
(58,234,l),
(243,234,l),
(202,20,l)
);
}
);
};
layerId = "0474999B-FB68-4D9A-82B1-2286F2372C1D";
shapes = (
{
closed = 1;
nodes = (
(218,20,l),
(259,234,l),
(446,234,l),
(453,268,l),
(266,268,l),
(307,480,l),
(271,480,l),
(230,268,l),
(45,268,l),
(38,234,l),
(223,234,l),
(182,20,l)
);
}
);
width = 492;
},
{
background = {
shapes = (
{
closed = 1;
nodes = (
(290,22,l),
(324,191,l),
(472,191,l),
(496,314,l),
(347,314,l),
(380,482,l),
(253,482,l),
(221,314,l),
(74,314,l),
(49,191,l),
(196,191,l),
(163,22,l)
);
}
);
};
layerId = "A1EBBC90-F302-476F-8EDD-2A5F06C6278F";
shapes = (
{
closed = 1;
nodes = (
(266,22,l),
(300,191,l),
(448,191,l),
(472,314,l),
(323,314,l),
(356,482,l),
(229,482,l),
(197,314,l),
(50,314,l),
(25,191,l),
(172,191,l),
(139,22,l)
);
}
);
width = 500;
}
);
unicode = 43;
},
{
glyphname = minus;
lastChange = "2022-04-14 18:48:42 +0000";
layers = (
{
background = {
shapes = (
{
closed = 1;
nodes = (
(448,234,l),
(455,268,l),
(66,268,l),
(59,234,l)
);
}
);
};
layerId = "0474999B-FB68-4D9A-82B1-2286F2372C1D";
shapes = (
{
closed = 1;
nodes = (
(437,234,l),
(444,268,l),
(55,268,l),
(48,234,l)
);
}
);
width = 492;
},
{
background = {
shapes = (
{
closed = 1;
nodes = (
(459,191,l),
(482,314,l),
(89,314,l),
(65,191,l)
);
}
);
};
layerId = "A1EBBC90-F302-476F-8EDD-2A5F06C6278F";
shapes = (
{
closed = 1;
nodes = (
(434,191,l),
(457,314,l),
(64,314,l),
(40,191,l)
);
}
);
width = 500;
}
);
unicode = 8722;
},
